<?xml version="1.0" standalone="no"?>
<!DOCTYPE svg PUBLIC "-//W3C//DTD SVG 1.1//EN" "http://www.w3.org/Graphics/SVG/1.1/DTD/svg11.dtd" >
<svg xmlns="http://www.w3.org/2000/svg">
<metadata>
This is a custom SVG webfont generated by Font Squirrel.
Copyright   : Kyle Steed  wwwkylesteedcom
Designer    : Kyle Steed
Foundry     : Kyle Steed
</metadata>
<defs>
<font id="FunktionRegular" horiz-adv-x="1337" >
<font-face units-per-em="2048" ascent="1536" descent="-512" />
<missing-glyph horiz-adv-x="1024" />
<glyph unicode=" "  horiz-adv-x="1024" />
<glyph unicode="&#x09;" horiz-adv-x="1024" />
<glyph unicode="&#xa0;" horiz-adv-x="1024" />
<glyph unicode="!" horiz-adv-x="681" d="M203 1493q20 0 73.5 5t92.5 5t88 -8q-2 -101 -2 -187t2 -157q8 -351 8 -555q0 -102 -2 -168q-15 -1 -30 -1q-94 0 -154 24q-33 199 -51.5 587.5t-24.5 454.5zM279 213q39 41 96 44h10q51 0 92 -27q45 -30 53 -76q3 -18 4 -34q0 -74 -71 -106q-32 -14 -63 -13 q-42 0 -81 26q-56 38 -56 106q1 36 16 80z" />
<glyph unicode="&#x22;" horiz-adv-x="724" d="M41 1497q15 -2 52 -2q27 0 67 1q55 2 90 2q23 0 37 -1q7 -20 7 -88q0 -45 -3 -112q-8 -167 -27 -246q-48 -17 -123 -17q-27 0 -59 2q-14 99 -41 461zM463 1495q57 1 101 1q88 0 124 -5q-2 -37 -3 -138.5t-6 -178t-17 -138.5q-62 -8 -106 -8t-69 8q-16 183 -24 459z" />
<glyph unicode="#" horiz-adv-x="1748" d="M180 412q4 29 17 91l18 93q102 -8 168 -8q47 0 76 4q59 268 59 364q-72 -14 -155 -14q-70 0 -148 10q4 29 18.5 80t18.5 74q31 6 64.5 8t60 2t83 -1t97.5 -1q18 201 57 379q53 5 112 5t124 -5q-4 -67 -23.5 -183t-25.5 -188q45 -9 134 -9q30 0 65 1q70 2 117 2t71 -2 q4 63 33 207l32 164q34 2 70 2q26 0 53 -1q63 -3 97 -26q-6 -20 -13.5 -131.5t-34.5 -195.5q18 0 53 -1t52.5 -1t44.5 -2.5t41 -7.5l33 -11q18 -6 29.5 -17.5t19.5 -27.5t8 -69.5t-12 -84.5q-18 -14 -59 -16q-11 -1 -23 -1q-29 0 -58 4q-41 5 -95 11q-41 5 -70 5 q-10 0 -19 -1q4 -27 -39 -370q70 -10 324 -11q-20 -102 -31 -169q-53 -14 -96 -14.5t-125 7t-115 7.5q-16 -211 -63 -347q-23 -10 -48 -14q-20 -3 -37 -3h-7q-18 1 -55.5 4t-61.5 3q31 229 57 346q-78 10 -240 23q-89 7 -135 6q-38 0 -45 -4q-43 -276 -67 -357q-7 0 -14 1 l-76 -10q-41 -10 -66 -10h-4q-25 1 -55 26q27 82 49 360q-35 -8 -73 -8q-77 0 -167 33zM702 582q25 -12 176.5 -12.5t215.5 -6.5q-2 14 10 81l28 154q15 87 19 136q-9 -1 -34 -2q-45 0 -140 5q-81 4 -137 4q-48 0 -78 -3q-3 -45 -60 -356z" />
<glyph unicode="$" horiz-adv-x="1193" d="M242 944l-2 36q0 248 241 363q0 131 11 156q23 0 54 3q19 2 35 2q11 0 21 -1q25 -2 53 -14q18 -16 19 -123q119 -20 176 -79.5t72 -211.5q-38 -11 -139 -11q-29 0 -62 1q-8 51 -17.5 78.5t-40.5 49.5q-22 15 -53 15q-15 0 -32 -4q-144 -23 -145 -156q0 -49 20 -112 q16 -51 111 -90l205 -80q110 -41 149 -86q51 -61 66 -167q5 -37 5 -72q0 -66 -18 -128q-16 -55 -55 -89t-81 -46t-118 -28q-14 -2 -23 -5q-12 -6 -15 -22.5t-1 -38t-4 -47.5q-23 -33 -80 -36h-18q-45 0 -72 13q-14 125 -12 140q-189 83 -190 283q0 32 5 67q35 12 187 26 q10 -12 11 -53t15 -65q43 -68 112 -80q15 -3 29 -3q50 0 88 33q38 34 38 90q0 14 -3 29q-8 49 -83.5 97.5t-170 84t-102.5 42.5q-12 8 -49 29.5t-52.5 33.5t-38 36.5t-33.5 58.5t-13 81z" />
<glyph unicode="%" horiz-adv-x="1452" d="M256 1303q-1 6 -1 13q0 27 12 67q15 52 59 77q53 28 107 28l20 -1q63 -6 112 -45t53 -86q1 -7 1 -13q0 -53 -46 -95q-51 -46 -116 -59q-21 -4 -41 -4q-44 0 -86 19q-62 29 -74 99zM430 23q18 -18 49 -22q12 -1 25 -1q23 0 51 3q45 5 57 5q68 170 114 299l107 313l91 275 l105 288q85 230 108 302q-77 16 -155 16q-23 0 -46 -2l-283 -774q-37 -100 -116.5 -348t-106.5 -354zM981 74q-15 55 -15 107q0 61 20 119q38 108 120 120q12 2 24 2q54 0 100 -38q56 -46 64 -105q3 -16 3 -32q0 -59 -36 -118q-46 -74 -120 -94q-19 -5 -39 -5q-57 0 -121 44 z" />
<glyph unicode="&#x26;" horiz-adv-x="1449" d="M186 1206q0 135 94.5 209t198.5 82q44 2 85 2q139 0 245 -26q12 -4 22.5 -13.5t17.5 -27t12 -34t8 -44t5.5 -48t2.5 -55t1 -55t1 -57.5v-56q-61 -10 -215 -22q-14 47 -21.5 117.5t-24 95t-71.5 24.5q-109 -4 -127 -57q-22 -69 -22 -159q0 -71 14 -156q6 -47 45 -72 t86 -35t53 -14q16 -53 16 -103q0 -31 -6 -61q-129 -23 -168 -72q-35 -44 -35 -147v-23q4 -117 50.5 -165t148.5 -48q150 0 214.5 22.5t68.5 76.5q7 102 7 169t-7 99q-10 45 -43 71q-30 24 -71 23h-7v197q25 2 79 5t87 6t68.5 13.5t50.5 26.5q16 18 22 38.5t6 35t-5 41 t-5 43.5q49 9 98 8q43 0 84 -6q9 -50 10 -85q0 -32 -7 -90q-5 -48 -5 -55q0 -125 -227 -133q41 -41 61 -94q20 -51 20 -135q0 -89 -5 -136q-4 -38 -19 -155q-6 -41 -26.5 -72.5t-51 -49t-71.5 -30t-87 -15.5t-98 -5q-34 -1 -68 -1h-34.5h-35.5q-35 0 -68 -1h-15 q-319 0 -325 268q-2 104 -6 183v12q0 71 31 137q34 72 114 129q-106 68 -128 140.5t-22 338.5z" />
<glyph unicode="'" horiz-adv-x="598" d="M188 1499q18 0 106 3q37 1 64 2q36 0 54 -3q1 -38 1 -76q0 -200 -28 -385q-49 -9 -91 -8q-47 0 -85 10q1 20 1 46q0 71 -8 190q-12 162 -14 221z" />
<glyph unicode="(" horiz-adv-x="808" d="M199 1090q8 201 40.5 297t102.5 145q25 18 80 25.5t120.5 10.5t86.5 7q0 -18 2 -68q1 -33 1 -60v-27q-1 -38 -5 -66q-80 -12 -115 -35t-59 -82q-15 -89 -16 -226v-18q1 -150 8.5 -394.5t7.5 -285.5q-2 -104 41 -132.5t151 -28.5q4 -65 4 -115q0 -69 -8 -107 q-162 2 -256 33t-141 135q-33 72 -42 441q-6 221 -6 375q1 103 3 176z" />
<glyph unicode=")" horiz-adv-x="854" d="M201 113q178 0 190 170q11 109 11 429q0 54 -1 113q-2 416 -24 469q-20 49 -59 64q-33 13 -92 12h-17q-2 12 -2 40.5t2 72.5q4 88 4 96h27h34q10 0 37 -2t41.5 -5t40 -10.5t43 -17.5t38 -25.5t36.5 -35.5q49 -59 72.5 -155.5t26.5 -165.5q2 -41 2 -110q0 -46 -1 -104 q-2 -145 -2 -198q2 -100 2 -187q0 -432 -43 -534q-29 -72 -102 -91q-61 -16 -193 -17q-28 0 -59 1q-8 45 -10 115t-2 76z" />
<glyph unicode="*" horiz-adv-x="1064" d="M147 1352q55 84 103 86l80 -71q66 -58 96 -75q10 68 10 201q25 5 61.5 5t84.5 -5q13 -47 13 -98q0 -43 -9 -88q76 20 180 116q10 2 21.5 -1t25.5 -11t25 -15l27 -20l24 -16q-51 -61 -139 -141t-111 -103q35 -33 74 -60.5t89 -57t81 -52.5q-12 -14 -26.5 -40.5t-30 -45 t-40.5 -31.5q-29 18 -87 72.5t-103 65.5q-8 -23 -10 -107t-17 -106q-10 1 -22 1q-20 0 -44 -4q-16 -3 -27 -3q-16 0 -21 6q-4 25 -7.5 101.5t-11.5 105.5q-2 -2 -64.5 -59.5t-111.5 -86.5q-20 2 -49 37t-43 66q25 29 107.5 95t111.5 113q-138 124 -240 226z" />
<glyph unicode="+" horiz-adv-x="1110" d="M154 861q-1 13 -1 36.5t1 56.5q35 12 83 17.5t117.5 6.5t94.5 3q-33 156 -33 238q68 25 139.5 24.5t146.5 -24.5q-2 -19 -2 -56q0 -27 1 -64q2 -52 2 -84q0 -21 -1 -34q53 -2 289 -6q21 -73 21 -162q0 -50 -6 -104q-29 0 -111 -2q-55 -1 -94 -2q-20 0 -35 1q-47 1 -74 9 q16 -169 16 -251q0 -25 -1 -42q-45 -25 -115 -32q-19 -2 -39 -2q-49 0 -94 13q-16 70 -21 299q-34 -3 -67 -3q-104 0 -199 30q-2 23 -9 65.5t-9 68.5z" />
<glyph unicode="," horiz-adv-x="727" d="M211 173q18 62 72 97q21 3 40 3q122 0 179 -121q31 -66 31 -134q0 -53 -19 -108q-43 -125 -152 -131h-7q-40 0 -85 18q6 12 20.5 37t21.5 40t17.5 42t9.5 43t-5 43q-78 4 -110 56q-20 33 -20 71q0 21 7 44z" />
<glyph unicode="-" horiz-adv-x="1193" d="M202 847q0 72 29 118q56 -5 206 -6q199 0 564 10q2 -4 10.5 -24.5t11.5 -30.5l10 -29q7 -20 9 -33.5l5 -33.5q1 -10 1 -19.5t-1 -19.5q-2 -19 -7 -38q-133 -23 -434 -25.5t-368 -8.5q-36 61 -36 140z" />
<glyph unicode="." horiz-adv-x="638" d="M166 96q-1 12 -1 23q0 94 95 131q40 15 80 15q54 0 106 -29q81 -44 81 -130q0 -21 -5 -45q-53 -60 -153 -59q-16 0 -34 1q-126 11 -169 93z" />
<glyph unicode="/" horiz-adv-x="1110" d="M152 12l274 712q195 497 291 767q39 8 82 9h22q35 0 79 -2q58 -3 87 -3q-49 -178 -260 -730t-313 -757q-59 -8 -141 -8t-121 12z" />
<glyph unicode="0" d="M176 676q-2 49 -2 96q0 264 78 449q92 217 307 272q31 11 67 11q26 0 54 -6q68 -13 138.5 -40.5t140 -90t125 -139.5t91 -188.5t42.5 -240.5q2 -54 2 -104q0 -91 -8 -169q-11 -119 -28.5 -186.5t-52 -122.5t-56 -74.5t-60.5 -50.5q-98 -80 -215 -91q-21 -2 -41 -2 q-94 0 -180 43q-104 52 -193.5 143t-146 221.5t-62.5 269.5zM442 670q20 -164 117 -275q91 -105 195 -105q6 0 12 1q106 6 172 143q51 107 51 224q0 33 -4 67q-31 236 -118 374q-82 131 -201 130h-15q-82 -4 -137 -99.5t-71 -220.5q-8 -65 -8 -126q0 -58 7 -113z" />
<glyph unicode="1" horiz-adv-x="1251" d="M137 1069q43 74 95.5 148.5t89 134t67.5 135.5q39 0 125 7t149.5 7t112.5 -14q2 -76 19 -504q10 -263 10 -459q0 -122 -4 -217q28 -7 78 -7q34 0 77 3q72 5 117 6q22 0 37 -2q12 -27 12 -102q0 -16 -1 -34q-1 -34 -1 -62q0 -55 4 -80q-354 -20 -919 -29q-33 0 -36 52 q-1 11 -1 24q0 45 9 103q11 75 9 95q87 -8 160 -8q109 0 186 19q3 65 4 196q0 110 -2 267q-4 246 -4 359v71q-14 -8 -28 -20l-25 -19q-10 -8 -24.5 -23.5t-20.5 -23l-21 -27.5l-20 -26q-4 -5 -20.5 -28.5t-18.5 -25.5h-16q-70 0 -106 16q-40 19 -93 68z" />
<glyph unicode="2" d="M236 215q111 27 256 172t177.5 206.5t61.5 142.5t50 179q12 53 12 103q0 42 -9 82q-18 86 -82 129q-8 1 -16 0q-86 0 -130 -60q-48 -66 -71 -190q-56 -7 -95 -7q-16 0 -29 1q-46 4 -115 26q23 362 254 463q76 31 173 37q19 1 38 1q74 0 133 -19q123 -45 167 -252 q27 -129 27 -256q0 -77 -10 -154q-18 -154 -117.5 -307.5t-228.5 -255.5q23 2 155 10t178 8t161 -4q33 -41 37 -124q1 -15 1 -29q0 -64 -18 -113q-96 -4 -237 -4q-94 0 -208 2q-143 2 -265 2t-224 -2q-14 16 -19 53t-5 90.5t-2 69.5z" />
<glyph unicode="3" horiz-adv-x="1253" d="M213 1282l35 47q29 39 39 50.5t38.5 40t52 39.5t60.5 23.5t80 16.5q24 2 48 2q110 0 205 -47q116 -57 157 -143q24 -70 23.5 -137t-23.5 -132q-47 -129 -162 -182q223 -57 291 -364q14 -68 14 -128q0 -154 -96 -252q-113 -115 -304 -116q-34 0 -71 4q-123 12 -223.5 96 t-140.5 222q45 51 180 98q80 -127 166 -150q34 -9 63 -8q76 0 129 55q47 50 48 122q0 40 -15 85q-12 37 -30.5 64.5t-45 43t-51.5 26t-66 12.5t-68 3q-14 1 -33.5 0.5t-44.5 -0.5q-50 -1 -77 -1q-13 64 -13 126q0 28 3 56q156 2 283 145q52 59 52 154q0 87 -38 107 q-35 23 -75 24q-9 0 -17 1q-29 0 -48 -6q-26 -7 -65 -38t-50 -41t-44 -47q-8 -6 -10 -10q-33 6 -56.5 17t-43 35t-28 37t-28.5 50z" />
<glyph unicode="4" horiz-adv-x="1193" d="M119 926q289 422 409 555q27 10 75 15t85 5t97.5 -1t74.5 -1q4 -45 9 -227t20 -293q57 2 106 2q73 0 125 -4q16 -20 25.5 -41t11.5 -48q1 -18 1 -33v-13q-1 -18 -5 -58.5t-6 -58.5q-102 -10 -275 -12q0 -35 5.5 -143.5t7.5 -183.5q1 -21 0 -45q0 -60 -3 -138 q-5 -109 -20 -197q-8 1 -18 1q-31 0 -83 -5q-30 -3 -55 -3q-33 0 -55 5q-14 96 -16 226q-1 43 -1 89q0 91 3 191t3 161q0 31 -1 52q-190 -14 -322 -14q-112 0 -184 10q-2 20 -5 94t-9 113zM391 954q27 1 58 2q15 0 30 -1q47 -1 108.5 -3t65.5 -2q2 9 2 36q0 72 -16 274 q-35 0 -73 -43t-101.5 -146t-73.5 -117z" />
<glyph unicode="5" horiz-adv-x="1392" d="M283 1489h42q110 0 346 7q173 6 287 6q77 0 127 -3q16 -57 22 -81q4 -17 4 -43q0 -11 -1 -23q-2 -43 -18 -84q-58 -6 -152 -7q-56 0 -125 3q-79 3 -146 2q-89 0 -157 -4q10 -88 10 -168q130 61 222 60q13 0 26 -1q98 -10 219 -96q119 -84 164 -290q24 -109 24 -217 q0 -96 -19 -192q-40 -203 -148 -282q-97 -77 -266 -77q-20 0 -42 1q-199 10 -301 123q-63 66 -83 176q-15 84 -14 202q0 37 1 79q35 0 93.5 8t85.5 10h10q26 0 65 -8v-65q0 -36 2 -69.5t15.5 -74.5t39.5 -80q52 -66 117 -66q11 0 22 2q77 13 144 95q40 64 40 161q0 36 -5 76 q-20 150 -82 262q-37 68 -102 94q-30 12 -60 11l-72 -16q-66 -31 -96 -113q-33 -4 -111.5 -7t-113.5 -7q-26 351 -26 531q1 121 12 165z" />
<glyph unicode="6" horiz-adv-x="1308" d="M197 600q-2 38 -2 75q0 205 48 394q56 223 154 311q132 120 341 121q107 0 235 -33q23 -62 23 -143q0 -43 -7 -92q-43 3 -84 2q-186 0 -313 -53q-63 -27 -110 -115q-42 -81 -42 -160v-14q100 83 239 83q40 0 83 -7q125 -20 228.5 -115.5t123.5 -214.5q8 -48 8 -96 q0 -155 -86 -309q-113 -202 -272 -228q-40 -7 -81 -6q-97 0 -193 38q-136 54 -201 171q-82 145 -92 391zM434 543q10 -158 98 -237q68 -61 159 -61q26 0 52 5q76 14 124 83.5t48 158t-45 176.5q-47 80 -152 95q-21 3 -42 3q-82 0 -152 -49q-88 -61 -90 -174z" />
<glyph unicode="7" horiz-adv-x="1222" d="M180 1374.5q0 14.5 1 33.5t4 36.5t10 36.5q315 19 510 19q98 0 165 -5q168 -14 283 -49q2 -10 2 -22q0 -27 -10 -62q-14 -49 -42 -106.5t-32 -71.5q-221 -635 -364 -1164l-73 -17q-12 -3 -30 -3q-14 0 -32 2q-40 4 -74 23q2 66 10 140.5t31 176.5l35 165q13 62 52 193 l48 167l54 182q44 145 44 147q-61 25 -174 25q-56 0 -126 -7q-85 -8 -148 -7q-90 0 -134 16q0 10 -3 37.5t-4 40t-2 36t-1 38z" />
<glyph unicode="8" horiz-adv-x="1335" d="M230 1149q11 90 36 151q29 72 137.5 135.5t212.5 65.5h17q139 0 239 -66q106 -71 156 -208q20 -54 20 -106v-14q-3 -58 -11.5 -85t-39.5 -85l-34 -67q86 -31 140 -79t78.5 -113.5t31.5 -128.5q5 -40 5 -91q0 -29 -1 -61q-4 -70 -26 -132t-68 -121.5t-132 -97.5t-203 -44 q-37 -2 -70 -2q-357 0 -468 233q-34 79 -34 170q0 69 20 145q45 175 143 269q-92 35 -126 138q-25 78 -25 148q-1 23 2 46zM538 261q95 -62 183 -64q86 0 177 64.5t93 176.5v9q0 133 -64 213q-65 81 -217 81h-8q-117 -2 -190 -82q-72 -78 -72 -207q1 -127 98 -191zM446 1073 q59 -145 215 -145q160 0 187 213q1 7 1 13q0 60 -68 97q-65 36 -137 36q-11 0 -21 -1q-78 -6 -140 -79q-44 -52 -44 -98q0 -18 7 -36z" />
<glyph unicode="9" horiz-adv-x="1196" d="M126 1052q-1 14 -1 27q0 76 33 164q49 117 158.5 179.5t246.5 76.5q39 4 74 4q122 0 189 -45q87 -57 102 -192q6 -53 6 -241.5t4 -472.5t18 -527q-82 -23 -254 -23q-10 150 -13 275.5t-5 265t-4 233.5q-79 -26 -159 -25q-16 0 -33 1q-97 6 -172.5 44t-129 103.5 t-60.5 152.5zM348 1146q-3 -17 -3 -33q0 -54 32 -100q41 -60 127 -65h19q117 0 152 70q20 39 20 110q0 65 -17 156q-29 38 -95 38q-12 0 -25 -1q-85 -8 -144 -57q-54 -45 -66 -118z" />
<glyph unicode=":" horiz-adv-x="727" d="M240 123q-3 18 -3 33q0 63 47 91q32 18 69 18q32 0 69 -13q80 -29 127 -96q2 -14 2 -26q0 -22 -7 -39q-11 -26 -34 -51.5t-31 -37.5q-20 -2 -39 -2q-78 0 -129 28q-63 34 -71 95zM240 528q-12 48 -13 87q0 90 68 124q29 14 58 15q42 0 85 -29q53 -35 60 -92q1 -10 1 -19 q0 -83 -83 -122q-32 -15 -64 -16q-57 0 -112 52z" />
<glyph unicode=";" horiz-adv-x="808" d="M252 174q8 41 57 66q33 18 78 18q34 0 75 -11q93 -26 124 -87q28 -57 27 -127q0 -13 -1 -27q-6 -86 -45 -147.5t-102 -88.5q-23 -10 -49 -11q-44 0 -94 30q10 31 40.5 60.5t51.5 64.5q16 27 15 64q0 11 -1 24q-47 2 -91 30.5t-69 64.5q-18 27 -18 57q0 10 2 20zM260 565 q-5 24 -5 46q0 41 18 70q28 44 77 55q36 8 75 9q14 0 29 -2q54 -4 97 -22q9 -28 9 -55q0 -33 -14 -62q-26 -53 -74 -77q-37 -18 -82 -18q-14 0 -28 2q-61 7 -102 54z" />
<glyph unicode="&#x3c;" horiz-adv-x="1110" d="M131 866q59 49 184 126t154 98q63 45 133 87t166 94l150 83q20 -171 20 -249q0 -24 -2 -40q-61 -23 -120.5 -49.5t-99.5 -46t-112 -57.5l-121 -62l211.5 -148.5t239.5 -171.5q0 -31 3 -69l7 -93q4 -54 6 -92q-264 145 -454 285l-138 103q-43 33 -102 84.5t-125 117.5z " />
<glyph unicode="=" horiz-adv-x="1110" d="M180 1167q82 8 201 9q179 0 442 -19q15 -55 15 -183v-61q-65 6 -158 6q-74 0 -166 -4q-138 -5 -235 -5q-48 0 -86 1q-14 45 -14 167q-1 40 1 89zM213 502q232 -28 429 -28q137 0 257 13q0 172 -33 267q-66 10 -205 10q-60 0 -134 -2q-122 -3 -200.5 -3t-113.5 3 q-9 -88 -9 -153t9 -107z" />
<glyph unicode="&#x3e;" horiz-adv-x="1107" d="M166 276q2 25 9 119t7 135q100 76 239.5 171.5l211.5 148.5l-122 62l-112 58q-39 19 -99 45.5t-122 49.5q-1 12 -1 29q0 76 22 260l148 -84l165 -93q72 -42 135 -87q29 -20 154 -97.5t184 -126.5q-92 -94 -160.5 -150.5t-203.5 -154.5q-191 -140 -455 -285z" />
<glyph unicode="?" horiz-adv-x="1067" d="M152 915q-10 87 -10 161q0 96 17 167q30 125 132 201q98 45 198 55q23 2 46 2q77 0 150 -26q95 -35 155 -119q72 -98 91 -212q9 -51 9 -98q0 -56 -13 -103q-24 -87 -75 -149.5t-115 -72.5q0 -66 -9 -178.5t-11 -147.5q-119 -11 -180 -11q-17 0 -29 1q-13 197 -13 349 q0 68 3 126q6 2 45 18.5t49 23.5t40 24.5t39 34t21.5 42t10 58.5t-12.5 72q-14 49 -83 96q-51 35 -94 35q-15 0 -30 -4q-114 -31 -114 -233q0 -37 4 -79q-35 -29 -103 -38q-26 -4 -50 -3q-37 -1 -68 8zM498 53q35 -47 106 -54q10 -1 19 -1q59 0 104 39q38 33 38 86 q0 19 -5 41q-39 57 -110 72q-16 3 -31 3q-51 0 -90 -38q-37 -36 -36 -98q0 -24 5 -50z" />
<glyph unicode="@" horiz-adv-x="1878" d="M164 750q10 82 23.5 151.5t36 141t52 129t71.5 110.5t93.5 92t120 69t148 44t180 14t217.5 -18q147 -23 296.5 -89.5t199.5 -164.5q45 -88 74.5 -208t34.5 -251q1 -13 1 -26q0 -115 -41 -203q-31 -70 -112.5 -120t-131.5 -56q-32 -4 -58 -5q-47 0 -77 14q-47 22 -80 68 q-43 -76 -218 -88q-25 -2 -48 -1q-140 0 -221 63q-63 51 -80 151q-4 23 -4 48q0 82 43 182q23 29 72 54.5t114 34.5q15 2 30 2q49 0 95 -24q5 16 6 37q0 19 -5 42q-9 48 -62 52q-10 0 -75.5 -4t-111 -6t-61.5 4q0 16 -4 46t-5 48.5t7 41t29 36.5q77 13 178 13q14 0 30 -1 q120 -2 201 -45q45 -51 58.5 -159.5t18.5 -220t32 -158.5q61 -24 112 -25q18 0 34 3q65 11 87.5 54.5t29.5 116.5q2 18 2 38q0 58 -16 126q-22 90 -70 171t-146.5 141.5t-233.5 74.5q-75 8 -141 8q-101 0 -177 -19q-126 -32 -191.5 -120t-90 -201.5t-27.5 -285.5 q0 -31 16.5 -80t54.5 -112.5t91 -121t138 -100.5t184 -51q86 -7 163 -8q242 0 396 73q2 -16 13 -44.5t17.5 -50t3.5 -47.5t-22 -46q-61 -61 -424 -82q-36 -2 -72 -2q-117 0 -238 25q-159 33 -263 112q-160 123 -237 303q-63 149 -63 263q0 24 3 47zM824 585q7 -32 42 -57 q29 -24 71 -24q5 0 10 1q48 3 77 48q6 12 9 27q2 11 3 24q0 20 -4 43q-2 14 -7 40l-7 36q-32 7 -58 7q-66 0 -102 -44q-18 -20 -30 -45q-7 -15 -6 -33q-1 -11 2 -23z" />
<glyph unicode="A" d="M113 8q72 569 264 1465q108 25 240 25q19 0 38 -1q52 -1 97 -1q90 0 153 5q90 -274 222 -833q121 -512 121 -643q0 -12 -1 -21q-20 0 -123 4q-51 2 -85.5 2t-53.5 -2q-41 100 -83 283.5t-73 269.5q-151 -16 -278 -16q-38 0 -74 2q-20 -86 -49 -267.5t-51 -265.5 q-49 -12 -132 -14h-27q-64 -1 -105 8zM496 784q12 0 81.5 -6t95.5 -7q13 -1 30.5 -0.5t40.5 0.5q46 1 75 7q-6 106 -35.5 268t-64.5 232q-49 3 -86 3t-62 -3q-12 -47 -38.5 -249t-36.5 -245z" />
<glyph unicode="B" horiz-adv-x="1222" d="M131 1454q71 48 243 48q62 0 137 -6q284 -24 396 -110q80 -61 105 -200q8 -44 7 -85q0 -89 -36 -163q-6 -14 -18.5 -27.5t-22.5 -21.5t-30 -20l-28 -16q-9 -5 -34 -16.5t-29 -13.5q139 -70 213 -208q56 -106 57 -216q0 -34 -6 -68q-23 -146 -143 -233q-96 -68 -228 -86 q-91 -13 -209 -12q-52 0 -109 2q-124 5 -191 6q-34 0 -53 -2q-10 285 -12.5 754t-8.5 694zM377 1282q0 -252 10 -354q41 -10 82 -11q88 0 178 48q122 64 122 160q0 9 -1 18q-6 70 -82 106.5t-159.5 36.5t-149.5 -4zM387 470q-1 -47 0 -84q0 -113 4 -142q92 -15 165 -15 q156 0 226 68q37 43 38 100q0 6 -1 12q-4 65 -34.5 126t-67.5 81q-51 31 -150.5 51.5t-179.5 20.5q1 -15 1 -69.5t-1 -148.5z" />
<glyph unicode="C" horiz-adv-x="1366" d="M131 540q-17 103 -17 203q0 118 23 233q43 214 146 333q162 188 376 192h18q85 0 163 -17q86 -19 143 -49t98 -65t56.5 -64.5t7.5 -46t-19.5 -31t-30.5 -32.5l-30 -28l-42 -36q-32 -28 -42 -36q-124 150 -284 149h-9q-121 -2 -197.5 -92t-97.5 -227q-8 -61 -8 -122 q0 -107 26 -209q40 -161 150 -243q82 -61 185 -70l29 -2q88 0 166 50q91 57 122 180q16 -12 50 -35l51 -35q17 -12 41 -33.5t44 -44.5q10 -11 10 -27q0 -60 -135 -190q-170 -145 -384 -145q-30 0 -61 3q-251 24 -398 190q-113 125 -150 347z" />
<glyph unicode="D" horiz-adv-x="1421" d="M161 1295v19q0 29 2 60q3 41 12 67.5t26 37.5q32 24 164 23q74 0 180 -7q295 -20 409 -82q98 -51 176 -178t116 -280q29 -118 29 -245q0 -38 -2 -77q-11 -170 -83 -297q-104 -186 -383 -278q-181 -59 -384 -59q-110 0 -226 17q-32 288 -33 852q0 119 2 250q0 31 -2 85 t-3 92zM419 942q-2 -63 -2 -121q0 -140 9 -255q12 -163 57 -281q231 8 377 160q131 137 131 333q0 22 -2 45q-16 219 -173 341q-102 79 -238 80q-73 0 -156 -23q1 -19 0 -50q1 -77 -3 -229z" />
<glyph unicode="E" horiz-adv-x="1165" d="M125 1491q107 5 271 5q82 0 179 -1q83 -1 156 -1q181 0 297 7q23 -53 24 -106v-12q0 -50 -8 -121q-74 -12 -162.5 -19.5t-148 -9.5t-173.5 -3t-165 -3q1 -37 11 -165q9 -107 8 -157v-18q84 -13 333 -13q111 0 254 3q0 -158 9 -248q-54 -1 -104.5 -1t-97.5 1q-37 1 -77 1 q-59 0 -124 -2q-108 -3 -183 -14q-20 -20 -20.5 -83.5t5.5 -140.5q3 -43 2 -70q0 -22 -1 -35q159 -2 319 -2t322 2q2 -45 2 -89q0 -88 -9 -171q-111 -10 -233.5 -15.5t-205.5 -6.5t-229 -2t-226 -1q0 94 -17 651q-11 371 -11 621q0 125 3 219z" />
<glyph unicode="F" horiz-adv-x="1081" d="M166 1479q0 14 127 20q65 3 141.5 3t165.5 -3q178 -6 293 -24q31 -81 31 -158q0 -40 -9 -80q-116 -8 -228.5 -8t-221.5 8q-2 -23 -2 -54q0 -63 8 -161q12 -147 12 -188q39 3 91 3q43 0 94 -2q33 -2 61 -2q67 0 102 9q23 -76 23 -242q-209 7 -306 7q-39 0 -59 -1 q-7 -60 -7 -177q0 -47 1 -103q4 -197 19 -299q-104 -26 -190 -26q-57 0 -105 11q-41 791 -41 1467z" />
<glyph unicode="G" horiz-adv-x="1308" d="M129 950q20 135 75.5 242.5t130.5 171t167 101.5q87 36 176 36h10q94 -2 189 -26q109 -33 203 -140.5t94 -261.5q-88 -47 -172 -46q-23 0 -46 3q-8 16 -25.5 54t-26.5 54.5t-26.5 39t-42 36t-59.5 19.5q-30 6 -58 5q-89 0 -169 -52q-106 -70 -144 -211q-20 -79 -19 -167 q0 -104 28 -219q51 -212 174 -286q75 -47 137 -47q33 0 61 13q84 38 132.5 123t60.5 194q-49 0 -193 71q8 137 50 191q53 -6 199.5 -27.5t181.5 -25.5q12 -90 11 -171q0 -219 -85 -366q-152 -258 -408 -258q-180 0 -334.5 128t-232.5 351q-52 149 -52 309q0 79 13 162z" />
<glyph unicode="H" horiz-adv-x="1363" d="M127 1470q27 12 74 17q31 3 57 3q13 0 25 -1l85 -5q50 -3 54 -3q8 -59 18.5 -245.5t16.5 -254.5q22 -3 55 -3q127 0 410 38v77q0 161 -7 371q31 27 84 34q29 4 54 4q21 0 39 -3q39 -6 69 -16q35 -43 59.5 -625t24.5 -858q-18 1 -40.5 1t-48.5 -1q-15 -1 -30 -1 q-38 0 -79 4q-57 5 -72 20q-23 291 -37 727q-42 -12 -154 -13q-35 0 -77 1q-98 3 -163 3q-51 0 -81 -2q-1 -30 -1 -77q0 -105 6 -294q4 -130 4 -218q0 -98 -5 -146q-12 1 -29 1q-26 0 -62 -2q-30 -2 -57 -1.5t-50 1.5q-46 3 -72 20q-41 702 -70 1447z" />
<glyph unicode="I" horiz-adv-x="681" d="M174 1485q23 2 69 8t67 7h12q18 0 44 -2q34 -3 66 -13q25 -102 39 -256t17.5 -276t7.5 -320.5t6 -284.5q4 -74 3 -149q0 -95 -5 -193q-16 0 -112.5 -2t-139.5 -4q-12 137 -41 694.5t-33 790.5z" />
<glyph unicode="J" horiz-adv-x="1196" d="M150 707q51 32 137 31q41 0 90 -7l4 -39l9 -56q3 -19 11.5 -64.5t16.5 -73.5l20 -69q12 -40 28.5 -66.5t36 -52t44 -38t53.5 -12.5h4q49 0 83 46q36 48 42 132q8 110 8 260q0 118 -5 259q-11 323 -38 528q25 14 57 16q11 1 24 1q27 0 65 -3q57 -4 88 -4q4 -43 17 -171 t22.5 -243.5t17.5 -263.5q7 -118 7 -238q0 -30 -1 -60q-2 -151 -16 -281q-12 -94 -103.5 -165t-250.5 -73q-154 0 -271 111.5t-166 271.5q-38 124 -38 250q1 37 4 74z" />
<glyph unicode="K" horiz-adv-x="1536" d="M143 1477q77 25 149.5 24.5t139.5 -24.5q3 -40 4 -104q0 -87 -6.5 -219t-6.5 -230q0 -71 3 -125q233 127 393 291.5t240 396.5q29 -12 144.5 -15.5t144.5 -39.5q-14 -41 -28.5 -76t-36.5 -73l-34 -59q-12 -22 -43.5 -65t-44.5 -58l-55 -69q-43 -53 -55 -69l225 -562 l37 -92q33 -82 56.5 -150.5t35.5 -129.5q-52 -28 -157 -29q-47 0 -105 6l-95 231l-124 304q-55 139 -86 239q-16 -14 -186.5 -114.5t-202.5 -143.5q0 -35 9 -241q4 -98 4 -160q0 -69 -5 -92q-48 -21 -121 -21q-68 0 -158 19q-4 176 -5 484t-6.5 540.5t-23.5 425.5z" />
<glyph unicode="L" horiz-adv-x="1110" d="M168 1489q73 12 172 12q37 0 78 -2q31 -156 35 -393q1 -86 1 -167q0 -141 -4 -264q-2 -50 -2 -103q0 -152 15 -328q19 -3 77.5 -3t156.5 3q39 1 75 1q142 0 223 -20q26 -52 26 -111q0 -54 -22 -114q-106 7 -264 7q-79 0 -171.5 -2t-163.5 -2q-142 0 -201 7v154 q0 656 -31 1325z" />
<glyph unicode="M" horiz-adv-x="1849" d="M127 1481q48 17 123 17q79 0 188 -19q80 -119 257 -534t223 -503q264 539 456 1031q59 6 166 8t143 4q35 -90 49 -413q11 -262 10 -492v-105q-3 -274 -9 -450q-82 -26 -167 -26q-37 0 -75 5q-2 31 -11.5 218.5t-13.5 256t-16 197.5t-29 227l-102 -252l-163 -397 q-75 -182 -99 -234q-35 0 -213 -12q-102 188 -230.5 478t-199.5 499q30 -442 30 -733q0 -125 -6 -223q-12 -14 -55 -20q-36 -4 -69 -4h-13q-39 1 -94 5t-64 4q-6 96 -9 761t-7 706z" />
<glyph unicode="N" horiz-adv-x="1593" d="M176 8q-8 484 -8 853.5t8 623.5q95 13 175 13q48 0 91 -5q43 -127 291 -434t371 -430q1 30 1 69q0 129 -10 361q-6 146 -7 248q0 110 8 168q87 26 212 25q25 0 52 -1q20 -193 25 -449q3 -129 3 -274t-3 -307q-4 -231 -3 -357v-83q-59 -10 -110 -10h-26q-62 3 -103 13.5 t-47 20.5q-49 98 -168 261l-277 362l-194 248q0 -109 6 -293.5t6 -330.5t-16 -273q-87 -25 -179 -26q-49 0 -98 7z" />
<glyph unicode="O" d="M68 716q-3 35 -3 71q0 137 43 286q54 188 177 330q68 78 214 93q50 5 98 5q93 0 180 -19q132 -30 194 -75q98 -70 168.5 -199t103.5 -277q25 -113 25 -232q0 -37 -2 -75q-10 -159 -61.5 -291t-160 -223.5t-262.5 -107.5q-22 -2 -46 -2q-96 0 -222 39q-158 49 -260 151 q-72 74 -122 215.5t-64 310.5zM328 799q4 -141 33.5 -237.5t60.5 -135.5t86 -86q45 -37 128 -44q13 -1 26 -1q70 0 142 33q85 39 120 123q31 74 46 172q12 74 11 153q0 26 -1 53q-5 109 -57.5 207.5t-148.5 147.5q-94 50 -172 49q-87 0 -155 -61q-120 -109 -120 -343 q1 -14 1 -30z" />
<glyph unicode="P" horiz-adv-x="1251" d="M139 1436q29 35 79 46q37 8 73 8q13 0 26 -1q25 -2 51 -2t54 2q158 12 257 13h9q96 0 209 -21q119 -23 180 -80q76 -68 86 -280q1 -25 1 -48q0 -179 -68 -293q-45 -72 -174 -119t-234.5 -62t-281.5 -32q-2 -27 -2 -67q0 -51 3 -122q2 -58 2 -109q0 -61 -3 -112 q-6 -93 -35 -155q-26 -2 -50 -2q-104 0 -163 37q5 126 5 282q0 209 -9 476q-15 413 -15 598v43zM395 1294q14 -84 17.5 -258t9.5 -235q67 -6 125 -6q247 0 336 112q43 55 48 146v15q0 82 -48 157q-35 47 -121 65q-81 17 -158 18h-8q-80 -2 -201 -14z" />
<glyph unicode="Q" horiz-adv-x="1564" d="M80 653q-1 18 -1 36q0 227 97 419q104 207 290 313q140 80 294 81q50 0 102 -9q57 -10 129 -45t152 -103.5t141.5 -157.5t91.5 -219q18 -75 18 -155q0 -59 -10 -121q-29 -190 -59 -268q-12 -31 -29 -64q47 -57 106 -72q35 -9 75 -9q27 0 57 4q61 9 82 8h6q18 -86 18 -116 t-12 -118q-80 -25 -157 -36q-53 -8 -105 -7l-48 1q-77 5 -133.5 44t-78.5 111q-123 -115 -268 -153q-73 -19 -141.5 -19t-132.5 19q-128 38 -237.5 124t-175 222t-71.5 290zM364 651q22 -119 70 -190q100 -150 268 -179q35 -6 67 -7q122 0 200 92q134 158 134 338 q0 73 -22 149q-80 274 -276 344q-48 16 -93 16q-90 0 -169 -65q-119 -98 -168 -246q-20 -80 -20 -155q0 -50 9 -97z" />
<glyph unicode="R" horiz-adv-x="1480" d="M166 1475q96 8 160.5 12t168 9t177 5t166 -3t157 -14t125 -27.5t98 -44.5t52.5 -64q45 -117 45 -215q0 -40 -7 -76q-26 -127 -103 -209t-193 -119q20 -78 97 -311.5t105 -380.5q-35 -20 -110 -30q-52 -6 -101 -6q-22 0 -42 1q-53 123 -119 386t-84 325q-10 0 -112 -5 q-72 -4 -134 -4q-25 0 -47 1q19 -145 19 -294q0 -190 -31 -384q-29 0 -84.5 -6.5t-80.5 -7.5h-6q-25 0 -65 7q-4 190 -29 693q-23 463 -22 720v42zM428 1260q-1 -17 -1 -42q0 -48 5 -125q8 -116 27 -155q65 -8 133 -8q59 0 121 6q133 12 235 73q98 58 99 138q0 46 -51 72 q-48 25 -119.5 31.5t-156.5 9.5q-34 1 -67 0q-49 0 -94 -2q-32 -1 -61 -1q-38 1 -70 3z" />
<glyph unicode="S" horiz-adv-x="1067" d="M81 411q-1 12 -1 24q0 76 26 169q22 1 46 1q83 0 184 -11q-2 -15 -2 -31q0 -87 57 -189q68 -120 156 -122h4q83 0 130 81q40 68 40 155q0 19 -2 38q-6 63 -63.5 107.5t-138.5 73.5l-165 58q-84 30 -154.5 81t-95.5 123q-36 109 -36 197q0 115 62 195q110 140 392 140 q193 0 299.5 -96t110.5 -227q0 -14 -11.5 -26.5t-36 -20t-45 -11.5t-55.5 -10l-47 -8q-78 181 -218 181q-18 0 -38 -3q-55 -10 -91 -71q-28 -47 -28 -79q0 -9 2 -18q23 -70 80.5 -108.5t163 -77.5t168.5 -76q131 -80 177 -209q39 -110 39 -221q0 -20 -1 -39 q-6 -133 -112.5 -255t-272.5 -126h-19q-168 0 -290 70q-41 25 -83 67.5t-84 115.5t-47 158z" />
<glyph unicode="T" horiz-adv-x="1138" d="M102 1345q-3 27 -2 55q0 39 4 83q133 16 457 18q65 0 122 1q227 0 327 -7q2 -20 5 -55t4 -52.5t2 -41.5v-16q0 -15 -1 -28q-2 -19 -8 -40q-129 -16 -209 -16q-24 0 -43 1q4 -109 17 -298l23 -321q9 -132 12 -319q0 -29 1 -57q0 -146 -14 -232q-29 -16 -72 -19 q-18 -1 -39 -1q-27 0 -57 2q-35 3 -57 3q-10 0 -17 -1q-8 142 -8 276q0 67 2 132q2 73 2 152q0 132 -6 282q-10 240 -47 401q-52 -10 -150 -10q-87 0 -211 8q-31 38 -37 100z" />
<glyph unicode="U" horiz-adv-x="1480" d="M100 1450q6 16 33 26.5t59.5 13.5t72.5 4q20 1 38 1t33 -1q31 -1 57 -3l25 -2q6 -63 21.5 -372.5t47 -507t97.5 -247.5q92 -70 173 -69q72 0 136 53q92 78 133 304q38 211 38 408v29q-3 211 -26 404q53 0 147 6q70 5 123 5q18 0 33 -1q26 -179 26 -411q0 -46 -1 -95 q-6 -291 -59 -485q-41 -145 -115 -278.5t-162 -182.5q-91 -49 -231 -49q-86 0 -191 18q-236 41 -370 336q-63 141 -89 317.5t-33.5 434.5t-15.5 344z" />
<glyph unicode="V" horiz-adv-x="1480" d="M129 1442q80 33 131 42q31 6 84 5q35 0 80 -2q53 -137 145.5 -516t122.5 -484q74 147 184.5 508t184.5 502q58 4 104 4q150 0 176 -41q-39 -188 -221 -715.5t-309 -742.5q-37 0 -85 -1t-68.5 -1t-50 6t-60.5 21q-43 174 -207 644t-211 771z" />
<glyph unicode="W" horiz-adv-x="1820" d="M141 1466q56 33 134 34q55 0 120 -17q12 -94 43 -476t58 -509q31 94 71 263l81 348l52 230q59 43 108 47q6 1 14 1q50 0 155 -23q45 -109 134 -411t155 -431q59 160 111.5 511t74.5 450q69 17 164 17q62 0 135 -7q-53 -221 -80 -365q-133 -682 -274 -1118q-29 -4 -89 -4 h-106q-45 0 -53 -6l-91 272l-111 324q-50 141 -101 262q-25 -90 -65 -272.5t-81 -321.5t-94 -244q-121 -5 -210 -4h-56q-18 117 -81.5 441.5t-91.5 550.5q-26 210 -26 426v32z" />
<glyph unicode="X" horiz-adv-x="1280" d="M117 27q20 88 67 202.5t89 196.5l108 203q66 121 86 164q-199 479 -258 688q49 10 88 14t90 5t72 1q45 -100 116 -277l99 -239q47 63 92 142t102 199l64 132q23 2 57.5 9.5t55 10.5t56.5 0t77 -14q-16 -47 -37 -96l-37 -86q-16 -37 -44 -89l-41 -79q-13 -27 -48 -83 t-44.5 -72.5t-48 -78t-42.5 -69.5l95 -253l110 -291q48 -128 87 -242q-55 -14 -138 -22q-39 -3 -69 -3q-34 0 -57 4q-10 86 -37.5 179t-44 135t-71 161t-60.5 133q-43 -74 -141 -289.5t-160 -304.5q-57 -5 -104 -4q-78 0 -129 13z" />
<glyph unicode="Y" horiz-adv-x="1193" d="M55 1475q37 18 88 22q23 2 49 2q32 0 70 -3q68 -5 78 -5q135 -225 301 -469q2 6 95 195.5t122 269.5q46 13 120 13h11q82 -1 148 -13q-31 -131 -183.5 -375t-173.5 -289q-3 -51 -3 -144.5t3 -229.5q2 -91 2 -170q0 -158 -8 -271q-76 -10 -138.5 -10t-111.5 10 q-6 147 -11 427t-9 388q-39 70 -216.5 298.5t-232.5 353.5z" />
<glyph unicode="Z" horiz-adv-x="1222" d="M170 2q-7 63 -7 112q0 61 11 101q4 8 94 158l174 292q84 142 172 313t115 261q-68 8 -294 9t-236 1q-16 84 -17 230q61 14 378 20q158 3 262.5 3t154.5 -3q27 -2 43 -20.5t22.5 -62.5t7.5 -76.5t1 -98.5q-14 -39 -55.5 -100.5t-61.5 -100.5l-94 -180l-122 -232l-116 -212 q-66 -117 -110 -187q70 0 276 7q89 3 154 2q88 0 135 -5q8 -41 10 -75q1 -17 1 -39.5t-1 -48.5q-2 -53 -2 -68h-895z" />
<glyph unicode="[" horiz-adv-x="1193" d="M301 1538q126 38 308 38h9q188 -1 320 -38q6 -203 6 -223q-29 -8 -84 -9q-14 0 -29 -1q-46 0 -105 3q-79 3 -122 3q-13 -164 -13 -363q0 -328 36 -751q23 -14 88 -19.5t148 -8.5t122 -9q5 -85 5 -142.5t-5 -87.5q-288 7 -457 8q-113 0 -174 -4q-18 270 -29.5 811 t-23.5 793z" />
<glyph unicode="\" horiz-adv-x="1323" d="M190 1499q14 2 49 2t90 -2q110 -4 117 -4q117 -168 226 -399l174 -348l45 -86l46 -89l39 -76l41 -82l36 -75q25 -51 37 -82l31 -76q19 -45 35 -87l32 -85q-25 -4 -121 -6t-127 -4q-10 14 -68 126l-132 253l-111 209q-42 71 -439 911z" />
<glyph unicode="]" horiz-adv-x="1280" d="M342 1323q-2 31 -2 62q0 84 16 165q61 14 137 20.5t128.5 6.5t183.5 -1t201 -1q37 -147 46 -352q6 -123 5 -232q0 -73 -2 -140q-2 -56 -2 -115q0 -119 8 -255q2 -31 7 -100.5t7 -105t4 -93.5l2 -75q0 -18 -1 -36q-1 -54 -7 -114h-27q-73 0 -195 -8q-146 -10 -237 -15 q-18 -1 -37 0q-77 0 -171 13q1 14 0 30q0 41 -4 95q-5 76 -5 114l195.5 7.5t210.5 7.5q3 158 3 270q0 56 -1 100q-2 133 -8 384l-9 368h-39q-76 0 -201 -5q-59 -3 -103 -3q-75 0 -103 8z" />
<glyph unicode="^" horiz-adv-x="768" d="M154 1092q18 49 80.5 182t84.5 217q39 12 80 12q22 0 45 -4q88 -135 183 -307l35 -58q18 -30 28 -49q-21 -5 -57 -4q-27 0 -62 2q-90 119 -170 258q-20 -35 -131 -266q-23 2 -45 0q-8 -1 -15 0q-15 0 -28 2q-20 5 -28 15z" />
<glyph unicode="_" horiz-adv-x="1705" d="M213 4q-3 35 -3 97t3 151q98 0 313 4t305 4q45 0 152 1t167 1t157.5 -3t189.5 -11v-238q-48 -11 -349 -10q-107 0 -247 1q-379 4 -567 4q-76 0 -121 -1z" />
<glyph unicode="`" horiz-adv-x="555" d="M125 1450q119 74 180 43q133 -133 156 -287q-14 -6 -45 -25.5t-54 -27.5q-37 109 -116 176q-29 25 -62.5 61.5t-58.5 59.5z" />
<glyph unicode="a" horiz-adv-x="1251" d="M153 459q3 166 66 239q102 115 273 143q39 6 77 6q127 0 240 -71q-2 27 -4 88.5t-7 98t-22 73.5q-10 23 -49 27q-13 1 -29 1q-31 0 -72 -5q-62 -8 -132 -19.5t-157 -20.5q-71 -8 -131 -8q-13 0 -26 1q3 14 3 29q0 29 -10 61q-12 39 -12 70q0 8 1 16q100 72 292 115 q130 29 252 29q58 0 114 -7q175 -20 208 -117q35 -98 70 -504.5t84 -613.5q-86 -53 -213 -67q-26 -3 -48 -4q-106 0 -106 75q0 21 12 56q-112 -150 -373 -151q-17 0 -34 1q-127 4 -199 148q-69 138 -69 297q1 7 1 14zM382 416q-3 -23 -3 -46q0 -50 17 -95q23 -57 77 -57 q7 0 14 1q115 14 183.5 52t90 86.5t26.5 105.5q2 17 2 33q0 40 -9 79q-52 37 -112 37q-14 0 -28 -2q-77 -10 -131 -35.5t-87 -56.5q-29 -26 -40 -102z" />
<glyph unicode="b" horiz-adv-x="1366" d="M92 1462q102 39 198 39q66 0 130 -18q39 -315 39 -543q139 35 272 43q38 2 75 2q92 0 178 -14q120 -20 203 -87t103 -175q11 -56 11 -110q0 -69 -18 -135q-32 -116 -104.5 -202t-180 -147.5t-230.5 -89.5q-101 -24 -211 -24q-24 0 -48 1q-136 6 -263 49q-39 145 -49 356 q-7 150 -8 280q0 52 1 101q1 26 1 54q0 148 -19 308q-23 189 -80 312zM473 662q0 -20 1 -67.5t2 -73t5 -61.5t12.5 -64.5t22.5 -53.5q180 2 314 61q132 58 133 167q0 98 -94 141q-63 29 -136 28q-32 0 -65 -5q-113 -17 -195 -72z" />
<glyph unicode="c" horiz-adv-x="1421" d="M131 598q-1 15 0 30q0 157 58 292q65 147 172.5 238t241.5 138q106 37 214 38q28 0 55 -3q197 -18 355 -110q-4 -74 -64.5 -171.5t-68.5 -117.5q-88 57 -190 77q-52 10 -100 10q-45 0 -86 -9q-85 -18 -152.5 -65.5t-87.5 -125.5q-8 -31 -8 -66q0 -51 17 -108 q39 -117 155 -210q102 -82 204 -82q13 0 26 1q55 6 91 27.5t52.5 47.5t48.5 62.5t73 61.5q29 -10 55.5 -31.5t39.5 -37t37.5 -52.5t33.5 -47q-18 -109 -69.5 -189.5t-122.5 -122.5t-158 -62q-52 -12 -105 -11q-37 0 -74 5q-92 13 -183 44t-172 87.5t-144.5 124t-101.5 155.5 t-42 182z" />
<glyph unicode="d" horiz-adv-x="1251" d="M122 385q-1 15 -1 29q0 168 77 322q83 167 220 216q49 18 153.5 23.5t145.5 13.5q3 41 3 89q0 56 -4 121q-7 122 -18 163q16 43 64.5 66.5t117 41t99.5 33.5q27 -6 42 -24.5t18 -44t3 -49t-4 -53t-4 -42.5q5 -264 22 -626.5t17 -472.5q0 -46 -63 -89 q-68 -45 -173.5 -68.5t-221.5 -30.5q-25 -2 -50 -2q-89 0 -173 20q-108 26 -163 81q-100 99 -107 283zM360 457q10 -76 83 -111q55 -26 121 -26q21 0 44 3q92 11 164 62q3 17 3 39q0 61 -21 159q-29 132 -31 144q-133 0 -255 -78q-109 -70 -109 -169q-1 -11 1 -23z" />
<glyph unicode="e" horiz-adv-x="1394" d="M140 816q56 224 190 343q111 98 294 148q96 26 176 25q74 0 134 -21q137 -49 209 -226q40 -99 40 -206q0 -83 -24 -170q-28 2 -65 1q-110 0 -298 -14q-226 -17 -330 -16h-22q-1 -31 -1 -59q0 -77 9 -135q11 -79 52 -154q46 -80 166 -80h6q125 2 201 74q45 25 44 120 q0 40 -8 93q188 -12 265 -131q-18 -158 -94 -257.5t-180 -128.5q-68 -20 -143 -20q-39 0 -80 5q-120 15 -228.5 70.5t-193.5 142.5t-118 188q-29 93 -29 196q0 101 28 212zM469 846h7q55 0 433 49q0 23 -11 57.5t-35.5 70.5t-72.5 55q-29 12 -64 12q-22 0 -46 -5 q-72 -14 -120 -46.5t-65.5 -73.5t-22.5 -68q-4 -19 -4 -37q0 -7 1 -14z" />
<glyph unicode="f" horiz-adv-x="1251" d="M159 620q3 101 42 152q6 0 209 6q-2 56 -2 114q0 243 28 503q6 72 148 96q81 14 164 14q62 0 125 -8q148 -18 184 -53q18 -75 18 -127q0 -35 -8 -60q-19 1 -56 2q-75 0 -223 -6q-29 -2 -49 -14t-31.5 -38.5t-17.5 -53.5t-6 -76t1 -83t4 -98.5t5 -101.5q23 -2 96.5 -5 t132 -8t107.5 -13q33 -49 44 -144q3 -24 3 -43q0 -56 -24 -71q-20 -10 -80 -14q-36 -2 -72 -1h-49q-31 1 -61 1t-60 -1q2 -74 20 -245q14 -139 14 -206q0 -16 -1 -28q-10 1 -23 1q-33 0 -85 -4q-73 -5 -131 -5t-87 16q-6 39 -7 67t-1 55v116q0 88 -4 207q-11 0 -26 -1 q-62 0 -199 7q-42 46 -42 138v13z" />
<glyph unicode="g" horiz-adv-x="1394" d="M123 696q20 203 173 359.5t376 212.5q99 24 205 24q135 0 282 -39q129 -181 129 -673q0 -164 -14 -363q-14 -203 -109.5 -326.5t-239.5 -156.5q-65 -15 -137 -15q-87 0 -184 22q-176 40 -356 148q-31 61 -42 103q-6 21 -6 44q0 21 5 42q10 45 49 90q3 4 10 4q18 0 62 -21 l140 -72t173 -65q41 -10 79 -10q48 0 91 16q55 27 70.5 36.5t40 36t28.5 63.5q2 18 2 43t-2 57q-156 -66 -289 -78q-25 -2 -48 -2q-80 0 -152 26q-94 34 -156.5 92t-105.5 131t-62 143q-14 53 -14 99q0 15 2 29zM453 631q37 -92 126 -131q55 -24 113 -24q37 0 76 9 q88 20 123 146q28 101 28 225q1 29 -1 59q-2 63 -110 71q-17 1 -33 1q-87 0 -152 -33q-86 -37 -146 -136q-37 -63 -37 -121q0 -33 13 -66z" />
<glyph unicode="h" d="M141 1481q56 21 145 20h16q99 -2 165 -20q47 -115 51 -377q61 27 147 28h6q82 0 167 -25q88 -26 167.5 -69t138 -111.5t77.5 -148.5q14 -105 13 -173v-24q-3 -73 -17.5 -219.5t-14.5 -234.5q-109 -28 -193 -28q-54 0 -98 12q0 27 1 53q0 368 -54 512q-47 132 -139 131 q-64 0 -150 -64q-45 -35 -49 -169q-1 -34 -1 -69q0 -108 9 -241q7 -106 8 -173q0 -45 -4 -73q-124 -16 -192 -15q-40 0 -61 5q-115 771 -138 1473z" />
<glyph unicode="i" horiz-adv-x="739" d="M170 954q12 -102 24.5 -317t28 -385t43.5 -244q27 -6 92 -6q24 0 55 1q110 3 160 24q0 84 -6 438q-4 213 -3 346q0 89 1 143q-43 -2 -103.5 -6t-84 -5t-62.5 -1t-70.5 3t-74.5 9zM207 1255q-4 37 -4 69q0 106 48 142t152 36q32 0 68 -3q88 -69 88 -152q0 -31 -12 -65 q-33 -88 -123 -123q-33 -13 -64 -13q-72 0 -129 73q-14 16 -24 36z" />
<glyph unicode="j" horiz-adv-x="1081" d="M111 88q113 68 270 102q45 -182 76 -229q32 -44 75 -44q7 0 15 1q35 6 54.5 41t21.5 99q1 32 1 59.5t-1 50.5q-2 45 -11 121q-8 88 -63 370l-53 283q37 0 153 32q98 27 148 26q10 0 18 -1q35 -109 71 -331t48 -450q3 -51 3 -96q0 -159 -34 -251q-25 -57 -107.5 -116.5 t-152.5 -71.5q-55 -11 -119 -12q-51 0 -108 7q-129 16 -162 64q-137 184 -143 346zM506 1413q48 38 123 38h11q83 -3 132 -46q35 -42 35 -92q0 -9 -1 -18q-7 -60 -36 -103q-27 -39 -126 -48q-15 -1 -28 -2q-79 0 -122 46q-43 55 -44 112q0 69 56 113z" />
<glyph unicode="k" horiz-adv-x="1421" d="M164 1479q30 22 121 22q26 0 57 -2q80 -5 123 -5q33 0 45 3q0 -8 10 -284.5t23 -383.5q119 55 254 147.5t218 162.5l206 176q18 -23 81.5 -64t81.5 -82q-16 -63 -60 -112t-120 -105.5t-96 -74.5q33 -160 133 -420t125 -363q-33 -6 -71 -22.5t-59.5 -27.5t-61.5 -16 l-20 -2q-31 0 -60 13q-25 76 -99.5 324.5t-117.5 369.5q-129 -76 -324 -213q0 -47 3 -160.5t3 -200.5t-6 -136q-121 -22 -203 -22q-33 0 -59 3q-39 188 -41 476t-12.5 552.5t-73.5 446.5z" />
<glyph unicode="l" horiz-adv-x="768" d="M199 1468q63 34 129 35q13 0 26 -2q80 -8 150 -53q27 -113 33 -607q1 -82 1 -160q0 -386 -26 -644q-23 -4 -66 -15.5t-80 -16.5q-27 -4 -56 -4q-11 0 -23 1q-27 33 -33 76q-4 29 -4 65q0 18 1 38q2 36 2 59q0 15 -1 24q-53 750 -53 1174v30z" />
<glyph unicode="m" horiz-adv-x="2048" d="M180 653q2 342 45 473q41 123 185 176q82 30 174 29q69 0 143 -16q287 -66 354 -228q29 25 92.5 93.5t116.5 102.5t121 38q10 1 20 1q98 0 175 -55q84 -60 132 -169t78.5 -237t40 -278.5t9.5 -270t-8 -234.5q-14 1 -34 1q-29 0 -71 -2q-35 -2 -65.5 -2t-57.5 2 q-53 3 -84 19q15 165 16 328q0 160 -34 299q-35 143 -99 170q-42 18 -76 17q-99 0 -141 -142q-10 -33 -20 -147.5l-23.5 -280.5t-29.5 -283q-18 4 -38.5 4t-42.5 -4q-25 -5 -48 -4q-17 0 -31 2q-8 76 -14 385q-2 84 -5.5 127t-11.5 108.5t-22.5 97.5t-39 66.5t-63.5 46.5 q-29 8 -64 8q-13 0 -28 -1q-76 -6 -128 -91t-74.5 -218t-28.5 -257q-4 -74 -4 -149q0 -50 2 -100q-18 -35 -57.5 -49.5t-118 -20.5t-97.5 -8q-45 298 -45 625v28z" />
<glyph unicode="n" horiz-adv-x="1478" d="M145 1272q23 8 117 14t135 45q6 1 11 1q27 0 42 -17q17 -20 20 -48t13.5 -55.5t30.5 -35.5q150 106 313 105q23 0 46 -2q187 -17 341 -142q63 -152 114 -581q36 -305 36 -432q0 -52 -6 -75q-17 -13 -61 -13q-27 0 -64 5q-31 4 -56 4q-54 0 -79 -18q-2 37 -3 141t-3 198.5 t-18.5 210t-44.5 197.5t-85 136q-53 50 -126 51h-11q-72 -4 -122 -37t-76.5 -92.5t-42 -126t-18.5 -157.5q-2 -68 -2 -127v-38q1 -74 5 -168q3 -63 3 -108q0 -23 -1 -41q-45 -29 -92 -45.5t-105 -20.5h-13q-48 0 -81 27q-27 207 -59.5 628.5t-57.5 616.5z" />
<glyph unicode="o" horiz-adv-x="1449" d="M127 700q10 156 53 282t134.5 216t213.5 119q64 14 133 14q63 0 131 -12q140 -25 232 -84q131 -86 259 -332q115 -221 115 -395q0 -20 -1 -39q-14 -164 -140.5 -280.5t-290.5 -158.5q-109 -28 -223 -28q-58 0 -117 7q-175 22 -284 110q-154 123 -186 268q-31 125 -31 248 q0 33 2 65zM420 768q-1 -14 -1 -29q0 -182 122 -339q111 -143 261 -143q27 0 56 5q88 16 169 98q79 80 79 188q0 104 -34 196t-98.5 163.5t-160.5 100.5q-48 14 -104 14t-119 -14q-160 -41 -170 -240z" />
<glyph unicode="p" horiz-adv-x="1421" d="M109 1233q283 62 588 62q19 0 38 -1q125 -2 245 -56t206 -149.5t123 -225.5q18 -63 18 -131q0 -72 -20 -150q-39 -150 -173.5 -260.5t-305.5 -157.5q-127 -35 -251 -35q-43 0 -85 4q2 -27 5 -89t3 -80v-59q0 -42 -5.5 -76t-13.5 -79q-16 -2 -73.5 -13t-89 -15.5 t-76.5 -4.5t-74 13q0 133 -2 272t-4 233.5t-10 254.5l-12 226q-3 65 -15 262.5t-16 254.5zM467 952q-2 -45 -2 -103q0 -162 16 -429q71 -17 139 -17q81 0 156 24q139 44 209 160q42 69 42 151q0 55 -19 116q-25 80 -130 117q-86 30 -180 30q-21 0 -42 -2q-115 -8 -189 -47z " />
<glyph unicode="q" horiz-adv-x="1251" d="M65 778q17 219 142 361q141 158 403 182q37 3 72 3q216 0 371 -130q-43 -633 -43 -1012q0 -43 8 -69.5t27.5 -35.5t32 -12.5t37 0t26.5 3.5q20 -25 32.5 -66t12.5 -80t1 -80t1 -63q-189 -15 -305 -15q-47 0 -82 3q-124 9 -124 332q0 34 1 71q-68 -28 -144 -28 q-45 0 -92 10q-190 39 -292 223q-88 158 -88 340q0 31 3 63zM336 782q-3 -20 -3 -41q0 -59 21 -120q29 -84 93 -139q51 -43 111 -43q16 0 32 3q59 10 95 61.5t47 131.5t13 150q1 24 1 49q0 51 -2.5 110t-2.5 91v26q-86 -2 -164.5 -22.5t-152.5 -86.5t-88 -170z" />
<glyph unicode="r" horiz-adv-x="1308" d="M195 1178q49 25 131 41q41 8 70 8t46 -8q102 70 212 96q68 16 130 16q38 0 75 -6q95 -16 180 -70.5t136.5 -145.5t71.5 -213q8 -49 8 -103q0 -81 -18 -172q-43 -20 -139 -26q-37 -2 -63 -2q-42 0 -56 5l-20 79q-15 62 -28 103t-37 94.5t-57.5 88t-76.5 49.5 q-125 0 -182 -129q-34 -72 -35 -203q0 -26 2 -54q8 -171 24 -309q5 -41 5 -81q0 -97 -27 -195q-97 -42 -172 -42q-54 0 -96 21q0 201 -13.5 385.5t-37 403.5t-33.5 369z" />
<glyph unicode="s" horiz-adv-x="1222" d="M170 578q49 23 122 22h12q81 -2 136 -22q-3 -22 -3 -45q0 -57 20 -113q27 -78 80 -115q35 -23 57 -33t52 -10t57.5 27.5t54.5 81.5q14 27 15 55.5t-14.5 56t-30.5 50t-49 50.5l-55 44q-22 16 -65 42l-59 36q-16 10 -58 32q-51 29 -83.5 54.5t-56.5 63.5q-23 36 -22 84 q0 51 25 120q35 90 86 151.5t103.5 87t110.5 31.5q23 2 45 3q32 0 60 -6q46 -9 89 -28q20 -10 74.5 -32.5t83 -37t67.5 -38t62.5 -51t37.5 -62.5q-33 -123 -166 -159q-14 10 -45 34l-55 44q-25 19 -58.5 42t-61 32t-53.5 11t-44 -16t-29 -57q-3 -14 -3 -27q0 -44 36 -81 q47 -48 126 -92t101 -71l58 -59q53 -55 71.5 -81t43 -84t24.5 -118q0 -199 -109.5 -295t-287.5 -100h-23q-330 0 -401 174q-37 94 -60 208q-19 96 -19 170q0 13 1 26z" />
<glyph unicode="t" horiz-adv-x="1050" d="M53 840q-5 35 -4 65q0 51 12 92q64 6 147 6q96 0 218 -8q-5 102 -5 205q0 137 9 277q14 1 33 0q38 0 93 -2q41 -2 71.5 -2t50.5 2q8 -47 9 -124v-55q0 -58 -1 -131q-2 -109 -2 -164q10 0 140 4q56 1 90 1q45 0 51 -2q2 -14 8 -43t7 -39.5t2 -31.5v-11q0 -15 -2 -26 q-3 -15 -9 -38.5t-19 -50.5q-35 -4 -114 -9l-144 -10v-30q0 -118 13 -393q0 -47 38 -67q32 -16 70 -16q8 0 15 1q37 3 70 3h15q39 -1 39 -10q2 -87 2 -140t-2 -73q-6 0 -69.5 -4t-133 -4t-144.5 7.5t-123 32t-48 65.5q0 43 4 167q3 99 4 195q0 24 -1 47q-1 119 -15 217 q-32 -2 -71 -1q-102 0 -244 12q-3 0 -6 -1q-42 1 -54 87z" />
<glyph unicode="u" horiz-adv-x="1452" d="M150 562q-19 146 -19 318q0 207 27 453q53 -18 154.5 -28.5t113.5 -12.5q19 -86 19 -248q0 -16 -1 -33v-50q0 -159 12 -295q13 -158 74 -244q97 -32 167 -32h4q71 1 119 39t77 95.5t43 137t17 163.5q2 42 2 86t-2 90q-3 92 -7 175q-4 80 -6 116q101 13 184 13.5 t148 -13.5q39 -170 51 -366.5t16.5 -420.5t14.5 -351q-31 -35 -104 -64q-52 -21 -103 -20q-20 0 -41 3q-72 11 -84 81q-129 -111 -262 -140q-54 -12 -104 -11q-73 0 -139 25q-110 42 -206 140q-124 73 -165 394z" />
<glyph unicode="v" horiz-adv-x="1280" d="M100 1194q8 -1 18 -1q49 0 127 27q93 32 158 31q35 -88 89.5 -414.5t119.5 -451.5q70 117 115 301t80 383t67 295q30 -7 83 -7q82 0 221 17q-2 -80 -28 -185.5t-66 -243.5t-58 -222q-2 -10 -17.5 -79t-19.5 -89t-19.5 -82.5t-23.5 -91.5l-23 -82q-15 -53 -27.5 -85 t-30 -72t-35 -70.5t-37.5 -55.5q-69 -12 -224 -12q-58 0 -129 2q-88 88 -194.5 501t-145.5 687z" />
<glyph unicode="w" horiz-adv-x="2217" d="M215 886q4 167 39 312q54 22 113 22q19 0 39 -2q80 -9 139 -38q6 -84 6 -217v-260q0 -126 46 -233.5t140 -139.5q78 12 129.5 59t75 109.5t35.5 153.5t13 171t5 184.5t13 172.5q29 -4 89 -9.5t103 -11.5t78 -18q20 -86 21 -210q0 -18 1 -35q0 -105 -6 -204q-1 -19 -1 -36 q0 -93 27 -172q32 -93 114 -117q88 31 134 101.5t54 168.5q5 60 5 119q0 37 -2 73q-5 94 -14 214q-6 72 -6 128q0 37 3 66q41 -8 158.5 -14t168.5 -25q12 -123 18 -233q3 -55 2.5 -115t-2.5 -125q-5 -129 -25.5 -233.5t-62.5 -200.5t-105.5 -156.5t-161.5 -88.5 q-56 -16 -120 -16q-48 0 -102 9q-102 16 -167.5 56t-102.5 136q-49 -98 -145.5 -162.5t-223.5 -68.5h-19q-118 0 -214 70q-104 76 -166 204.5t-94 286.5q-29 140 -29 288v37z" />
<glyph unicode="x" horiz-adv-x="1366" d="M150 31q51 104 191 311t191 309l-101 131l-101 133q-35 47 -83 131t-87 177q29 10 100 9h38q43 -1 81 -1q51 0 92 2q35 -66 123 -207t135 -229l49 85q35 60 56 93l51 82l59.5 90t59.5 80q49 3 91 3q131 0 183 -34q-18 -72 -47 -133.5t-75 -123.5t-75.5 -97t-98.5 -107.5 t-93 -101.5q117 -324 270 -617q-47 -10 -101 -13q-33 -2 -65 -2q-21 0 -43 1q-53 2 -65 2q-121 211 -189 371q-49 -47 -140 -170t-153 -182q-6 0 -64 -3q-29 -1 -55 -1t-48 1q-45 3 -86 11z" />
<glyph unicode="y" horiz-adv-x="1251" d="M141 679q4 120 14.5 281.5t10.5 225.5q57 -10 164 -20q64 -6 100 -5q24 0 37 2q1 -12 1 -28q0 -72 -15 -224q-16 -160 -16 -300v-46q3 -160 57 -243q33 -40 117 -41q15 0 31 2q110 8 177 49q29 16 34 114q2 33 2 68q0 69 -7 144q-10 114 -20 252q-8 113 -7 179v27 q89 34 223 34q27 0 56 -1q25 -193 74 -873q5 -66 4 -126q0 -455 -275 -543q-84 -28 -206 -28q-41 0 -86 3q-179 12 -257 62q-80 51 -112.5 128.5t-34.5 221.5q49 5 73 5h7q23 -1 86 -13.5t86 -14.5q-2 -37 14 -61.5t41 -37.5t68 -19.5t77.5 -7.5t90.5 -1q86 2 128 97 q32 73 32 134q0 18 -3 36q-80 -80 -210 -96q-33 -4 -64 -3q-96 0 -189 34q-123 46 -188.5 134t-91.5 234q-23 126 -23 233q-1 16 0 32z" />
<glyph unicode="z" horiz-adv-x="1222" d="M180 39q-2 57 -2 102q0 90 8 131q12 61 80 150q23 29 138.5 165t186.5 236.5t107 190.5q-53 0 -129.5 -15.5t-131 -28t-120.5 -15.5h-15q-54 0 -81 20q-27 56 -27 152q0 48 7 106q469 98 874 100q-2 -45 33 -132q28 -70 28 -109q0 -9 -1 -17q-10 -61 -62.5 -123.5 t-132.5 -135.5t-117 -120q-115 -145 -264 -358q28 -8 68 -8q82 0 215 35q145 38 225 37q29 0 49 -5q0 -20 9 -69l18 -94q5 -27 5 -56q0 -18 -2 -38q-5 -50 -30 -81q-246 -49 -482 -56q-34 -1 -67 -1q-201 0 -387 37z" />
<glyph unicode="{" horiz-adv-x="1406" d="M222 710q-1 22 -1 42q0 27 2 53q2 23 2 46t-2 48q31 4 61 4q20 0 39 -2q12 -1 23 -1q34 0 62 9q37 12 41 49q0 6 1 117t21.5 207t75.5 172q47 68 147 96q94 27 211 27h17q127 -2 284 -6q16 -18 22.5 -45t5.5 -47.5t-5 -62.5t-4 -66q-28 3 -72 2q-58 0 -141 -4 q-147 -8 -211 -23q-33 -6 -42 -120.5t-29.5 -252t-82.5 -186.5q39 -51 50.5 -189.5t23.5 -257t55 -137.5q51 -22 168 -22q15 0 31 1q47 1 90 1q87 0 160 -4q12 -25 16 -49.5t4 -42t-3 -54.5t-3 -61q-167 -19 -296 -19q-337 0 -419 127q-41 66 -56 180.5t-15 232.5v126 q-4 29 -50 31h-18l-72 -6q-14 -3 -26 -3q-28 0 -47 13q-15 27 -18 77z" />
<glyph unicode="|" horiz-adv-x="811" d="M311 1501q158 0 234 -10q5 -355 4 -659v-197q0 -29 4 -178.5t5 -253.5v-42q0 -82 -3 -159q-20 -1 -52 -1q-64 0 -175 3q-22 407 -22 937q0 264 5 560z" />
<glyph unicode="}" horiz-adv-x="1363" d="M229 1358q-2 35 -2 69q0 70 9 140q139 12 275 12q169 0 335 -18q55 -6 82.5 -100.5t28.5 -205t10.5 -205t33.5 -98.5q39 -6 96.5 -6t104.5 -6q30 -62 30 -137q0 -54 -15 -115q-23 -8 -80.5 -12t-92 -14.5t-32.5 -40.5q6 -114 6 -208q0 -449 -137 -458l-110 -8 q-81 -6 -134 -9.5t-121 -5.5q-17 -1 -32 0q-47 0 -82 5q-46 6 -66 18q-4 29 -4 207q49 14 188 14t197 8q45 8 54 84q4 34 4 72q0 46 -6 96q-7 53 -6 110q0 41 3 85q8 102 49 151q-61 47 -88 147.5t-36 221.5t-21 160q-8 33 -81 40q-39 4 -84 4q-39 0 -82 -3q-31 -2 -63 -2 q-64 0 -131 8z" />
<glyph unicode="~" horiz-adv-x="1067" d="M141 778l40 52q28 36 37 45.5l30.5 33t34.5 29.5l34 17q23 11 46.5 14.5t54.5 5.5h4q54 0 138 -51.5t127 -51.5h3q25 2 47.5 8.5t41 17.5t30.5 19.5t27.5 21.5t19.5 17q53 -76 80 -147q-31 -33 -100.5 -63.5t-135.5 -32.5h-11q-68 0 -112 23q-48 26 -78 53.5t-61 27.5 q-37 0 -63.5 -16.5t-65.5 -64.5t-47 -56q-98 75 -121 98z" />
<glyph unicode="&#xa1;" horiz-adv-x="681" d="M166 1352q-3 18 -3 33q0 74 70 106q32 14 63 14q42 0 81 -26q56 -38 56 -106q0 -36 -15 -81q-39 -41 -96 -44h-11q-51 0 -92 27q-45 30 -53 77zM233 1077q-2 -66 -2 -168q0 -205 9 -555q2 -71 2 -156.5t-2 -187.5q49 -8 88 -9h11q35 0 80 5q52 6 75 6q-6 68 -24.5 456 t-51.5 587q-67 23 -157 23q-14 0 -28 -1z" />
<glyph unicode="&#xa2;" horiz-adv-x="1236" d="M199 979q2 82 9 126t31.5 90t76 65.5t135.5 19.5q0 14 -2.5 48t-2.5 76t5 97q77 -6 162 -6q51 0 106 2q2 -41 4 -101.5t6 -92.5q18 0 101 -1.5t120 -3.5q2 -50 2 -92q0 -99 -10 -159q-115 12 -199 11q-195 0 -227 -63q-34 -67 -34 -226q0 -83 10 -189q6 -49 41.5 -79 t97 -37t115 -7t123 5t92.5 5q2 -72 13 -141q7 -45 7 -76q0 -17 -2 -29h-26q-105 0 -220 15q7 -77 8 -146q0 -45 -4 -86q-14 -5 -58 -5q-33 0 -82 3q-116 6 -128 6q-5 115 -5 186q0 35 1 60q-231 23 -254 217q-16 142 -16 320q0 90 4 188z" />
<glyph unicode="&#xa3;" horiz-adv-x="1492" d="M164 201q44 -10 82 -10q150 0 213 153q41 97 40 231q0 41 -3 87q-168 18 -195 24q-1 61 -1 107t1 75q23 -2 59.5 -7t53 -6t40 2t44.5 13q37 244 71 330q29 76 72 133q31 39 85 85t91 59q78 22 150 21q63 0 122 -16q126 -36 204 -149q68 -97 69 -218q0 -19 -2 -38 q-188 -16 -199 -16q-8 20 -21.5 61t-20.5 57.5t-22.5 40t-37 34t-51.5 16.5q-12 2 -25 2q-60 0 -115 -51q-66 -61 -102.5 -158.5t-34.5 -194.5q49 0 137 -5t142 -5q14 -29 13 -62q0 -11 -1 -22q-6 -45 -31 -78q-33 -8 -124 -13t-132 -13q-26 -44 -25 -125q0 -49 9 -111 q61 -16 166.5 -79.5t169.5 -82.5q50 -14 130 -13q74 0 173 11q7 -43 7 -92t-7 -104q-84 -10 -157 -10q-104 0 -187 20q-141 35 -293 158h-7q-47 0 -75 -27q-31 -29 -53.5 -67.5t-60.5 -76.5t-128 -59q-53 -12 -123 -12q-50 0 -108 6q-4 53 -4 112q0 40 2 83z" />
<glyph unicode="&#xa4;" horiz-adv-x="1492" d="M127 1192q39 47 78 79t91 66.5t60 40.5q45 -37 121 -106.5t88 -79.5q38 40 162 40q17 0 35 -1q154 -6 221 -64q23 41 68 106.5t63 100.5q59 -20 136 -57t118 -51q-39 -68 -96.5 -139.5t-77.5 -106.5q35 -45 56 -119q15 -52 15 -116q0 -28 -2 -58q-9 -100 -69 -176 q45 -70 92 -121t94 -125q-66 -55 -95.5 -73.5t-119.5 -55.5q-33 33 -88 102.5t-88 98.5q-98 -53 -205 -56q-7 0 -13 -1q-98 0 -171 45q-111 -174 -151 -215q-23 12 -80.5 37.5t-99.5 50t-66 51.5q35 45 192 229q-88 43 -109 209q-4 33 -5 64q0 124 69 213q-43 47 -117.5 103 t-105.5 85zM549 788q4 -102 64.5 -159.5t166.5 -57.5q96 0 143 66q48 69 48 161q0 79 -62 146q-63 70 -157 72h-9q-114 0 -155 -55q-39 -52 -39 -153v-20z" />
<glyph unicode="&#xa5;" horiz-adv-x="1193" d="M100 1477q80 16 224 15q43 0 92 -1q29 -78 100.5 -189.5t97.5 -171.5q119 203 152 338l77 15q54 10 87 15q23 4 53 4q12 0 26 -1q46 -2 78 -14q-41 -84 -105 -179.5t-147 -205t-120 -162.5q27 0 86 7t87 8h4q26 0 60 -11q25 -79 26 -152q0 -38 -7 -75q-248 2 -283 6 q0 -10 7 -71.5t7 -71.5l267 2q17 -50 17 -112q0 -70 -17 -116q-45 6 -143.5 8.5t-127.5 4.5q-1 -16 0 -36q0 -59 4 -150q6 -122 7 -163q-51 -18 -159 -18q-36 0 -79 2q-16 123 -19 161q-1 13 -1 38q0 52 4 157q-209 0 -265 9q-11 43 -10 94q0 56 13 121q42 1 78 1 q126 0 173 -12q4 22 4.5 59.5t-4.5 90.5q-28 -4 -63 -4q-81 0 -199 20q0 33 4 111q2 31 2 53q0 32 -4 43q80 17 146 18q58 0 106 -14q-246 412 -336 529z" />
<glyph unicode="&#xa6;" horiz-adv-x="681" d="M219 1489q63 12 238 12q5 -49 4 -131v-58q-2 -124 -3 -172t-8.5 -162t-9.5 -159q-43 0 -207 -4q-14 293 -14 674zM252 635q29 6 66.5 6t80.5 -3t58 -3q14 -376 14 -545q0 -56 -2 -90q-29 0 -95 4q-44 3 -77 3q-16 0 -29 -1q0 22 1 48q0 113 -8 281q-9 206 -9 300z" />
<glyph unicode="&#xa7;" horiz-adv-x="980" d="M176 756v16q0 92 66 162t148 70h13q-59 29 -117.5 101.5t-58.5 151.5q0 125 46 184.5t182 59.5q251 0 250 -271v-34q-49 -2 -150 -2q-1 12 -1 26q0 8 1 25.5t1 26.5q0 34 -22 64q-26 34 -79 34q-35 0 -50.5 -24.5t-13.5 -59.5t14.5 -70.5t28.5 -58.5q29 -39 91 -90 l110 -90q47 -39 83 -110q31 -60 30 -133v-25q-6 -109 -105 -193q74 -84 97 -188q8 -34 8 -67q0 -69 -33 -136q-80 -125 -213 -125q-80 0 -140.5 28.5t-91 68.5t-48 94.5t-21.5 94.5t-4 79q4 -2 22.5 -2.5t50.5 2.5q66 4 90 4q0 -207 134 -211q59 0 70 68q3 21 4 43 q0 49 -18 101q-26 75 -58 91q-23 -3 -45 -3q-116 0 -182 76q-79 89 -89 222zM354 797q-6 -30 -6 -55q0 -87 78 -117q27 -10 52 -10q32 0 60 17q46 28 46 77q0 76 -45 129q-31 41 -79 40q-12 0 -26 -2q-66 -13 -80 -79z" />
<glyph unicode="&#xa8;" horiz-adv-x="980" d="M365 1501q57 0 90.5 -34.5t33.5 -94.5q0 -57 -33.5 -92t-82.5 -35q-55 0 -97 33q-39 31 -39 88q1 135 128 135zM717 1501q59 0 92 -34.5t33 -94.5q0 -57 -34 -92t-83 -35q-55 0 -95 33q-38 31 -38 88q0 135 125 135z" />
<glyph unicode="&#xa9;" horiz-adv-x="1705" d="M98 760q0 145 44 275t131 236.5t232 169.5q140 60 315 60h11q190 -2 336 -62.5t224.5 -142.5t128 -189.5t63.5 -185t14 -147.5q0 -7 1 -15q0 -165 -45 -297q-46 -138 -121.5 -223t-178 -140.5t-203 -77t-204.5 -21.5q-70 0 -141.5 12.5t-159.5 42t-165 87t-141.5 137 t-102.5 203.5t-38 278zM287 729q0 -209 161.5 -371.5t442.5 -167.5h12q108 0 193 36q90 38 146 100.5t93 149.5t50.5 177t13.5 193q-4 207 -140.5 339t-433.5 132q-127 0 -234.5 -63.5t-171 -158t-98 -191.5t-34.5 -175zM494 647q25 -125 110 -172q86 -49 219 -51h12 q127 0 250 41q-4 18 -14 52t-17 62.5t-12 67.5q-166 -27 -218 -27q-4 0 -7 1q-121 10 -121 124.5t89 165.5q60 35 132 35q35 0 72 -8q10 31 29.5 77t28.5 72q-133 54 -235 55q-59 0 -106 -19q-130 -50 -190 -218q-31 -87 -31 -171q1 -44 9 -87z" />
<glyph unicode="&#xaa;" horiz-adv-x="894" d="M219 1157q55 63 148 78q21 3 41 3q69 0 131 -38q-2 14 -2 47t-3.5 53.5t-11.5 40.5q-6 12 -27.5 14.5t-55 -1.5t-71.5 -10.5t-85 -12.5q-35 -5 -65 -4h-19q4 23 -4.5 49.5t-6.5 46.5q88 63 262 77q25 2 47 2q131 0 162 -66q18 -55 37 -276.5t45 -332.5q-57 -35 -133 -39 h-4q-62 0 -62 41q0 14 7 31q-57 -82 -201 -82h-20q-70 2 -109 81q-37 75 -37 159q0 96 37 139zM307 1004q-2 -12 -2 -25q0 -27 10 -51q13 -31 42 -31h8q82 10 121.5 42t39.5 71t-2 82q-39 17 -74 16q-20 0 -39 -5q-52 -15 -81 -44q-17 -14 -23 -55z" />
<glyph unicode="&#xab;" horiz-adv-x="1622" d="M150 614q2 41 2 103v76q45 41 135 133t114 112l199 180l211 187q82 70 125 96q6 -64 10 -133q0 -8 -3 -40t-1 -50q-76 -76 -137 -127q-221 -195 -436 -424q170 -158 237 -209l318 -252q4 -40 4 -93q0 -74 -8 -173q-47 29 -176.5 130t-163.5 132l-159 134l-145 121 q-58 48 -126 97zM684 614v179q45 41 135 132t117 113l199 180l211 187q82 70 124 96q2 -23 9 -133q0 -10 -2 -42t0 -48q-98 -92 -140 -127q-244 -217 -434 -424q150 -143 236 -209l317 -252q5 -36 5 -94q0 -70 -7 -172q-92 55 -342 262l-160 134l-142 121q-58 48 -126 97z " />
<glyph unicode="&#xac;" horiz-adv-x="1961" d="M166 1495q39 4 168 4t309 -2t242 -2q698 0 862 -6q31 -228 31 -403q0 -67 -4 -125q-41 0 -129 -7q-53 -4 -95 -3q-28 0 -51 1q-16 219 -29 289q-80 -5 -209 -5q-98 0 -224 3q-176 4 -294 4q-79 0 -133 -2q-20 0 -133 -4q-75 -3 -130 -3q-28 0 -51 1q-69 2 -126 12 q6 56 6 111q0 70 -10 137z" />
<glyph unicode="&#xad;" horiz-adv-x="1705" />
<glyph unicode="&#xae;" horiz-adv-x="1705" d="M98 752v12q0 130 40 254q42 129 124 239.5t222 178.5q136 66 308 65h11q193 -2 344 -65.5t243.5 -170t139.5 -237.5t51 -276v-36q0 -105 -10 -189q-12 -97 -56.5 -200.5t-121 -171t-215 -111.5t-326.5 -44t-327.5 45t-218.5 115.5t-127 176t-63.5 201t-17.5 214.5z M309 748q8 -242 152.5 -401t439.5 -161h14q112 0 199 31q92 33 147.5 87t89 131t44.5 157q6 50 6 104q0 32 -2 66q-14 264 -160.5 413.5t-431.5 149.5q-113 0 -202 -32.5t-145.5 -87t-91 -130.5t-47.5 -156q-12 -70 -12 -148v-23zM614 1087q74 29 154 41q31 5 63 5 q50 0 102 -12q85 -19 126 -83q45 -72 64 -141q10 -37 11 -70q0 -30 -9 -57q-17 -57 -76 -76q10 -23 66 -119t73 -163q-24 -7 -64 -8h-11q-7 0 -13 1q-40 0 -70 -6q-12 31 -64.5 135.5t-62.5 139.5q-11 1 -27 0q-33 0 -88 -2q6 -45 7.5 -87t2.5 -98.5t3 -103.5l-148 12 q-19 204 -39 692zM760 1004q0 -6 -1 -15q0 -38 9 -106q10 -82 10 -111q22 -2 45 -2q17 0 34 1q40 3 72 11.5t47 38.5q9 18 9 44q0 17 -4 36q-25 120 -130 120q-39 1 -91 -17z" />
<glyph unicode="&#xb0;" horiz-adv-x="641" d="M200 1452q42 47 138 49h9q89 0 119 -40q32 -42 32 -132q0 -78 -48.5 -126t-127.5 -50h-7q-75 0 -118 42t-43 117q0 88 46 140zM246 1321q0 -26 21 -44q24 -19 67 -22h5q27 0 45 21q19 23 22 55v5q0 26 -21 51.5t-53 25.5h-4q-37 -1 -59.5 -24.5t-22.5 -67.5z" />
<glyph unicode="&#xb1;" horiz-adv-x="1323" d="M211 752v272q49 2 148.5 13.5t138.5 11.5q3 72 3 156.5t-3 183.5q246 4 266 4q12 -91 12 -235q0 -54 -2 -116q38 -2 93 -1q83 0 204 3v-14q0 -41 8 -133q4 -46 5 -77q0 -44 -9 -58q-29 6 -64.5 6t-54 -1t-83 -7t-89.5 -8q5 -125 5.5 -209.5t-5.5 -128.5q-41 -6 -141 -6 t-131 -5q-2 25 -10 345q-141 5 -223 5q-41 0 -68 -1zM215 217q2 -35 10 -94.5l15 -110.5q137 -4 295.5 -5t224.5 -3q41 -1 79 -1q151 0 242 20q-6 51 -8 122.5t-2 85.5q-98 9 -285 10q-62 0 -135 -1q-289 -5 -436 -23z" />
<glyph unicode="&#xb2;" horiz-adv-x="638" d="M127 1241q0 162 57 207q29 23 62 37t71 17q4 0 8 1l70 -25q39 -28 68 -87q14 -28 14 -61.5t-14 -73.5q-29 -79 -91.5 -182t-78.5 -140q12 -10 51 -13t87 -3t63 -3v-129q-31 -8 -79 -10q-16 -1 -37 0q-42 0 -103 2q-91 4 -115 4q-18 26 -18 66q0 30 8 57q8 31 28.5 74 t37.5 73.5t45 74.5t40 69q42 77 42 119q0 27 -17 39q-29 14 -43.5 17t-22.5 -13.5t-11 -33.5t-6 -43t-10 -38q-19 -3 -60 -3q-20 0 -46 1z" />
<glyph unicode="&#xb3;" horiz-adv-x="641" d="M127 1397q4 4 17.5 22.5t18.5 24.5t18.5 19.5t24.5 18.5t29.5 10t38.5 7q12 1 24 1q52 0 98 -22q56 -28 77 -69q11 -32 11 -63q0 -33 -12 -65q-24 -62 -79 -89q109 -27 142 -174q7 -33 6 -62q0 -75 -46 -122q-54 -55 -146 -56q-17 0 -36 2q-59 6 -107 46t-69 108 q16 16 88 47q39 -61 80 -72q16 -4 31 -4q37 0 62 27q23 23 23 57q0 19 -7 41q-6 20 -19.5 34.5t-24 22t-35 11.5t-34.5 5t-45 0t-43 -1q-5 29 -5 58q0 15 1 30q76 0 135 70q25 29 26 71.5t-20 52.5q-18 12 -37.5 12.5t-32 -3.5t-32 -19.5t-24.5 -20.5t-21 -24q-8 2 -14.5 3 t-11.5 4t-9 5t-8 7.5t-7 8.5t-8 9l-6 9q-2 3 -6 11.5t-6 10.5z" />
<glyph unicode="&#xb4;" horiz-adv-x="681" d="M205 1206q23 154 155 287q18 9 42 9q55 0 139 -52q-25 -23 -58.5 -59.5t-62.5 -61.5q-80 -68 -117 -176q-23 8 -53.5 27.5t-44.5 25.5z" />
<glyph unicode="&#xb5;" horiz-adv-x="1536" d="M209 1217q85 3 148 2q84 0 130 -5q0 -377 9 -704q2 -86 60 -139.5t140 -61.5q28 -3 57 -3l107 10q82 15 138.5 66.5t54.5 117.5q0 59 3 336q1 92 1 165q0 146 -4 213q49 8 93 11q29 1 62 1q16 0 33 -0.5t32 -0.5q30 0 50 2q-3 -34 -3 -148q0 -152 5 -445q7 -410 7 -562 q0 -38 -1 -60h-272l-6 72q-37 -39 -153 -61q-69 -13 -139 -14q-48 0 -96 6q-120 15 -157 79q-4 -68 -4 -148q0 -40 1 -82.5t1 -76.5q0 -69 -4 -106q-25 0 -95.5 1t-113.5 1h-76q-1 79 -1 207q0 224 4 598q2 165 2 295q0 334 -13 434z" />
<glyph unicode="&#xb6;" horiz-adv-x="1366" d="M140 981v15q0 88 32 190q35 111 111 188q35 37 79 61.5t77.5 38t90 19.5t81.5 7q13 1 36 1t55 -1q66 -1 82 -1q332 -4 375 -12q23 -429 23 -931q0 -266 -6 -552q-65 -5 -112 -5q-70 0 -99 11q0 209 -6.5 719t-12.5 569q-10 0 -66 4q-24 1 -42 1q-23 0 -33 -3 q37 -789 37 -1104q0 -133 -6 -182q-11 -6 -46 -6q-24 0 -61 3q-88 7 -115 7q-2 45 -4 161t-6 209t-14 196q-70 4 -123 14t-117.5 32.5t-112 70t-69.5 114.5q-25 72 -28 166z" />
<glyph unicode="&#xb7;" horiz-adv-x="598" d="M123 965q-1 12 -1 22q0 94 95 131q40 15 80 16q54 0 106 -30q81 -44 81 -130q0 -21 -5 -44q-53 -60 -153 -60q-16 0 -34 1q-126 12 -169 94z" />
<glyph unicode="&#xb8;" horiz-adv-x="768" d="M174 -223q14 35 70 141q18 -12 42.5 -34.5t37 -31t34 -13.5t48.5 -1q47 4 58 61q4 18 3 34q0 36 -16 65q29 2 89 2h99q14 -20 14 -58q0 -19 -4 -42q-10 -70 -47 -131q-60 -87 -171 -88q-6 0 -12 1q-120 5 -245 95z" />
<glyph unicode="&#xb9;" horiz-adv-x="681" d="M115 1264q18 41 72.5 120.5t68.5 112.5q85 4 129 4q30 0 41 -2q16 -61 17 -154q0 -13 1 -28q0 -84 -6 -192q-6 -126 -6 -177q49 -8 119 -8q1 -12 1 -30q0 -36 -5 -93q-143 5 -281 6q-69 0 -137 -2v70q0 51 2 59q49 6 170 6q0 84 14 385q-8 -12 -33.5 -39.5t-37.5 -50.5 q-29 -2 -51 -1q-67 0 -78 14z" />
<glyph unicode="&#xba;" horiz-adv-x="940" d="M150 989q-17 76 -18 146q0 95 32 180q55 147 188 178q35 7 73 7q35 0 71 -6q76 -13 127 -46q72 -47 140 -180q61 -119 61 -214q0 -11 -1 -22q-8 -88 -75.5 -151.5t-157.5 -86.5q-61 -16 -124 -16q-30 0 -60 3q-94 11 -154 61q-84 67 -102 147zM294 1195v-14 q0 -99 66 -186q60 -77 140 -76q16 0 32 3q47 6 92 51q42 43 42 99q0 122 -76 203q-55 59 -138 59q-31 0 -67 -9q-86 -22 -91 -130z" />
<glyph unicode="&#xbb;" horiz-adv-x="1705" d="M190 1368q6 111 9 133q43 -27 125 -96l211 -187l198 -180q25 -20 115 -112t135 -133v-76q0 -61 2 -103q-68 -49 -126 -97l-142 -121l-160 -134q-242 -199 -342 -262q-8 93 -8 163q0 60 6 103l315 252q88 66 238 209q-209 225 -434 424q-41 35 -139 127q2 16 -0.5 48 t-2.5 42zM723 1368q4 70 10 133q43 -27 125 -96l211 -187l199 -180q25 -20 115 -112t135 -133v-179q-68 -49 -126 -97l-143 -121l-159 -134q-35 -31 -164 -132t-176 -130q-9 104 -10 176q0 54 5 90l318 252q68 51 237 209q-215 229 -436 424q-61 51 -137 127q2 18 -1 50 t-3 40z" />
<glyph unicode="&#xbc;" horiz-adv-x="1622" d="M164 1202q18 41 72.5 121t68.5 113q96 3 139 2h31q16 -61 18 -155v-27q0 -84 -6 -192q-6 -126 -6 -175q49 -8 119 -8q1 -12 1 -31q0 -36 -5 -94q-143 5 -281 5q-69 0 -137 -1v70q0 52 2 61q49 4 170 4q0 76 7.5 220.5t7.5 164.5q-8 -12 -34 -39t-38 -49q-31 -2 -55 -2 q-64 0 -74 12zM283 8q111 190 127 230l428 917q131 279 157 340q35 0 107 4q48 3 84 3q18 0 33 -1q-2 -6 -62 -141l-135 -305l-167 -368l-183 -385q-92 -187 -158 -302h-27q-73 -1 -204 8zM963 371q0 12 2 66q1 27 1 44t-1 23q31 47 80 139t61 113q11 1 25 0q37 0 99 -3 q48 -3 80 -3q26 0 42 2q7 -109 7 -166q0 -38 -3 -51q94 -6 108 -9q2 -23 5.5 -76t5.5 -73q-48 -7 -102 -7q-14 0 -27 1q-1 -7 -1 -19q0 -18 2 -50q2 -39 2 -76v-24q-1 -48 -14 -79q-12 -8 -36 -10q-12 -1 -25 -1t-29 1q-31 2 -47 0q-8 31 -9 73v30q0 31 1 67q1 27 1 47.5 t-1 36.5q-37 4 -94.5 4t-88 -1t-44.5 1zM1087 502q14 0 57.5 1t57.5 1q12 36 12 84q0 27 -4 57q-16 -10 -35.5 -29.5t-31.5 -35.5l-31 -43z" />
<glyph unicode="&#xbd;" horiz-adv-x="1449" d="M160 1202q18 41 72.5 121t68.5 113q85 4 129 3q30 0 41 -1q16 -61 17 -156q0 -12 1 -24q0 -86 -7 -194q-7 -124 -7 -175q53 -8 119 -8q1 -10 1 -27q0 -34 -5 -98q-141 5 -280 5q-69 0 -138 -1v68q0 46 2 63q51 4 172 4q0 76 6 224.5t6 160.5q-8 -14 -33.5 -40t-37.5 -48 q-31 -2 -54 -2q-63 0 -73 12zM279 8l127 230q84 158 145 284l144 313l139 306l157 354q35 0 107 4q48 3 83 3q18 0 33 -1q-2 -6 -61 -141l-135 -305l-167 -368l-183 -385q-92 -187 -158 -302h-27q-73 -1 -204 8zM942 557q0 162 57 207q68 53 146 53t133 -108q15 -28 15 -63 q0 -33 -14 -73q-28 -80 -92.5 -183t-78.5 -140q12 -8 51 -11t87 -3t63 -3v-129q-31 -8 -82 -10q-20 -1 -46 -1q-38 0 -87 2q-82 3 -119 3q-18 26 -18 67q0 31 8 58q8 31 28.5 74t37.5 73l45 74q28 45 40 68q41 79 41 121q0 27 -16 39q-29 14 -43.5 17t-22.5 -14.5t-11 -34.5 t-6 -42t-9 -37q-22 -5 -71 -4q-17 -1 -36 0z" />
<glyph unicode="&#xbe;" horiz-adv-x="1579" d="M209 1044q16 10 52 14.5t52 12.5q2 -41 17.5 -70.5t52.5 -27.5q39 4 64.5 30.5t21.5 57.5q-2 25 -10 43t-14.5 27.5t-29 16.5t-28.5 8t-40 4t-38 3q2 12 0 40t-2 38q55 12 87 31.5t28 52.5t-37 41q-24 6 -60 6q-13 0 -28 -1q-33 -2 -53 -2q-13 0 -21 1q0 20 -3 41t-3 47 q30 14 84 14q34 0 79 -6q114 -14 144 -71q16 -33 19.5 -59.5t-8 -47t-23.5 -33t-37 -30.5q4 -2 20.5 -8.5t20.5 -9.5t17.5 -10t18.5 -15t13 -19.5t12.5 -27t6.5 -35.5q3 -34 3 -62q0 -91 -35 -128q-46 -48 -177 -52h-12q-51 0 -84 15q-37 17 -50.5 50t-17.5 59q-3 17 -3 39 q0 11 1 23zM264 8q14 25 41 79l57 117q31 62 37 77l412 882q12 27 76.5 151t89.5 181q35 0 106 4q48 3 84 3q18 0 33 -1q-2 -6 -61 -141l-135 -305l-167 -368l-184 -385q-92 -187 -157 -302h-27q-74 -1 -205 8zM997 371q0 14 2 60q1 23 1 41t-1 32q16 27 140 252q11 1 25 0 q37 0 100 -3q49 -3 80 -3q25 0 40 2q7 -109 8 -166q0 -38 -3 -51q92 -4 108 -9q6 -37 10 -149q-48 -7 -100 -7q-13 0 -27 1q0 -8 2 -119q0 -12 1 -24q0 -89 -15 -105q-12 -8 -36 -10q-12 -1 -25.5 -1t-28.5 1q-31 2 -45 0q-8 31 -10 72q-1 21 -1 45.5t1 52t1 48.5t-1 36 q-37 4 -93.5 4t-87.5 -1t-45 1zM1122 502q14 0 57.5 1t55.5 1q12 34 12 93q0 22 -2 48q-37 -20 -123 -143z" />
<glyph unicode="&#xbf;" horiz-adv-x="1067" d="M142 356q-9 51 -8 97q0 56 12 104q24 88 75 150.5t115 72.5q0 61 9 172t9 154q121 11 182 11q17 0 29 -1q13 -197 13 -349q0 -68 -3 -126q-10 -4 -39.5 -17.5t-42 -18.5t-38 -20.5t-36.5 -26.5t-25.5 -31.5t-18.5 -42t-3 -52.5t11 -65q14 -47 83 -95q51 -35 94 -35 q15 0 30 5q114 28 114 231q0 37 -4 80q35 31 103 39q23 3 43 3q41 0 76 -11q10 -87 9 -159q0 -96 -17 -167q-30 -125 -132 -203q-98 -43 -198 -53q-23 -2 -47 -2q-76 0 -149 26q-95 34 -155 117q-72 100 -91 213zM313 1337q-5 22 -5 41q0 53 38 86q44 39 104 39q9 0 19 -1 q72 -7 106 -54q5 -26 5 -49q0 -62 -36 -99q-39 -38 -90 -38q-15 0 -31 4q-71 14 -110 71z" />
<glyph unicode="&#xc0;" d="M94 8q41 -9 106 -8h26q83 2 132 14q23 84 51.5 265.5t49.5 267.5l74 -2q127 0 278 16q31 -86 73 -269t83 -284q18 2 53 2t86 -2q102 -4 123 -4q1 9 1 21q0 131 -121 643q-132 559 -222 833q-45 -5 -142 -5q-48 0 -109 1q-23 1 -45 1q-151 0 -233 -25 q-192 -896 -264 -1465zM477 784q10 43 37 245t39 249q25 3 61.5 3t85.5 -3q35 -70 65 -231.5t36 -268.5q-29 -6 -75 -7q-23 -1 -41 -0.5t-31 0.5q-26 1 -95.5 7t-81.5 6zM485 1880q84 52 140 52q23 0 41 -9q133 -133 155 -287q-14 -6 -45 -25.5t-53 -27.5q-37 109 -117 176 q-29 25 -62.5 61.5t-58.5 59.5z" />
<glyph unicode="&#xc1;" d="M100 8q72 569 265 1465q108 25 240 25q19 0 38 -1q52 -1 97 -1q90 0 153 5q90 -274 222 -833q121 -512 121 -643q0 -12 -1 -21q-20 0 -123 4q-51 2 -86 2t-53 -2q-41 100 -83 283.5t-73 269.5q-151 -16 -278 -16q-38 0 -74 2q-20 -86 -49 -267.5t-51 -265.5 q-49 -12 -133 -14h-26q-65 -1 -106 8zM483 784q12 0 82 -6t95 -7q13 -1 31 -0.5t41 0.5q46 1 75 7q-6 106 -36 268t-64 232q-49 3 -86 3t-62 -3q-12 -47 -39 -249t-37 -245zM494 1636q20 152 155 287q18 9 41 9q55 0 139 -52q-25 -23 -58.5 -59.5t-61.5 -61.5 q-80 -68 -117 -176q-23 8 -53.5 27.5t-44.5 25.5z" />
<glyph unicode="&#xc2;" d="M109 8q72 569 264 1465q108 25 240 25q19 0 38 -1q52 -1 97 -1q90 0 153 5q90 -274 222 -833q121 -512 121 -643q0 -12 -1 -21q-20 0 -123 4q-51 2 -86 2t-53 -2q-41 100 -83 283.5t-73 269.5q-151 -16 -278 -16q-38 0 -74 2q-20 -86 -49 -267.5t-51 -265.5 q-49 -12 -132 -14h-27q-64 -1 -105 8zM313 1599q51 102 242 402q10 0 108 5q54 3 84 3q24 0 33 -2q43 -57 148.5 -232.5t109.5 -181.5q-29 -5 -78 -4q-37 0 -83 2q-23 23 -50.5 70t-59.5 108.5t-46 85.5q-20 1 -38 2q-34 0 -54 -6q-27 -37 -79 -131t-81 -137q-31 2 -59.5 0 t-57.5 2t-39 14zM492 784q12 0 81.5 -6t95.5 -7q13 -1 30.5 -0.5t40.5 0.5q46 1 75 7q-6 106 -35.5 268t-64.5 232q-49 3 -86 3t-62 -3q-12 -47 -38.5 -249t-36.5 -245z" />
<glyph unicode="&#xc3;" d="M96 8q72 569 264 1465q108 25 241 25q19 0 38 -1q52 -1 97 -1q90 0 153 5q90 -274 222 -833q121 -512 121 -643q0 -12 -1 -21q-20 0 -123 4q-51 2 -86 2t-53 -2q-41 100 -83 283.5t-73 269.5q-151 -16 -278 -16q-38 0 -74 2q-20 -86 -49 -267.5t-52 -265.5 q-49 -12 -132 -14h-26q-65 -1 -106 8zM266 1681l40 53q28 36 37 45t30.5 32.5t34.5 29.5l34 18q23 11 46.5 14t54.5 5h4q54 0 138 -51t127 -51h3q25 2 47.5 8t41 17t30.5 19.5t27.5 21.5t19.5 18q53 -76 80 -148q-31 -33 -100.5 -63.5t-135.5 -32.5h-11q-68 0 -113 23 q-48 26 -77.5 53.5t-60.5 27.5q-37 0 -63.5 -16t-65.5 -64.5t-47 -56.5q-98 75 -121 98zM479 784q12 0 82 -6t95 -7q13 -1 31 -0.5t41 0.5q46 1 75 7q-6 106 -36 268t-65 232q-49 3 -85.5 3t-61.5 -3q-12 -47 -39 -249t-37 -245z" />
<glyph unicode="&#xc4;" d="M94 8q41 -9 106 -8h26q83 2 132 14q23 84 51.5 265.5t49.5 267.5l74 -2q127 0 278 16q31 -86 73 -269t83 -284q18 2 53 2t86 -2q102 -4 123 -4q1 9 1 21q0 131 -121 643q-132 559 -222 833q-45 -5 -142 -5q-48 0 -109 1q-23 1 -45 1q-151 0 -233 -25 q-192 -896 -264 -1465zM485 1839q57 0 91 -35t34 -94q0 -57 -33.5 -92t-82.5 -35q-55 0 -97 33q-39 31 -39 88q0 135 127 135zM477 784q10 43 37 245t39 249q25 3 61.5 3t85.5 -3q35 -70 65 -231.5t36 -268.5q-29 -6 -75 -7q-23 -1 -41 -0.5t-31 0.5q-26 1 -95.5 7t-81.5 6z M838 1839q59 0 92 -35t33 -94q0 -57 -34 -92t-83 -35q-55 0 -95 33q-38 31 -38 88q0 135 125 135z" />
<glyph unicode="&#xc5;" d="M106 8q72 569 265 1465q108 25 240 25q19 0 38 -1q52 -1 97 -1q90 0 153 5q90 -274 222 -833q121 -512 121 -643q0 -12 -1 -21q-20 0 -123 4q-51 2 -86 2t-53 -2q-41 100 -83 283.5t-73 269.5q-151 -16 -278 -16q-38 0 -74 2q-20 -86 -49 -267.5t-51 -265.5 q-49 -12 -132 -14h-27q-65 -1 -106 8zM444 1817q2 98 60.5 152t159.5 54q227 0 239 -217q1 -9 1 -18q0 -77 -48 -139q-52 -68 -161 -68h-7q-119 2 -183 68q-61 62 -61 155v13zM489 784q12 0 82 -6t96 -7q13 -1 30.5 -0.5t40.5 0.5q46 1 75 7q-6 106 -35.5 268t-64.5 232 q-49 3 -86 3t-62 -3q-12 -47 -39 -249t-37 -245zM571 1794q10 -100 105 -100h6q37 0 61 21q29 26 29 73q0 115 -90 115q-59 0 -87 -29q-24 -25 -24 -67q-1 -6 0 -13z" />
<glyph unicode="&#xc6;" horiz-adv-x="1708" d="M82 16q49 225 105 454l146 566l122 461q91 0 342 3q187 2 339 2h98q187 -1 314 -9q7 -35 8 -86q0 -6 -1 -13v-38q0 -35 1 -60q-50 1 -97 1q-285 0 -470 -21q-6 -103 -5 -197q0 -110 7 -209q69 -6 167 -6q59 0 127 2q79 3 136 3q77 0 117 -5q6 -18 9 -45.5t4 -49t1 -59.5 v-57q-61 -8 -170 -11q-65 -2 -124 -2q-39 0 -76 1q-46 1 -91 1t-90 -1q-1 -29 -1 -73q0 -111 8 -322q6 0 224 1t302 5q4 -71 4 -124q0 -66 -6 -105q-210 -18 -437 -19q-151 0 -309 8q-18 102 -35.5 306t-29.5 300q-16 0 -262 -10q-82 -406 -115 -596q-75 -11 -136 -11 q-72 0 -126 15zM506 807q28 -2 64 -2q60 0 145 6q-8 33 -32 218t-46 235q-16 -35 -40 -116t-53 -195z" />
<glyph unicode="&#xc7;" horiz-adv-x="1366" d="M102 848q10 170 73 303t150 206t170 108.5t148 35.5q135 0 232.5 -32.5t146.5 -75.5t78.5 -114t35 -114t9.5 -108q-110 -19 -182 -19q-43 0 -72 6q-4 14 -9 50t-13.5 54.5t-27 43.5t-56.5 34q-26 6 -61 6q-16 0 -34 -1q-279 -16 -278 -522q0 -117 24.5 -208t93 -155.5 t175.5 -66.5q5 0 10 -1q105 0 192 80q92 84 117 220q68 2 81 2t75.5 -6.5t95.5 -8.5q0 -117 -29.5 -207t-89 -153.5t-124 -105.5t-159.5 -83q16 -69 16 -131q0 -77 -24 -145q-43 -123 -145 -164q-58 -23 -126 -23q-74 0 -160 28q-163 54 -240 165l170 143q31 -37 45 -51 t40.5 -31.5t57.5 -21.5h4q76 0 103 69q11 29 12 58q0 42 -23 84q-45 31 -131 63.5t-119 53.5q-137 86 -201 280q-53 159 -53 362q-1 46 2 93z" />
<glyph unicode="&#xc8;" d="M215 1491q-3 -94 -3 -219q0 -249 11 -621q16 -557 17 -651q80 0 226 1t229 2t206 6t234 16q8 83 8 171q0 44 -2 89q-162 -2 -322.5 -2t-318.5 2q2 13 2 35q0 28 -3 70q-5 77 -5 140.5t20 83.5q76 10 183 14q65 2 124 2q40 0 77 -1q47 -1 97 -1t105 1q-8 90 -8 248 q-144 -3 -255 -3q-250 0 -333 13v18q0 50 -8 157q-10 128 -11 165q51 2 165 3t173.5 3t148.5 9t163 20q7 71 7 121v12q-1 53 -24 106q-120 -7 -299 -7q-72 0 -153 1q-95 1 -177 1q-163 0 -274 -5zM510 1880q84 52 139 52q23 0 41 -9q133 -133 156 -287q-14 -6 -45 -25.5 t-53 -27.5q-37 109 -117 176q-29 25 -62.5 61.5t-58.5 59.5z" />
<glyph unicode="&#xc9;" d="M209 1491q107 5 271 5q82 0 179 -1q83 -1 156 -1q181 0 297 7q23 -53 24 -106v-12q0 -50 -8 -121q-74 -12 -162.5 -19.5t-148 -9.5t-173.5 -3t-165 -3q0 -37 10 -165q9 -107 9 -157v-18q84 -13 333 -13q111 0 254 3q0 -158 9 -248q-54 -1 -105 -1t-97 1q-37 1 -77 1 q-59 0 -124 -2q-108 -3 -183 -14q-20 -20 -20.5 -83.5t5.5 -140.5q3 -43 2 -70q0 -22 -1 -35q159 -2 319 -2t322 2q2 -45 2 -89q0 -88 -9 -171q-111 -10 -233.5 -15.5t-205.5 -6.5t-229.5 -2t-226.5 -1q0 94 -16 651q-11 371 -11 621q0 125 3 219zM504 1636q23 154 155 287 q18 9 42 9q55 0 139 -52q-25 -23 -58.5 -59.5t-62.5 -61.5q-80 -68 -117 -176q-23 8 -53.5 27.5t-44.5 25.5z" />
<glyph unicode="&#xca;" d="M213 1491q107 5 271 5q82 0 180 -1q83 -1 155 -1q181 0 297 7q23 -53 24 -106v-12q0 -50 -7 -121q-74 -12 -163 -19.5t-148.5 -9.5t-173 -3t-165.5 -3q0 -37 11 -165q9 -107 8 -157v-18q84 -13 333 -13q111 0 255 3q0 -158 8 -248q-54 -1 -104.5 -1t-97.5 1q-37 1 -77 1 q-59 0 -124 -2q-108 -3 -183 -14q-20 -20 -20 -83.5t5 -140.5q3 -43 2 -70q0 -22 -1 -35q159 -2 319 -2t322 2q2 -45 2 -89q0 -88 -8 -171q-111 -10 -234 -15.5t-206 -6.5t-229.5 -2t-225.5 -1q0 94 -17 651q-11 371 -11 621q0 125 3 219zM313 1599q51 102 242 402 q10 0 108 5q54 3 84 3q24 0 33 -2q43 -57 148.5 -232.5t109.5 -181.5q-29 -5 -78 -4q-37 0 -83 2q-23 23 -50.5 70t-59.5 108.5t-46 85.5q-20 1 -38 2q-34 0 -54 -6q-27 -37 -79 -131t-81 -137q-31 2 -59 0q-10 -1 -20 -1l-38 3q-29 4 -39 14z" />
<glyph unicode="&#xcb;" d="M211 1491q-3 -94 -3 -219q0 -249 11 -621q16 -557 17 -651q80 0 226 1t229 2t206 6t233 16q8 83 9 171q0 44 -2 89q-162 -2 -322.5 -2t-318.5 2q2 13 1 35q0 28 -2 70q-5 77 -5.5 140.5t20.5 83.5q76 10 183 14q65 2 124 2q40 0 77 -1q47 -1 97 -1t105 1q-8 90 -9 248 q-144 -3 -254 -3q-250 0 -333 13v18q0 50 -8 157q-10 128 -11 165q51 2 165 3t173.5 3t148.5 9t162 20q7 71 8 121v12q-1 53 -24 106q-120 -7 -299 -7q-72 0 -153 1q-95 1 -177 1q-163 0 -274 -5zM498 1839q57 0 91 -35t34 -94q0 -57 -34 -92t-83 -35q-55 0 -96 33 q-39 31 -39 88q0 135 127 135zM850 1839q59 0 92 -35t33 -94q0 -57 -34 -92t-83 -35q-55 0 -95 33q-38 31 -38 88q0 135 125 135z" />
<glyph unicode="&#xcc;" horiz-adv-x="681" d="M180 1880q84 52 139 52q23 0 41 -9q133 -133 156 -287q-14 -6 -45 -25.5t-53 -27.5q-37 109 -117 176q-29 25 -62.5 61.5t-58.5 59.5zM182 1485q4 -233 33 -790.5t41 -694.5q43 2 139.5 4t112.5 2q6 98 6 193q0 76 -4 149q-2 86 -6 284.5t-7 320.5t-17.5 275.5 t-39.5 256.5q-33 10 -66 13q-25 2 -44 2h-12q-22 -1 -67.5 -7t-68.5 -8z" />
<glyph unicode="&#xcd;" horiz-adv-x="681" d="M174 1628q23 154 156 287q18 9 41 9q55 0 139 -52q-25 -23 -58.5 -59.5t-62.5 -61.5q-80 -68 -117 -176q-23 8 -53.5 27.5t-44.5 25.5zM174 1485q23 2 69 8t67 7h12q18 0 44 -2q34 -3 66 -13q25 -102 39 -256t17.5 -276t7.5 -320.5t6 -284.5q4 -74 3 -149q0 -95 -5 -193 q-16 0 -112.5 -2t-139.5 -4q-12 137 -41 694.5t-33 790.5z" />
<glyph unicode="&#xce;" horiz-adv-x="909" d="M90 1599q51 102 242 402q10 0 107 5q54 3 85 3q24 0 33 -2q43 -57 148.5 -232.5t109.5 -181.5q-28 -5 -77 -4q-37 0 -85 2q-23 23 -50.5 70t-59 108.5t-45.5 85.5q-20 1 -38 2q-34 0 -55 -6q-27 -37 -79 -131t-80 -137q-31 2 -59.5 0t-57.5 2t-39 14zM287 1485 q23 2 68.5 8t67.5 7h11q18 0 44 -2q34 -3 67 -13q25 -102 39 -256t17 -276t7 -320.5t6 -284.5q4 -74 4 -149q0 -95 -6 -193q-16 0 -112.5 -2t-139.5 -4q-12 137 -40.5 694.5t-32.5 790.5z" />
<glyph unicode="&#xcf;" horiz-adv-x="966" d="M274 1839q57 0 91 -35t34 -94q0 -57 -33.5 -92t-82.5 -35q-55 0 -97 33q-39 31 -39 88q0 135 127 135zM285 1485q4 -233 32.5 -790.5t40.5 -694.5q43 2 139.5 4t112.5 2q6 98 6 193q0 76 -4 149q-2 86 -6 284.5t-7 320.5t-17.5 275.5t-38.5 256.5q-33 10 -67 13t-55.5 2 t-67 -7t-68.5 -8zM627 1839q59 0 92 -35t33 -94q0 -57 -34 -92t-83 -35q-55 0 -95 33q-38 31 -38 88q0 135 125 135z" />
<glyph unicode="&#xd0;" horiz-adv-x="1421" d="M104 852q39 12 138 16q-31 573 -35 623q6 0 53 3t69.5 4t76.5 2h25q37 0 64 -2q36 -3 90 -8t98 -17l94 -28q50 -15 98.5 -41t91.5 -56q109 -80 161 -129.5t99 -149.5t57 -244q3 -50 3 -97q0 -418 -261 -609q-41 -29 -82 -50.5t-98.5 -35t-91 -20.5t-112.5 -10t-105.5 -3 t-127 2t-122.5 2q-10 86 -22.5 309.5t-22.5 313.5q-12 -5 -37 -6q-12 0 -27 2q-45 4 -59 24q-4 27 -5.5 95.5t-9.5 109.5zM473 1280q23 -317 37 -424q28 -5 64 -5q47 0 108 9q-1 -12 -1 -27q0 -32 5.5 -80.5t5.5 -86.5q0 -19 -2 -35q-9 -6 -42 -6q-12 0 -27 1q-34 2 -57 2 q-15 0 -25 -1q-2 -16 -3 -45q0 -48 7 -132q9 -112 8 -168v-20q458 27 458 466q0 22 -1 46q-12 221 -151 365q-136 141 -377 141h-7z" />
<glyph unicode="&#xd1;" horiz-adv-x="1593" d="M197 8q-8 484 -8.5 853.5t8.5 623.5q95 13 175 13q48 0 91 -5q43 -127 290.5 -434t370.5 -430q1 30 1 69q0 129 -10 361q-6 146 -6 248q0 110 7 168q87 26 213 25q25 0 51 -1q20 -193 26 -449q3 -129 3 -274t-3 -307q-4 -231 -4 -357q0 -50 1 -83q-59 -10 -111 -10h-25 q-62 3 -103.5 13.5t-47.5 20.5q-49 98 -168 261l-276 362l-195 248q0 -109 6 -293.5t6 -330.5t-16 -273q-87 -25 -179 -26q-48 0 -97 7zM401 1681l40 53q28 36 37 45t30.5 32.5t34.5 29.5l35 18q23 11 46 14t54 5h4q54 0 138 -51t127 -51h3q25 2 47.5 8t41 17t30.5 19.5 t27.5 21.5t19.5 18q53 -76 80 -148q-31 -33 -100.5 -63.5t-134.5 -32.5h-12q-68 0 -112 23q-48 26 -78 53.5t-61 27.5q-37 0 -63.5 -16t-65.5 -64.5t-47 -56.5q-98 75 -121 98z" />
<glyph unicode="&#xd2;" d="M68 716q14 -169 64 -310.5t122 -215.5q102 -102 260 -151q126 -39 222 -39q24 0 46 2q154 16 262.5 107.5t159.5 223.5t62 291q2 38 2 75q0 119 -25 232q-33 148 -103.5 277t-168.5 199q-61 45 -194 75q-87 20 -180 19q-48 0 -98 -5q-146 -15 -214 -93 q-123 -141 -177 -330q-43 -149 -43 -286q0 -36 3 -71zM328 799q0 16 -1 30q0 234 120 343q67 61 155 61q78 0 172 -49q96 -49 148.5 -147.5t57.5 -207.5q1 -27 1 -53q0 -79 -11 -153q-15 -98 -46 -172q-35 -84 -120 -123q-72 -33 -142 -33q-13 0 -26 1q-83 7 -128 44 q-55 47 -86 86t-60.5 135.5t-33.5 237.5zM500 1872q84 52 139 52q23 0 41 -9q133 -133 156 -287q-14 -6 -45 -25.5t-54 -27.5q-37 109 -116 176q-29 25 -62.5 61.5t-58.5 59.5z" />
<glyph unicode="&#xd3;" d="M68 716q-3 35 -3 71q0 137 43 286q54 188 177 330q68 78 214 93q50 5 98 5q93 0 180 -19q132 -30 194 -75q98 -70 168.5 -199t103.5 -277q25 -113 25 -232q0 -37 -2 -75q-10 -159 -61.5 -291t-160 -223.5t-262.5 -107.5q-22 -2 -46 -2q-96 0 -222 39q-158 49 -260 151 q-72 74 -122 215.5t-64 310.5zM328 799q4 -141 33.5 -237.5t60.5 -135.5t86 -86q45 -37 128 -44q13 -1 26 -1q70 0 142 33q85 39 120 123q31 74 46 172q12 74 11 153q0 26 -1 53q-5 109 -57.5 207.5t-148.5 147.5q-94 50 -172 49q-87 0 -155 -61q-120 -109 -120 -343 q1 -14 1 -30zM500 1628q23 154 155 287q18 9 41 9q55 0 140 -52q-25 -23 -59 -59.5t-62 -61.5q-80 -68 -117 -176q-23 8 -53.5 27.5t-44.5 25.5z" />
<glyph unicode="&#xd4;" d="M70 716q-3 35 -3 71q0 137 43 286q54 188 177 330q68 78 214 93q50 5 98 5q93 0 180 -19q132 -30 194 -75q98 -70 168.5 -199t103.5 -277q25 -113 25 -232q0 -37 -2 -75q-10 -159 -61.5 -291t-160 -223.5t-262.5 -107.5q-22 -2 -46 -2q-96 0 -222 39q-158 49 -260 151 q-72 74 -122 215.5t-64 310.5zM307 1599q51 102 242 402q10 0 107 5q54 3 85 3q24 0 33 -2q43 -57 148.5 -232.5t109.5 -181.5q-28 -5 -77 -4q-37 0 -85 2q-23 23 -50 70t-59 108.5t-46 85.5q-20 1 -38 2q-34 0 -54 -6q-27 -37 -79 -131t-81 -137q-31 2 -59.5 0t-57.5 2 t-39 14zM330 799q4 -141 33.5 -237.5t60.5 -135.5t86 -86q45 -37 128 -44q13 -1 26 -1q70 0 142 33q85 39 120 123q31 74 46 172q12 74 11 153q0 26 -1 53q-5 109 -57.5 207.5t-148.5 147.5q-94 50 -172 49q-87 0 -154 -61q-120 -109 -121 -343q1 -14 1 -30z" />
<glyph unicode="&#xd5;" d="M68 716q-3 35 -3 71q0 137 43 286q54 188 177 330q68 78 214 93q50 5 98 5q93 0 180 -19q132 -30 194 -75q98 -70 168.5 -199t103.5 -277q25 -113 25 -232q0 -37 -2 -75q-10 -159 -61.5 -291t-160 -223.5t-262.5 -107.5q-22 -2 -46 -2q-96 0 -222 39q-158 49 -260 151 q-72 74 -122 215.5t-64 310.5zM299 1716q14 14 45 49t44 47.5t40 31t55 21.5q12 1 27 1q19 0 41 -2q31 -4 57.5 -23.5t44 -40t53.5 -32.5q19 -6 41 -5q20 0 44 4q27 4 81 31t72 31q31 -22 45.5 -37.5t24.5 -45.5q3 -9 3 -19q0 -20 -16 -39q-27 -10 -72.5 -33t-67 -31 t-67.5 -18q-19 -4 -35 -5q-22 0 -38 9q-49 12 -95 54t-85 42q-33 0 -58.5 -16.5t-47 -41t-30.5 -30.5q-27 8 -58.5 48t-47.5 50zM328 799q4 -141 33.5 -237.5t60.5 -135.5t86 -86q45 -37 128 -44q13 -1 26 -1q70 0 142 33q85 39 120 123q31 74 46 172q12 74 11 153 q0 26 -1 53q-5 109 -57.5 207.5t-148.5 147.5q-94 50 -172 49q-87 0 -155 -61q-120 -109 -120 -343q1 -14 1 -30z" />
<glyph unicode="&#xd6;" d="M68 716q14 -169 64 -310.5t122 -215.5q102 -102 260 -151q126 -39 222 -39q24 0 46 2q154 16 262.5 107.5t159.5 223.5t62 291q2 38 2 75q0 119 -25 232q-33 148 -103.5 277t-168.5 199q-61 45 -194 75q-87 20 -180 19q-48 0 -98 -5q-146 -15 -214 -93 q-123 -141 -177 -330q-43 -149 -43 -286q0 -36 3 -71zM328 799q0 16 -1 30q0 234 120 343q67 61 155 61q78 0 172 -49q96 -49 148.5 -147.5t57.5 -207.5q1 -27 1 -53q0 -79 -11 -153q-15 -98 -46 -172q-35 -84 -120 -123q-72 -33 -142 -33q-13 0 -26 1q-83 7 -128 44 q-55 47 -86 86t-60.5 135.5t-33.5 237.5zM494 1841q57 0 90.5 -34.5t33.5 -94.5q0 -57 -33.5 -92t-82.5 -35q-55 0 -96 33q-39 31 -40 88q1 135 128 135zM846 1841q59 0 92 -34.5t33 -94.5q0 -57 -34 -92t-83 -35q-55 0 -95 33q-38 31 -38 88q0 135 125 135z" />
<glyph unicode="&#xd7;" horiz-adv-x="1110" d="M203 610q29 31 91 104.5t107 121.5q-35 31 -67.5 64.5t-66.5 73.5l-50 58l38 50t57.5 70t66.5 65q43 -20 124 -109.5t97 -103.5l69 93q56 77 83 122l54 -47l56.5 -49t43 -44.5t48.5 -62.5q-33 -27 -90 -87.5t-80 -80.5l201 -209q-57 -104 -178 -197l-63 59l-66 64l-51 54 q-27 29 -37 47q-51 -59 -199 -215q-102 59 -188 159z" />
<glyph unicode="&#xd8;" horiz-adv-x="1536" d="M120 863q28 185 124 341q92 150 232 222q136 71 278 71h8q145 -2 287 -65l155 221l83 -68q73 -59 104 -82l-37 -63l-40 -71q-19 -34 -50 -77q125 -139 174 -318q33 -121 33 -240q0 -57 -8 -112q-24 -173 -109 -325q-117 -209 -332 -271q-80 -23 -166 -24q-143 0 -301 66 l-149 -226q-31 14 -117 66.5t-109 64.5q53 68 142 222q-127 123 -179 303q-33 117 -33 236q0 64 10 129zM411 742q-2 -28 -3 -53q0 -151 77 -240q76 111 221.5 387t192.5 354q-20 18 -54 29.5t-84 12.5h-3q-49 0 -111 -40q-63 -41 -121 -121q-100 -140 -115 -329zM672 283 q75 -32 147 -33q60 0 117 23q125 50 188 176q63 118 63 278v25q-5 176 -85 270l-190 -333q-162 -287 -240 -406z" />
<glyph unicode="&#xd9;" horiz-adv-x="1480" d="M100 1450q8 -86 15.5 -344t33 -434t89.5 -318q135 -295 370 -336q105 -19 191 -18q140 0 231 49q88 49 162 182.5t115 278.5q53 195 59 485q1 48 1 95q0 232 -26 411q-16 1 -33 1q-53 0 -123 -5q-93 -6 -147 -6q23 -193 26 -404v-29q0 -197 -38 -408q-41 -226 -133 -304 q-64 -54 -136 -53q-82 0 -173 69q-66 49 -97.5 247t-47 507t-21.5 373l-25 2q-27 2 -57 3q-15 1 -33 1t-38 -1q-40 -1 -72.5 -4t-59.5 -13.5t-33 -26.5zM571 1872q84 52 140 52q23 0 41 -9q133 -133 155 -287q-14 -6 -45 -25.5t-53 -27.5q-37 109 -117 176 q-29 25 -62.5 61.5t-58.5 59.5z" />
<glyph unicode="&#xda;" horiz-adv-x="1480" d="M100 1450q6 16 33 26.5t59.5 13.5t72.5 4q20 1 38 1t33 -1q31 -1 57 -3l25 -2q6 -63 21.5 -372.5t47 -507t97.5 -247.5q92 -70 173 -69q72 0 136 53q92 78 133 304q38 211 38 408v29q-3 211 -26 404q53 0 147 6q70 5 123 5q18 0 33 -1q26 -179 26 -411q0 -46 -1 -95 q-6 -291 -59 -485q-41 -145 -115 -278.5t-162 -182.5q-91 -49 -231 -49q-86 0 -191 18q-236 41 -370 336q-63 141 -89 317.5t-33.5 434.5t-15.5 344zM571 1628q23 154 156 287q18 9 41 9q55 0 139 -52q-25 -23 -58.5 -59.5t-62.5 -61.5q-80 -68 -116 -176q-23 8 -54 27.5 t-45 25.5z" />
<glyph unicode="&#xdb;" horiz-adv-x="1480" d="M100 1450q6 16 33 26.5t59.5 13.5t72.5 4q20 1 38 1t33 -1q31 -1 57 -3l25 -2q6 -63 21.5 -372.5t47 -507t97.5 -247.5q92 -70 173 -69q72 0 136 53q92 78 133 304q38 211 38 408v29q-3 211 -26 404q53 0 147 6q70 5 123 5q18 0 33 -1q26 -179 26 -411q0 -46 -1 -95 q-6 -291 -59 -485q-41 -145 -115 -278.5t-162 -182.5q-91 -49 -231 -49q-86 0 -191 18q-236 41 -370 336q-63 141 -89 317.5t-33.5 434.5t-15.5 344zM377 1608q51 102 241 401q10 0 108 5q54 3 84 3q24 0 34 -2q43 -57 148.5 -232t109.5 -181q-28 -5 -77 -5q-37 0 -85 2 q-23 23 -50.5 70t-59 108.5t-46.5 86.5q-20 1 -37 1q-34 0 -55 -5q-27 -37 -79 -131.5t-81 -137.5q-31 2 -59 0q-10 -1 -19 0l-38 2q-29 5 -39 15z" />
<glyph unicode="&#xdc;" horiz-adv-x="1480" d="M100 1450q8 -86 15.5 -344t33 -434t89.5 -318q135 -295 370 -336q105 -19 191 -18q140 0 231 49q88 49 162 182.5t115 278.5q53 195 59 485q1 48 1 95q0 232 -26 411q-16 1 -33 1q-53 0 -123 -5q-93 -6 -147 -6q23 -193 26 -404v-29q0 -197 -38 -408q-41 -226 -133 -304 q-64 -54 -136 -53q-82 0 -173 69q-66 49 -97.5 247t-47 507t-21.5 373l-25 2q-27 2 -57 3q-15 1 -33 1t-38 -1q-40 -1 -72.5 -4t-59.5 -13.5t-33 -26.5zM565 1841q57 0 91 -34.5t34 -94.5q0 -57 -33.5 -92t-83.5 -35q-55 0 -96 33q-39 31 -39 88q0 135 127 135zM918 1841 q59 0 91.5 -34.5t32.5 -94.5q0 -57 -33.5 -92t-82.5 -35q-55 0 -96 33q-38 31 -38 88q1 135 126 135z" />
<glyph unicode="&#xdd;" horiz-adv-x="1193" d="M55 1475q37 18 88 22q23 2 49 2q32 0 70 -3q68 -5 78 -5q135 -225 301 -469q2 6 95 195.5t122 269.5q46 13 120 13h11q82 -1 148 -13q-31 -131 -183.5 -375t-173.5 -289q-3 -51 -3 -144.5t3 -229.5q2 -91 2 -170q0 -158 -8 -271q-76 -10 -138.5 -10t-111.5 10 q-6 147 -11 427t-9 388q-39 70 -216.5 298.5t-232.5 353.5zM428 1628q23 154 156 287q18 9 41 9q55 0 139 -52q-25 -23 -58.5 -59.5t-62.5 -61.5q-80 -68 -117 -176q-23 8 -53.5 27.5t-44.5 25.5z" />
<glyph unicode="&#xde;" horiz-adv-x="1067" d="M160 1501q16 1 32 1q25 0 51 -2q44 -3 94 -7l75 -6q16 -111 20 -379q23 0 71 -1t66.5 -2t55.5 -4t54 -8.5l47 -15.5t49.5 -23.5t43 -35t45.5 -47.5q89 -110 89 -297q0 -180 -81 -252q-37 -35 -93 -55.5t-91 -25.5t-122 -9t-109 -6q0 -29 1 -103v-46q0 -44 -1 -79 q-2 -51 -13 -90q-59 -9 -148 -9q-52 0 -114 3q-2 182 -10 711zM444 920q3 -28 4 -124q0 -24 -1 -52v-85q0 -78 2 -127q57 0 102 6.5t91 25t70 60.5q22 39 21 95q0 130 -77 170q-61 32 -173 31q-19 1 -39 0z" />
<glyph unicode="&#xdf;" horiz-adv-x="1323" d="M146 664v96q0 469 10 698q119 37 286 44l64 2q135 0 264 -25q160 -31 234 -97q70 -61 109 -169q29 -79 29 -168q0 -32 -3 -66q-14 -127 -101 -215q90 -72 111.5 -135.5t32.5 -229.5q3 -40 3 -74q0 -40 -4 -73q-7 -61 -37 -122.5t-102.5 -94.5t-187.5 -35h-16 q-106 0 -174 25q-74 27 -111 85t-48 128q-8 51 -8 120q0 25 1 54q65 4 121 4t104 -4q0 -23 -3 -61t-2 -50t6 -32.5t18.5 -28t39 -13.5t66.5 -8h9q88 0 113 74q12 37 12 78q0 44 -14 92q-28 92 -75 143q-41 43 -101.5 63.5t-93 21.5t-112.5 1q0 23 4 94q2 36 2 60t-2 37 q20 0 67.5 -1t78 -1t71.5 7t65.5 21.5t41 43t16.5 71.5q-2 96 -56.5 157.5t-138.5 81.5q-73 17 -149 16h-25q-90 -3 -174 -28q-5 -116 -5 -342q0 -113 1 -254q1 -121 1 -224q0 -261 -7 -421q-23 -6 -65 -6q-60 0 -158 12q-7 105 -8 648z" />
<glyph unicode="&#xe0;" horiz-adv-x="1251" d="M120 459v-14q0 -158 68 -297q72 -144 199 -148q17 -1 34 -1q262 0 374 151q-12 -33 -13 -57q0 -72 109 -73h7q113 0 230 60q12 4 21 10q-49 207 -84 613.5t-70 504.5q-33 96 -208 117q-56 7 -114 7q-122 0 -252 -29q-191 -43 -292 -115q-1 -8 -1 -16q0 -31 12 -70 q10 -32 10 -61q0 -15 -3 -29q13 0 26 -1q60 0 131 8q87 9 156.5 20.5t132.5 19.5q42 5 73 5q16 0 28 -1q39 -4 49 -27q16 -37 21.5 -73.5t7.5 -98t4 -88.5q-113 71 -240 71q-38 0 -77 -6q-170 -28 -273 -143q-63 -73 -66 -239zM349 416q11 76 40 102q33 31 87 56.5t131 35.5 q14 2 28 2q61 0 113 -37q9 -39 8 -79q0 -17 -1 -33q-5 -57 -26.5 -105.5t-90.5 -86.5t-183 -52q-7 -1 -15 -1q-54 0 -76 57q-18 45 -18 95q0 23 3 46zM467 1757q84 52 139 52q23 0 41 -9q133 -133 156 -287q-14 -6 -45 -25.5t-54 -27.5q-37 109 -116 176q-29 25 -62.5 61.5 t-58.5 59.5z" />
<glyph unicode="&#xe1;" horiz-adv-x="1251" d="M153 459q3 166 66 239q102 115 273 143q39 6 77 6q127 0 240 -71q-2 27 -4 88.5t-7 98t-22 73.5q-10 23 -49 27q-13 1 -29 1q-31 0 -72 -5q-62 -8 -132 -19.5t-157 -20.5q-71 -8 -131 -8q-13 0 -26 1q3 14 3 29q0 29 -10 61q-12 39 -12 70q0 8 1 16q100 72 292 115 q130 29 252 29q58 0 114 -7q175 -20 208 -117q35 -98 70 -504.5t84 -613.5q-86 -53 -213 -67q-26 -3 -48 -4q-106 0 -106 75q0 21 12 56q-112 -150 -373 -151q-17 0 -34 1q-127 4 -199 148q-69 138 -69 297q1 7 1 14zM382 416q-3 -23 -3 -46q0 -50 17 -95q23 -57 77 -57 q7 0 14 1q115 14 183.5 52t90 86.5t26.5 105.5q2 17 2 33q0 40 -9 79q-52 37 -112 37q-14 0 -28 -2q-77 -10 -131 -35.5t-87 -56.5q-29 -26 -40 -102zM457 1493q23 154 155 287q18 9 41 9q55 0 140 -52q-25 -23 -59 -60t-62 -61q-80 -68 -117 -176q-23 8 -53.5 27.5 t-44.5 25.5z" />
<glyph unicode="&#xe2;" horiz-adv-x="1251" d="M153 459q3 166 66 239q102 115 273 143q39 6 77 6q127 0 240 -71q-2 27 -4 88.5t-7 98t-22 73.5q-10 23 -49 27q-13 1 -29 1q-31 0 -72 -5q-62 -8 -132 -19.5t-157 -20.5q-71 -8 -131 -8q-13 0 -26 1q3 14 3 29q0 29 -10 61q-12 39 -12 70q0 8 1 16q100 72 292 115 q130 29 252 29q58 0 114 -7q175 -20 208 -117q35 -98 70 -504.5t84 -613.5q-86 -53 -213 -67q-26 -3 -48 -4q-106 0 -106 75q0 21 12 56q-112 -150 -373 -151q-17 0 -34 1q-127 4 -199 148q-69 138 -69 297q1 7 1 14zM262 1464q51 102 242 402q10 0 107 5q54 3 85 3 q24 0 33 -2q43 -57 148.5 -232.5t109.5 -181.5q-28 -5 -77 -5q-37 0 -85 3q-23 23 -50 70t-59 108.5t-46 85.5q-20 1 -38 2q-34 0 -54 -6q-27 -37 -79.5 -131t-80.5 -137q-31 2 -59.5 0t-57.5 2t-39 14zM382 416q-3 -23 -3 -46q0 -50 17 -95q23 -57 77 -57q7 0 14 1 q115 14 183.5 52t90 86.5t26.5 105.5q2 17 2 33q0 40 -9 79q-52 37 -112 37q-14 0 -28 -2q-77 -10 -131 -35.5t-87 -56.5q-29 -26 -40 -102z" />
<glyph unicode="&#xe3;" horiz-adv-x="1251" d="M153 459q3 166 66 239q102 115 273 143q39 6 77 6q127 0 240 -71q-2 27 -4 88.5t-7 98t-22 73.5q-10 23 -49 27q-13 1 -29 1q-31 0 -72 -5q-62 -8 -132 -19.5t-157 -20.5q-71 -8 -131 -8q-13 0 -26 1q3 14 3 29q0 29 -10 61q-12 39 -12 70q0 8 1 16q100 72 292 115 q130 29 252 29q58 0 114 -7q175 -20 208 -117q35 -98 70 -504.5t84 -613.5q-86 -53 -213 -67q-26 -3 -48 -4q-106 0 -106 75q0 21 12 56q-112 -150 -373 -151q-17 0 -34 1q-127 4 -199 148q-69 138 -69 297q1 7 1 14zM256 1575q14 14 45 49t44 47t40 30.5t55 21.5q12 1 27 2 q19 0 41 -3q31 -4 57.5 -23.5t44 -40t53.5 -31.5q19 -6 41 -6q20 0 44 5q27 4 81 30.5t72 31.5q31 -22 45.5 -38t24.5 -45q3 -9 3 -19q0 -20 -16 -40q-27 -10 -72.5 -32.5t-67 -30.5t-67.5 -19q-19 -4 -35 -4q-22 0 -38 8q-49 12 -95 54.5t-85 42.5q-33 0 -58.5 -16.5 t-47 -41t-29.5 -30.5q-27 8 -59 48t-48 50zM382 416q-3 -23 -3 -46q0 -50 17 -95q23 -57 77 -57q7 0 14 1q115 14 183.5 52t90 86.5t26.5 105.5q2 17 2 33q0 40 -9 79q-52 37 -112 37q-14 0 -28 -2q-77 -10 -131 -35.5t-87 -56.5q-29 -26 -40 -102z" />
<glyph unicode="&#xe4;" horiz-adv-x="1251" d="M153 459q0 -7 -1 -14q0 -158 69 -297q72 -144 199 -148q17 -1 34 -1q262 0 373 151q-12 -33 -12 -57q0 -72 109 -73h7q113 0 230 60q12 4 21 10q-49 207 -84 613.5t-70 504.5q-33 96 -208 117q-56 7 -114 7q-122 0 -252 -29q-191 -43 -292 -115q-1 -8 -1 -16 q0 -31 12 -70q10 -32 10 -61q0 -15 -3 -29q13 0 26 -1q60 0 131 8q87 9 156.5 20.5t132.5 19.5q42 5 72 5q16 0 29 -1q39 -4 49 -27q16 -37 21.5 -73.5t7.5 -98t4 -88.5q-113 71 -240 71q-38 0 -77 -6q-170 -28 -273 -143q-63 -73 -66 -239zM451 1698q57 0 90.5 -35 t33.5 -94q0 -57 -33.5 -92t-82.5 -35q-55 0 -97 33q-39 31 -39 88q1 135 128 135zM382 416q11 76 40 102q33 31 87 56.5t131 35.5q14 2 28 2q61 0 112 -37q9 -39 9 -79q0 -17 -2 -33q-5 -57 -26.5 -105.5t-90 -86.5t-183.5 -52q-7 -1 -14 -1q-54 0 -77 57q-18 45 -17 95 q0 23 3 46zM803 1698q59 0 92 -35t33 -94q0 -57 -34 -92t-83 -35q-55 0 -95 33q-38 31 -38 88q0 135 125 135z" />
<glyph unicode="&#xe5;" horiz-adv-x="1251" d="M120 459q3 166 66 239q102 115 273 143q39 6 77 6q127 0 240 -71q-2 27 -4 88.5t-7 98t-22 73.5q-10 23 -49 27q-13 1 -28 1q-31 0 -73 -5q-62 -8 -132 -19.5t-157 -20.5q-71 -8 -131 -8q-13 0 -26 1q3 14 3 29q0 29 -10 61q-12 39 -12 70q0 8 1 16q100 72 292 115 q130 29 252 29q58 0 114 -7q175 -20 208 -117q35 -98 70 -504.5t84 -613.5q-86 -53 -213 -67q-26 -3 -48 -4q-106 0 -106 75q0 21 13 56q-112 -150 -374 -151q-17 0 -34 1q-127 4 -199 148q-69 138 -68 297v14zM349 416q-3 -23 -3 -46q0 -50 18 -95q23 -57 76 -57q7 0 15 1 q115 14 183.5 52t90 86.5t26.5 105.5q2 17 1 33q0 40 -8 79q-52 37 -113 37q-14 0 -28 -2q-77 -10 -131 -35.5t-87 -56.5q-29 -26 -40 -102zM406 1659q2 98 60 152.5t159 54.5q227 0 239 -217q1 -9 1 -18q0 -77 -48 -140q-52 -68 -161 -68h-7q-119 2 -183 67q-61 61 -61 157 q1 6 1 12zM532 1636q10 -98 105 -102q41 0 68 24q29 26 28 72q0 113 -90 113q-59 0 -87 -29q-24 -25 -24 -65q-1 -7 0 -13z" />
<glyph unicode="&#xe6;" horiz-adv-x="1878" d="M129 514q27 106 99.5 195.5t196.5 117.5q54 13 116 13q80 0 172 -21q7 37 7 99q0 41 -3 94q-2 63 -100 75q-28 4 -57 4q-75 0 -166 -22q-126 -31 -220 -82q-16 172 -14 207q102 74 242 113q92 25 193 25q53 0 110 -7q162 -20 278 -119q88 84 241 107q45 7 87 6 q99 0 180 -37q145 -68 215 -249q66 -171 66 -402v-27q-143 4 -320 4t-387 -4v-18q0 -186 79 -274q83 -91 281 -91q96 0 132 70q32 62 33 140q0 9 -1 18q39 0 223 -17l2 -45q0 -253 -176 -330q-108 -48 -254 -48q-47 0 -99 5q-210 20 -273 111q8 -38 8 -74q0 -18 -2 -35 q-64 -2 -112 -2q-95 0 -122 9q4 16 4 40q0 31 -6 74q-35 -72 -132 -109q-68 -26 -144 -27q-33 0 -67 5q-114 16 -187 86q-84 84 -117 200q-18 64 -18 125q0 49 12 97zM355 424q-2 -15 -1 -30q0 -55 21 -107q31 -61 115 -65h8q81 0 151 62q74 65 74 171q0 96 -37 128 q-33 28 -125 28q-12 0 -24 -1q-72 -2 -123.5 -58t-58.5 -128zM1073 795q44 -1 108 -1t147 1q42 1 76 0q103 0 138 -4q-2 37 -25.5 104.5t-80.5 131.5q-54 61 -119 61q-4 0 -8 -1q-121 -8 -171.5 -67t-64.5 -225z" />
<glyph unicode="&#xe7;" horiz-adv-x="1421" d="M111 637q6 299 191 500q182 197 421 196h10q463 -8 492 -469q-33 -4 -121 -9t-143 -11q-23 84 -71 123t-134 39q-88 -12 -137.5 -27.5t-100.5 -51.5t-72 -105q-19 -62 -18 -157v-20q6 -207 104 -307q94 -96 227 -96h11q92 2 149.5 33.5t74 76.5t22.5 95q3 22 2 41 q0 26 -4 49q63 25 258 47q51 -92 50 -177q0 -25 -4 -51q-19 -109 -97 -194q-111 -123 -338 -160q21 -32 21 -87q0 -26 -5 -56q-14 -96 -72 -189q-93 -136 -261 -135h-19q-182 8 -375 148q25 57 104 215q27 -20 66 -53t56.5 -45.5t51.5 -21.5q20 -6 43 -6q15 0 31 3 q72 8 88 94q5 26 5 51q0 56 -25 103q-238 27 -362 200q-120 169 -120 399q1 7 1 15z" />
<glyph unicode="&#xe8;" horiz-adv-x="1394" d="M140 816q-28 -111 -28 -212q0 -103 29 -196q33 -100 118 -187.5t193.5 -142.5t228.5 -71q41 -5 80 -5q75 0 143 20q103 30 179 129t95 257q-76 119 -265 131q8 -53 8 -93q0 -96 -44 -120q-76 -72 -201 -74h-6q-120 0 -166 80q-41 76 -52 154q-8 58 -9 135q0 28 1 59h22 q104 0 330 16q188 14 298 14q37 0 65 -1q24 87 24 170q0 107 -40 206q-72 176 -209 226q-61 22 -134 21q-80 0 -176 -25q-183 -49 -294 -148q-134 -119 -190 -343zM469 846q-1 7 -1 14q0 18 4 37q5 27 22.5 68t65.5 73.5t120 46.5q24 5 45 5q35 0 64 -12q48 -19 73 -55 t36 -70.5t11 -57.5q-378 -49 -433 -49h-7zM528 1737q84 52 139 52q23 0 42 -9q133 -133 155 -287q-14 -6 -45 -25.5t-53 -27.5q-37 109 -117 176q-29 25 -62.5 61.5t-58.5 59.5z" />
<glyph unicode="&#xe9;" horiz-adv-x="1394" d="M140 816q56 224 190 343q111 98 294 148q96 26 176 25q74 0 134 -21q137 -49 209 -226q40 -99 40 -206q0 -83 -24 -170q-28 2 -65 1q-110 0 -298 -14q-226 -17 -330 -16h-22q-1 -31 -1 -59q0 -77 9 -135q11 -79 52 -154q46 -80 166 -80h6q125 2 201 74q45 25 44 120 q0 40 -8 93q188 -12 265 -131q-18 -158 -94 -257.5t-180 -128.5q-68 -20 -143 -20q-39 0 -80 5q-120 15 -228.5 70.5t-193.5 142.5t-118 188q-29 93 -29 196q0 101 28 212zM469 846h7q55 0 433 49q0 23 -11 57.5t-35.5 70.5t-72.5 55q-29 12 -64 12q-22 0 -46 -5 q-72 -14 -120 -46.5t-65.5 -73.5t-22.5 -68q-4 -19 -4 -37q0 -7 1 -14zM528 1493q23 154 156 287q18 9 41 9q55 0 139 -52q-25 -23 -58.5 -60t-62.5 -61q-80 -68 -116 -176q-23 8 -54 27.5t-45 25.5z" />
<glyph unicode="&#xea;" horiz-adv-x="1394" d="M140 816q56 224 190 343q111 98 294 148q96 26 176 25q74 0 134 -21q137 -49 209 -226q40 -99 40 -206q0 -83 -24 -170q-28 2 -65 1q-110 0 -298 -14q-226 -17 -330 -16h-22q-1 -31 -1 -59q0 -77 9 -135q11 -79 52 -154q46 -80 166 -80h6q125 2 201 74q45 25 44 120 q0 40 -8 93q188 -12 265 -131q-18 -158 -94 -257.5t-180 -128.5q-68 -20 -143 -20q-39 0 -80 5q-120 15 -228.5 70.5t-193.5 142.5t-118 188q-29 93 -29 196q0 101 28 212zM334 1466q51 102 241 402q10 0 108 5q54 3 84 3q24 0 34 -2q43 -57 148.5 -232.5t109.5 -181.5 q-29 -5 -78 -4q-37 0 -84 2q-23 23 -50.5 70t-59 108.5t-46.5 85.5q-20 1 -37 2q-34 0 -55 -6q-27 -37 -79 -131t-81 -137q-31 2 -59.5 0t-57 2t-38.5 14zM469 846h7q55 0 433 49q0 23 -11 57.5t-35.5 70.5t-72.5 55q-29 12 -64 12q-22 0 -46 -5q-72 -14 -120 -46.5 t-65.5 -73.5t-22.5 -68q-4 -19 -4 -37q0 -7 1 -14z" />
<glyph unicode="&#xeb;" horiz-adv-x="1394" d="M140 816q-28 -111 -28 -212q0 -103 29 -196q33 -100 118 -187.5t193.5 -142.5t228.5 -71q41 -5 80 -5q75 0 143 20q103 30 179 129t95 257q-76 119 -265 131q8 -53 8 -93q0 -96 -44 -120q-76 -72 -201 -74h-6q-120 0 -166 80q-41 76 -52 154q-8 58 -9 135q0 28 1 59h22 q104 0 330 16q188 14 298 14q37 0 65 -1q24 87 24 170q0 107 -40 206q-72 176 -209 226q-61 22 -134 21q-80 0 -176 -25q-183 -49 -294 -148q-134 -119 -190 -343zM522 1696q57 0 91 -35t34 -94q0 -57 -33.5 -92t-83.5 -35q-55 0 -96 33q-39 31 -39 88q0 135 127 135z M469 846q-1 7 -1 14q0 18 4 37q5 27 22.5 68t65.5 73.5t120 46.5q24 5 45 5q35 0 64 -12q48 -19 73 -55t36 -70.5t11 -57.5q-378 -49 -433 -49h-7zM874 1696q59 0 92 -35t33 -94q0 -57 -33.5 -92t-82.5 -35q-55 0 -96 33q-38 31 -38 88q0 135 125 135z" />
<glyph unicode="&#xec;" horiz-adv-x="739" d="M164 954q12 -102 24.5 -317t27.5 -385t44 -244q27 -6 92 -6q24 0 55 1q110 3 160 24q0 84 -6 438q-4 213 -4 346q0 89 2 143q-43 -2 -103.5 -6t-84 -5t-62.5 -1t-70.5 3t-74.5 9zM203 1401q84 52 139 52q23 0 41 -9q133 -133 156 -287q-14 -6 -45 -25.5t-54 -27.5 q-37 109 -116 176q-29 25 -62.5 61.5t-58.5 59.5z" />
<glyph unicode="&#xed;" horiz-adv-x="739" d="M162 954q43 -6 74.5 -9t70.5 -3t62.5 1t84 5t103.5 6q-2 -54 -2 -143q0 -134 4 -346q6 -354 6 -438q-51 -20 -161 -24q-30 -1 -54 -1q-65 0 -92 6q-29 74 -44 244t-27.5 385t-24.5 317zM201 1161q23 154 155 287q18 9 41 9q55 0 140 -52q-25 -23 -59 -59.5t-62 -61.5 q-80 -68 -117 -176q-23 8 -53.5 27.5t-44.5 25.5z" />
<glyph unicode="&#xee;" horiz-adv-x="1024" d="M172 1083q51 102 242 402q10 0 107 5q54 3 85 3q24 0 33 -2q43 -57 148.5 -232.5t109.5 -181.5q-28 -5 -77 -4q-37 0 -85 2q-23 23 -50.5 70t-59 108.5t-45.5 85.5q-20 1 -38 2q-34 0 -55 -6q-27 -37 -79 -131t-80 -137q-31 2 -59.5 0t-57.5 2t-39 14zM328 954 q43 -6 74.5 -9t70.5 -3t62.5 1t84 5t103.5 6q-2 -54 -2 -143q0 -134 4 -346q6 -354 6 -438q-51 -20 -161 -24q-30 -1 -54 -1q-65 0 -92 6q-29 74 -44 244t-27.5 385t-24.5 317z" />
<glyph unicode="&#xef;" horiz-adv-x="966" d="M305 1430q57 0 91 -35t34 -95q0 -57 -34 -91.5t-83 -34.5q-55 0 -96 32q-39 31 -39 89q0 135 127 135zM274 954q12 -102 24.5 -317t28 -385t44.5 -244q27 -6 92 -6q24 0 54 1q110 3 161 24q0 84 -6 438q-4 213 -4 346q0 89 2 143q-43 -2 -103.5 -6t-84 -5t-62.5 -1t-71 3 t-75 9zM657 1430q59 0 92 -35t33 -95q0 -57 -33.5 -91.5t-82.5 -34.5q-55 0 -96 32q-38 31 -38 89q0 135 125 135z" />
<glyph unicode="&#xf0;" horiz-adv-x="1196" />
<glyph unicode="&#xf1;" horiz-adv-x="1478" d="M145 1272q23 8 117 14t135 45q35 4 52.5 -16.5t20.5 -48t13.5 -55t30.5 -35.5q150 106 313 105q23 0 46 -2q187 -17 341 -142q63 -152 114 -581q36 -305 36 -432q0 -52 -6 -75q-17 -13 -61 -13q-27 0 -64 5q-31 4 -56 4q-54 0 -79 -18q-2 37 -3 141t-3 198.5t-18.5 210 t-44.5 197.5t-85 136q-53 50 -126 51h-11q-72 -4 -122 -37t-76.5 -92.5t-42 -126t-18.5 -157.5q-2 -68 -2 -127v-38q1 -74 5 -168q3 -63 3 -108q0 -23 -1 -41q-45 -29 -92 -45.5t-105 -20.5h-13q-48 0 -81 27q-27 207 -59.5 628.5t-57.5 616.5zM369 1575q14 14 44.5 49 t44 47t40 30.5t55.5 21.5q12 1 26 2q19 0 42 -3q31 -4 57.5 -23.5t43.5 -40t53 -31.5q19 -6 41 -6q20 0 44 5q27 4 81 30.5t73 31.5q31 -22 45 -38t24 -45q3 -9 4 -19q0 -20 -16 -40q-27 -10 -73 -32.5t-67.5 -30.5t-67.5 -19q-19 -4 -35 -4q-22 0 -37 8q-49 12 -95.5 54.5 t-85.5 42.5q-33 0 -58.5 -16.5t-47 -41t-29.5 -30.5q-27 8 -58.5 48t-47.5 50z" />
<glyph unicode="&#xf2;" horiz-adv-x="1449" d="M127 700q-2 -32 -2 -65q0 -124 31 -248q33 -145 186 -268q109 -88 284 -110q59 -7 117 -7q114 0 223 28q165 42 290.5 158.5t140.5 280.5q1 19 1 39q0 175 -115 395q-128 246 -259 332q-92 59 -232 84q-67 12 -131 12q-69 0 -133 -14q-123 -29 -214 -119t-134 -216 t-53 -282zM420 768q10 199 170 240q63 14 119 14t104 -14q96 -29 160.5 -100.5t98.5 -164t34 -195.5q0 -107 -79 -188q-81 -82 -169 -98q-29 -5 -56 -5q-150 0 -261 143q-122 157 -122 339q0 15 1 29zM557 1737q84 52 139 52q23 0 41 -9q133 -133 156 -287q-14 -6 -45 -25.5 t-53 -27.5q-37 109 -117 176q-29 25 -62.5 61.5t-58.5 59.5z" />
<glyph unicode="&#xf3;" horiz-adv-x="1449" d="M127 700q10 156 53 282t134.5 216t213.5 119q64 14 133 14q63 0 131 -12q140 -25 232 -84q131 -86 259 -332q115 -221 115 -395q0 -20 -1 -39q-14 -164 -140.5 -280.5t-290.5 -158.5q-109 -28 -223 -28q-58 0 -117 7q-175 22 -284 110q-154 123 -186 268q-31 125 -31 248 q0 33 2 65zM420 768q-1 -14 -1 -29q0 -182 122 -339q111 -143 261 -143q27 0 56 5q88 16 169 98q79 80 79 188q0 104 -34 196t-98.5 163.5t-160.5 100.5q-48 14 -104 14t-119 -14q-160 -41 -170 -240zM557 1493q23 154 156 287q18 9 41 9q55 0 139 -52q-25 -23 -58.5 -60 t-62.5 -61q-80 -68 -117 -176q-23 8 -53.5 27.5t-44.5 25.5z" />
<glyph unicode="&#xf4;" horiz-adv-x="1449" d="M127 700q10 156 53 282t134.5 216t213.5 119q64 14 133 14q63 0 131 -12q140 -25 232 -84q131 -86 259 -332q115 -221 115 -395q0 -20 -1 -39q-14 -164 -140.5 -280.5t-290.5 -158.5q-109 -28 -223 -28q-58 0 -117 7q-175 22 -284 110q-154 123 -186 268q-31 125 -31 248 q0 33 2 65zM362 1440q51 102 242 401q10 0 108 5q54 3 84 3q24 0 33 -2q43 -57 148.5 -232t109.5 -181q-29 -5 -77 -5q-37 0 -84 3q-23 23 -50.5 69.5t-59.5 108t-46 86.5q-20 1 -37 1q-34 0 -55 -5q-27 -37 -79 -131.5t-81 -137.5q-31 2 -59.5 0t-57.5 2.5t-39 14.5z M420 768q-1 -14 -1 -29q0 -182 122 -339q111 -143 261 -143q27 0 56 5q88 16 169 98q79 80 79 188q0 104 -34 196t-98.5 163.5t-160.5 100.5q-48 14 -104 14t-119 -14q-160 -41 -170 -240z" />
<glyph unicode="&#xf5;" horiz-adv-x="1449" d="M127 700q10 156 53 282t134.5 216t213.5 119q64 14 133 14q63 0 131 -12q140 -25 232 -84q131 -86 259 -332q115 -221 115 -395q0 -20 -1 -39q-14 -164 -140.5 -280.5t-290.5 -158.5q-109 -28 -223 -28q-58 0 -117 7q-175 22 -284 110q-154 123 -186 268q-31 125 -31 248 q0 33 2 65zM354 1554q14 14 45 49t44.5 47.5t40 31t55.5 21.5q12 1 26 1q19 0 41 -2q31 -4 57.5 -23.5t44 -40t53.5 -31.5q19 -6 41 -6q20 0 44 5q27 4 81 30.5t72 30.5q31 -22 45.5 -37.5t24.5 -45.5t-12 -58q-27 -10 -73 -33t-67.5 -31t-67.5 -18q-19 -4 -35 -4 q-22 0 -38 8q-49 12 -95 54t-85 42q-33 0 -58.5 -16.5t-47 -41t-29.5 -30.5q-27 8 -59 48t-48 50zM420 768q-1 -14 -1 -29q0 -182 122 -339q111 -143 261 -143q27 0 56 5q88 16 169 98q79 80 79 188q0 104 -34 196t-98.5 163.5t-160.5 100.5q-48 14 -104 14t-119 -14 q-160 -41 -170 -240z" />
<glyph unicode="&#xf6;" horiz-adv-x="1449" d="M127 700q-2 -32 -2 -65q0 -124 31 -248q33 -145 186 -268q109 -88 284 -110q59 -7 117 -7q114 0 223 28q165 42 290.5 158.5t140.5 280.5q1 19 1 39q0 175 -115 395q-128 246 -259 332q-92 59 -232 84q-67 12 -131 12q-69 0 -133 -14q-123 -29 -214 -119t-134 -216 t-53 -282zM420 768q10 199 170 240q63 14 119 14t104 -14q96 -29 160.5 -100.5t98.5 -164t34 -195.5q0 -107 -79 -188q-81 -82 -169 -98q-29 -5 -56 -5q-150 0 -261 143q-122 157 -122 339q0 15 1 29zM551 1685q57 0 91 -34.5t34 -94.5q0 -57 -34 -92t-83 -35q-55 0 -96 33 q-39 31 -39 89q0 134 127 134zM903 1685q59 0 92 -34.5t33 -94.5q0 -57 -33.5 -91.5t-83.5 -34.5q-55 0 -95 32q-38 31 -38 89q0 134 125 134z" />
<glyph unicode="&#xf7;" horiz-adv-x="1024" d="M169 805q-3 34 -3 60q0 30 4 48q69 13 250 14q45 0 98 -1q131 -2 210 -2t106 2q4 -16 14 -48t16 -54.5t6 -52.5t-12 -54q-106 -16 -210 -20q-39 -1 -86 -1q-80 0 -184 3q-167 5 -208 6q3 12 3 34q0 26 -4 66zM403 1036q-3 14 -2 28q0 62 56 96q42 26 86 26q27 0 56 -9 q75 -26 75 -104q-27 -74 -124 -90q-19 -3 -35 -3q-72 0 -112 56zM416 508q-4 15 -4 29q0 65 90 94q14 4 30 4q28 0 66 -11q64 -19 64 -74q0 -48 -51 -80q-43 -27 -91 -27q-13 0 -26 2q-64 10 -78 63z" />
<glyph unicode="&#xf8;" horiz-adv-x="1449" d="M124 772q26 166 112 305q82 133 206 198q121 63 247 62h8q130 -2 257 -57l138 197q14 -10 77.5 -62.5t90.5 -71.5q-16 -25 -34 -57.5t-36.5 -62l-44.5 -68.5q113 -125 157 -285q30 -107 29 -212q0 -51 -7 -102q-22 -155 -99 -290q-102 -186 -295 -241q-71 -20 -147 -21 q-129 0 -271 59l-133 -202q-29 14 -105.5 60t-95.5 56q47 59 127 197q-113 111 -160 271q-31 104 -30 211q0 58 9 116zM384 664q-2 -24 -2 -47q0 -135 69 -216q66 98 196.5 344t173.5 318q-18 16 -49 26.5t-76 11.5h-2q-44 0 -99 -36q-56 -37 -108 -109q-90 -124 -103 -292z M618 254q67 -29 132 -29q53 0 103 20q112 44 167 156q56 109 56 256v16q-3 157 -75 240q-37 -61 -176 -309t-207 -350z" />
<glyph unicode="&#xf9;" horiz-adv-x="1452" d="M150 562q41 -321 165 -394q96 -98 206 -140q65 -25 139 -25q50 0 104 11q133 29 262 140q12 -70 84 -81q20 -3 41 -3q52 0 103 20q73 29 104 64q-10 127 -14.5 351t-16.5 420.5t-51 366.5q-65 13 -147.5 13.5t-184.5 -13.5l6 -116q6 -134 7 -241q0 -201 -23 -304 q-56 -240 -247 -241q-69 0 -157 32q-61 86 -74 244q-12 137 -12 295v50q0 17 1 33q0 163 -19 248q-12 2 -113.5 12.5t-154.5 28.5q-27 -246 -27 -453q0 -172 19 -318zM557 1716q84 52 139 52q23 0 41 -9q133 -133 156 -286q-14 -6 -45 -26t-53 -28q-37 109 -117 176 q-29 25 -62.5 61.5t-58.5 59.5z" />
<glyph unicode="&#xfa;" horiz-adv-x="1452" d="M150 562q-19 146 -19 318q0 207 27 453q53 -18 154.5 -28.5t113.5 -12.5q19 -86 19 -248q0 -16 -1 -33v-50q0 -159 12 -295q13 -158 74 -244q97 -32 167 -32h4q71 1 119 39t77 95.5t43 137t17 163.5q2 42 2 86t-2 90q-3 92 -7 175q-4 80 -6 116q101 13 184 13.5 t148 -13.5q39 -170 51 -366.5t16.5 -420.5t14.5 -351q-31 -35 -104 -64q-52 -21 -103 -20q-20 0 -41 3q-72 11 -84 81q-129 -111 -262 -140q-54 -12 -104 -11q-73 0 -139 25q-110 42 -206 140q-124 73 -165 394zM557 1452q23 154 156 287q18 9 41 9q55 0 139 -52 q-25 -23 -58.5 -60t-62.5 -61q-80 -68 -117 -176q-23 8 -53.5 27.5t-44.5 25.5z" />
<glyph unicode="&#xfb;" horiz-adv-x="1452" d="M150 562q-19 146 -19 318q0 207 27 453q53 -18 154.5 -28.5t113.5 -12.5q19 -86 19 -248q0 -16 -1 -33v-50q0 -159 12 -295q13 -158 74 -244q97 -32 167 -32h4q71 1 119 39t77 95.5t43 137t17 163.5q2 42 2 86t-2 90q-3 92 -7 175q-4 80 -6 116q101 13 184 13.5 t148 -13.5q39 -170 51 -366.5t16.5 -420.5t14.5 -351q-31 -35 -104 -64q-52 -21 -103 -20q-20 0 -41 3q-72 11 -84 81q-129 -111 -262 -140q-54 -12 -104 -11q-73 0 -139 25q-110 42 -206 140q-124 73 -165 394zM362 1419q51 102 242 402q10 0 108 5q54 3 84 3q24 0 33 -2 q43 -57 148.5 -232.5t109.5 -181.5q-29 -5 -77 -5q-37 0 -84 3q-23 23 -50.5 70t-59.5 108.5t-46 85.5q-20 1 -37 2q-34 0 -55 -6q-27 -37 -79 -131t-81 -137q-31 2 -59 0q-10 -1 -19 -1l-39 3q-29 4 -39 14z" />
<glyph unicode="&#xfc;" horiz-adv-x="1452" d="M150 562q41 -321 165 -394q96 -98 206 -140q65 -25 139 -25q50 0 104 11q133 29 262 140q12 -70 84 -81q20 -3 41 -3q52 0 103 20q73 29 104 64q-10 127 -14.5 351t-16.5 420.5t-51 366.5q-65 13 -147.5 13.5t-184.5 -13.5l6 -116q6 -134 7 -241q0 -201 -23 -304 q-56 -240 -247 -241q-69 0 -157 32q-61 86 -74 244q-12 137 -12 295v50q0 17 1 33q0 163 -19 248q-12 2 -113.5 12.5t-154.5 28.5q-27 -246 -27 -453q0 -172 19 -318zM551 1686q57 0 91 -35t34 -95q0 -57 -34 -91.5t-83 -34.5q-55 0 -96 32q-39 31 -39 89q0 135 127 135z M903 1686q59 0 92 -35t33 -95q0 -57 -33.5 -91.5t-83.5 -34.5q-55 0 -95 32q-38 31 -38 89q0 135 125 135z" />
<glyph unicode="&#xfd;" horiz-adv-x="1251" d="M141 679q4 120 14.5 281.5t10.5 225.5q57 -10 164 -20q64 -6 100 -5q24 0 37 2q1 -12 1 -28q0 -72 -15 -224q-16 -160 -16 -300v-46q3 -160 57 -243q33 -40 117 -41q15 0 31 2q110 8 177 49q29 16 34 114q2 33 2 68q0 69 -7 144q-10 114 -20 252q-8 113 -7 179v27 q89 34 223 34q27 0 56 -1q25 -193 74 -873q5 -66 4 -126q0 -455 -275 -543q-84 -28 -206 -28q-41 0 -86 3q-179 12 -257 62q-80 51 -112.5 128.5t-34.5 221.5q49 5 73 5h7q23 -1 86 -13.5t86 -14.5q-2 -37 14 -61.5t41 -37.5t68 -19.5t77.5 -7.5t90.5 -1q86 2 128 97 q32 73 32 134q0 18 -3 36q-80 -80 -210 -96q-33 -4 -64 -3q-96 0 -189 34q-123 46 -188.5 134t-91.5 234q-23 126 -23 233q-1 16 0 32zM457 1391q23 154 155 286q18 9 41 9q55 0 140 -52q-25 -23 -59 -59.5t-62 -61.5q-80 -68 -117 -176q-23 8 -53.5 28t-44.5 26z" />
<glyph unicode="&#xfe;" horiz-adv-x="1024" d="M135 1501q16 1 32 1q25 0 51 -2q44 -3 94 -7l75 -6q16 -111 21 -379q23 0 70.5 -1t66 -2t55.5 -4t54.5 -8.5l47 -15.5t49 -23.5t43 -35t46.5 -47.5q89 -110 89 -297q0 -180 -81 -252q-37 -35 -93.5 -55.5t-91 -25.5t-121.5 -9t-110 -6q0 -29 1 -103v-46q0 -44 -1 -79 q-2 -51 -12 -90q-59 -9 -149 -9q-52 0 -113 3q-2 182 -11 711zM420 920q3 -28 3 -124v-52v-85q0 -78 1 -127q57 0 102 6.5t91.5 25t69.5 60.5q22 39 22 95q0 130 -77 170q-61 32 -173 31q-19 1 -39 0z" />
<glyph unicode="&#xff;" horiz-adv-x="1251" d="M141 679q-1 -16 0 -32q0 -107 23 -233q27 -145 92.5 -233.5t187.5 -134.5q92 -35 189 -34q32 0 64 3q130 15 210 96q3 -17 3 -36q0 -62 -32 -134q-42 -94 -128 -97q-55 0 -90 1t-78 7.5t-68 19.5t-41 37.5t-14 61.5q-23 2 -86.5 14.5t-85.5 13.5h-7q-24 0 -73 -5 q2 -143 34.5 -221t112.5 -129q78 -49 257 -62q45 -3 86 -3q122 0 206 28q275 89 275 543q0 60 -4 126q-49 680 -74 873q-29 1 -56 1q-134 0 -223 -34v-27q0 -66 7 -179q9 -138 20 -252q7 -76 7 -144q0 -34 -2 -68q-5 -98 -34 -114q-68 -41 -177 -49l-31 -2q-84 0 -117 41 q-53 84 -57 243v46q0 140 16 300q15 152 15 224q0 16 -1 28q-12 -2 -37 -2q-37 0 -100 5q-106 9 -164 20q0 -63 -10.5 -225t-14.5 -282zM451 1563q57 0 90.5 -35t33.5 -94q0 -57 -33.5 -92t-82.5 -35q-55 0 -97 32q-39 31 -39 89q1 135 128 135zM803 1563q59 0 92 -35 t33 -94q0 -57 -34 -92t-83 -35q-55 0 -95 32q-38 31 -38 89q0 135 125 135z" />
<glyph unicode="&#x152;" horiz-adv-x="1705" d="M131 788q0 315 146.5 501t404.5 210q15 2 34 2q39 0 95 -8q84 -12 154 -53q68 -6 309 -7q80 0 141 -1q122 0 166 2q0 -33 3 -100.5t5 -121.5q-125 -2 -432 -2q6 -29 7 -85q1 -28 1 -57.5t-1 -59.5q-1 -61 -1 -78q34 -1 77 -1q64 0 145.5 2t133.5 2q35 0 56 -1 q4 -49 4 -95q0 -91 -16 -165q-32 -2 -73 -2q-61 0 -140 4q-133 6 -197 6q-1 -14 -1 -47q0 -49 2 -141q1 -66 1 -111q0 -60 -2 -84h428q4 -39 4 -234q-127 -5 -417 -4h-212q-133 -59 -280 -59q-106 0 -189.5 22.5t-139.5 58.5t-97 96.5t-63.5 120.5t-35 148.5t-16.5 163 t-4 178.5zM395 756q14 -506 240 -508h6q243 0 242 476v54q-2 111 -7.5 177.5t-18.5 134t-35.5 102.5t-61.5 55q-35 19 -84 19h-10q-135 -8 -206 -156q-65 -136 -65 -322v-32z" />
<glyph unicode="&#x153;" horiz-adv-x="2260" d="M133 639q-1 19 -1 37q0 255 160 437q168 192 410 192h11q115 -2 196.5 -17.5t127.5 -45.5t68.5 -52.5t43 -58t27.5 -44.5q175 242 398 242h15q104 -4 198.5 -45t172.5 -119t122 -207q42 -123 42 -278v-14q-46 2 -103 2q-114 0 -272 -9q-204 -11 -361 -10h-51 q10 -170 107 -291q90 -113 218 -113q9 0 17 1q68 4 109 31.5t53 67.5t17 86q2 18 1 36q0 27 -4 53q44 10 111.5 10t157.5 -10q14 -62 14 -119q0 -135 -78 -246q-109 -157 -356 -157h-6q-162 2 -316.5 67.5t-205.5 170.5q-2 -4 -9 -15q-23 -43 -45 -70.5t-73.5 -70.5 t-136.5 -64q-71 -17 -162 -17q-18 0 -37 1q-135 6 -234.5 39t-176.5 104.5t-119 195.5t-50 300zM410 672q0 -155 82 -264q82 -111 232 -111h5q164 2 243 101q67 84 67 232q0 27 -3 56q-23 352 -338 352q-139 0 -213.5 -101.5t-74.5 -264.5zM1362 825l119 2q30 0 61 -1 q46 -1 93.5 -0.5t96.5 0.5q97 1 140 5q-4 106 -67.5 182.5t-176.5 78.5h-7q-117 0 -181 -62q-66 -64 -78 -205z" />
<glyph unicode="&#x178;" horiz-adv-x="1193" d="M55 1475q55 -125 232.5 -353.5t216.5 -298.5q4 -109 9 -388t11 -427q49 -10 111.5 -10t138.5 10q8 112 8 271q0 79 -2 170q-3 136 -3 229.5t3 144.5q20 45 173 289t184 375q-66 12 -148 13h-11q-74 0 -120 -13q-29 -80 -122 -269.5t-95 -195.5q-166 244 -301 469 q-10 0 -78 5q-38 3 -70 3q-26 0 -49 -2q-51 -4 -88 -22zM422 1841q57 0 91 -34.5t34 -94.5q0 -57 -34 -92t-83 -35q-55 0 -96 33q-39 31 -39 88q0 135 127 135zM774 1841q59 0 92 -34.5t33 -94.5q0 -57 -34 -92t-83 -35q-55 0 -95 33q-38 31 -38 88q0 135 125 135z" />
<glyph unicode="&#x2c6;" horiz-adv-x="937" d="M104 1092q51 102 242 401q10 0 108 5q54 3 84 3q24 0 33 -2q43 -57 148.5 -232t109.5 -182q-29 -5 -77 -4q-37 0 -84 2q-23 23 -50.5 70t-59.5 108.5t-46 86.5q-20 1 -38 1q-34 0 -54 -6q-27 -37 -79 -131t-81 -137q-31 2 -59 0q-10 -1 -19 0l-39 2q-29 5 -39 15z" />
<glyph unicode="&#x2dc;" horiz-adv-x="980" d="M160 1350q14 14 45 49t44 47t39.5 30.5t55.5 21.5q12 1 27 1q19 0 41 -2q31 -4 57.5 -23.5t43.5 -40t53 -31.5q19 -6 41 -6q20 0 44 5q27 4 81 30.5t73 30.5q31 -22 45 -37.5t24 -45.5q3 -9 4 -18q0 -20 -16 -40q-27 -10 -73 -32.5t-67.5 -31t-67.5 -18.5q-19 -4 -35 -4 q-22 0 -37 8q-49 12 -95.5 54t-85.5 42q-33 0 -58.5 -16t-47 -41t-29.5 -31q-27 8 -58.5 48.5t-47.5 50.5z" />
<glyph unicode="&#x2013;" horiz-adv-x="1153" d="M159 847q0 72 29 118q56 -5 206 -6q199 0 564 10q2 -4 10.5 -24.5t11.5 -30.5l10 -29q7 -20 9 -33.5l5 -33.5q1 -10 1 -19.5t-1 -19.5q-2 -19 -7 -38q-133 -23 -434 -25.5t-368 -8.5q-36 61 -36 140z" />
<glyph unicode="&#x2014;" horiz-adv-x="1622" d="M193 711q-3 35 -3.5 96.5t3.5 150.5q98 0 313 4.5t305 4.5q45 0 151.5 1t167 1t157.5 -3t190 -12v-237q-48 -11 -349 -11q-107 0 -247 2q-379 4 -568 3q-75 1 -120 0z" />
<glyph unicode="&#x2018;" horiz-adv-x="768" d="M244 1370q43 125 149 131h8q40 0 84 -18q-6 -14 -24.5 -47t-25.5 -50.5t-16 -52.5t3 -53q80 -4 112 -56q20 -32 19 -69q0 -22 -7 -46q-19 -62 -73 -97q-20 -3 -38 -3q-122 0 -179 117q-31 66 -31 135q0 53 19 109z" />
<glyph unicode="&#x2019;" horiz-adv-x="724" d="M212 1404q19 62 73 97q20 3 38 3q122 0 179 -118q31 -66 31 -134q0 -54 -19 -109q-43 -125 -152 -131h-7q-40 0 -85 18q6 12 25.5 46t27 50.5t16.5 52t-3 54.5q-80 4 -112 56q-20 32 -19 69q0 22 7 46z" />
<glyph unicode="&#x201a;" horiz-adv-x="638" d="M146 173q19 62 73 97q20 3 39 3q122 0 178 -117q31 -66 31 -135q0 -54 -18 -109q-43 -125 -152 -131h-8q-40 0 -84 18q6 12 25.5 46t26.5 50.5t16.5 52.5t-3.5 54q-80 4 -111 56q-20 32 -20 69q0 22 7 46z" />
<glyph unicode="&#x201c;" horiz-adv-x="1110" d="M221 1370q41 125 150 131h8q40 0 84 -18q-6 -14 -24.5 -46t-27 -50.5t-16.5 -53.5t4 -53q78 -4 110 -56q20 -33 20 -71q0 -22 -7 -44q-18 -62 -71 -97q-20 -3 -39 -3q-122 0 -179 117q-31 66 -31 135q0 53 19 109zM610 1370q43 125 152 131h8q40 0 84 -18l-19 -37 l-22 -40q-8 -15 -18.5 -41t-9.5 -42t6 -43q78 -4 109 -56q20 -33 20 -71q0 -22 -7 -44q-18 -62 -71 -97q-20 -3 -39 -3q-122 0 -178 117q-33 67 -33 137q0 53 18 107z" />
<glyph unicode="&#x201d;" horiz-adv-x="1107" d="M209 1400q18 62 72 97q20 3 38 3q122 0 179 -118q31 -66 31 -134q0 -54 -19 -109q-41 -125 -150 -131q-4 0 -7 -1q-40 0 -85 19q6 14 24.5 46t27 50.5t16.5 53t-4 53.5q-78 4 -110 56q-20 33 -20 70q0 22 7 45zM600 1400q18 62 72 97q20 3 38 3q122 0 179 -118 q31 -66 31 -134q0 -54 -19 -109q-41 -125 -149 -131q-4 0 -8 -1q-40 0 -85 19q6 14 24.5 47t26 50.5t16.5 52t-3 53.5q-78 4 -110 56q-20 33 -20 70q0 22 7 45z" />
<glyph unicode="&#x201e;" horiz-adv-x="1067" d="M166 177q18 62 72 97q20 3 38 3q122 0 179 -117q31 -66 31 -135q0 -54 -19 -109q-41 -125 -150 -131h-7q-40 0 -85 18q6 14 24.5 46t27 50.5t16.5 53.5t-4 53q-78 4 -110 56q-20 33 -20 71q0 21 7 44zM557 177q18 62 72 97q20 3 38 3q122 0 179 -117q31 -66 31 -135 q0 -54 -19 -109q-41 -125 -149 -131h-8q-40 0 -85 18q6 14 24.5 47t26 50.5t16.5 52.5t-3 53q-78 4 -110 56q-20 33 -20 71q0 21 7 44z" />
<glyph unicode="&#x2022;" horiz-adv-x="638" d="M198 1030q42 47 138 49h9q89 0 119 -40q32 -42 32 -132q0 -78 -48.5 -126t-128.5 -50h-7q-75 0 -118 42t-43 117q1 88 47 140z" />
<glyph unicode="&#x2026;" horiz-adv-x="1662" d="M182 96q-1 12 -1 23q0 94 93 131q40 15 80 15q54 0 107 -29q83 -45 82 -131q0 -21 -4 -44q-53 -60 -154 -60q-16 0 -34 2q-126 11 -169 93zM633 96q-1 12 -1 23q0 94 95 131q40 15 80 15q54 0 106 -29q81 -44 81 -130q0 -21 -5 -45q-53 -60 -153 -59q-16 0 -34 1 q-126 11 -169 93zM1102 96q-1 12 -1 23q0 94 95 131q40 15 80 15q54 0 106 -29q81 -44 81 -130q0 -21 -5 -45q-51 -60 -151 -60q-16 0 -34 2q-126 11 -171 93z" />
<glyph unicode="&#x2039;" horiz-adv-x="1236" d="M133 893q164 199 483.5 423t495.5 259q6 -33 6 -275l-100 -67l-108 -73l-97 -67q-66 -46 -104 -76l-93 -73q-53 -43 -96 -84l-84 -84q86 -135 327 -331.5t308 -227.5q23 -172 -8 -287q-129 55 -453.5 303t-466.5 416q-6 33 -7 132.5t-3 111.5z" />
<glyph unicode="&#x203a;" horiz-adv-x="1280" d="M209 1575q102 -29 303 -172t403.5 -307t237.5 -187q12 -49 12 -176q0 -48 -2 -106q-43 -43 -253 -224.5t-339 -281.5q-106 -82 -348 -191q-2 21 -2 53q0 40 3 96q5 101 5 116q29 35 309.5 268t346.5 317q-137 125 -332 274.5t-336 231.5v18q1 59 -8 271z" />
<glyph unicode="&#x20ac;" d="M133 838q12 147 14 166q20 1 54 1q16 0 35.5 -0.5t39.5 -0.5q40 0 82 2q4 18 11.5 67t12.5 69.5t17.5 59.5t32 76t49.5 82q49 72 166 107q110 34 232 34h14q129 -2 260 -18q31 -41 34 -103q1 -12 0 -24q0 -48 -9 -88q-35 -4 -198 -4t-218 -13q-109 -45 -162 -245 q55 6 168 7h43q82 0 131 -3q33 -57 40 -90q2 -9 2 -22q0 -31 -13 -83q-41 -5 -98 -5q-51 0 -116 4q-111 8 -153 8q-9 0 -14 -1q-2 -6 -2 -21q0 -31 8 -100q41 -8 122 -7h52q121 3 170 16q23 -47 23 -139q0 -40 -5 -89q-58 -1 -108 -1q-183 0 -250 18q-1 -6 -1 -12 q0 -36 22 -82q25 -52 79 -93q70 -52 397 -52q35 0 72 1h35q15 -40 16 -86q0 -36 -7 -87q-7 -58 -7 -81q-131 -4 -226 -4q-153 0 -217 10q-103 16 -251 119q-68 47 -114 130t-55 121l-26 114q-10 0 -53 -1q-11 0 -20 -1q-30 0 -51 3q-29 3 -39 13q-4 43 -5 79q0 50 9 87 q32 10 81 10q31 0 68 -4v143q-11 4 -42 4q-21 0 -51 -2q-17 -1 -30 -1q-46 1 -51 12z" />
<glyph unicode="&#x2122;" horiz-adv-x="1452" d="M233 1487q19 1 66.5 1t121.5 -1t129 -1t91 1q4 -39 4 -73.5t-4 -63.5q-20 0 -65.5 -2t-71.5 -2q3 -49 2 -92q0 -56 -4 -99q-27 -4 -64 -4h-47q-4 31 -5 101.5t-3 93.5q-20 0 -72 -3q-26 -1 -44.5 -1t-30.5 1q1 12 1 31t-1 43q-3 50 -3 70zM709 1491q27 4 110 4 q41 -33 182 -195q121 133 158 195q27 2 64 3t63 3q16 -101 16 -243q0 -43 -2 -89q-41 -7 -74 -7q-23 0 -42 3q-6 47 -7 108.5t-3 74.5q-18 -29 -40 -59l-49 -64l-43 -56h-42q-30 0 -37 2q-96 131 -140 181q0 -29 2 -75t2 -66.5t-2 -53.5q-31 -6 -61 -6l-49 4q2 28 2 68 q0 50 -3 117q-5 122 -5 151z" />
<glyph unicode="&#xe000;" horiz-adv-x="1235" d="M0 1235h1235v-1235h-1235v1235z" />
<glyph unicode="&#xfb01;" horiz-adv-x="1536" d="M140 617q3 101 42 153q6 0 209 6q-2 56 -1 114q0 243 28 503q6 72 147 96q81 14 164 14q62 0 126 -8q148 -18 183 -53q17 -81 18 -133q0 -33 -7 -54q-18 1 -56 2q-75 0 -225 -6q-29 -2 -49.5 -14t-30.5 -39t-16 -53.5t-6 -74.5t1 -83t4 -98l5 -103q343 -23 563 -23 q73 0 133 3q-1 -30 -1 -67q0 -121 10 -321q13 -261 14 -358q-84 -2 -149 -1q-97 0 -152 4q-12 117 -17 469q-256 0 -364 -5q2 -74 19 -245q14 -139 14 -206q0 -16 -1 -28q-10 1 -23 1q-33 0 -84 -4q-73 -5 -131 -5t-87 16q-6 39 -7 67t-1 55v116q0 88 -4 207q-11 0 -27 -1 q-62 0 -199 7q-42 46 -42 138v12z" />
<glyph unicode="&#xfb02;" horiz-adv-x="1576" d="M110 614q3 100 42 152q35 4 105.5 4t100.5 2q-2 52 -1 108q0 223 26 502q8 70 168 98q131 23 259 22q28 0 56 -1l156 -6q147 -2 364 -2q29 -119 38 -641q2 -115 2 -220q0 -373 -25 -624q-41 -8 -116 -8q-64 0 -152 6q-7 7 -7 79q0 36 1 88q5 157 6 179 q-4 164 -16.5 448.5t-16.5 440.5q-127 3 -218.5 3t-148.5 -3q-29 0 -49 -12t-31.5 -40t-17.5 -53.5t-6 -73.5t1 -83t4 -98.5t5 -100.5q25 -2 96.5 -5t130 -7t105.5 -12q33 -49 45 -143q3 -25 3 -45q0 -54 -24 -70q-20 -10 -72 -13q-26 -1 -59 -1t-72.5 1t-68.5 1t-47 -1 q2 -63 19 -237q14 -141 14 -210v-28q-10 1 -23 1q-32 0 -84 -4q-60 -4 -109 -4h-20q-57 1 -86 15q-6 41 -8 68t-2 54v115q0 87 -4 204q-10 0 -26 -1q-60 0 -195 7q-42 46 -43 137q1 6 1 12z" />
<glyph unicode="&#xfb03;" horiz-adv-x="3241" d="M159 620q3 101 42 152q6 0 209 6q-2 56 -2 114q0 243 28 503q6 72 148 96q81 14 164 14q62 0 125 -8q148 -18 184 -53q18 -75 18 -127q0 -35 -8 -60q-19 1 -56 2q-75 0 -223 -6q-29 -2 -49 -14t-31.5 -38.5t-17.5 -53.5t-6 -76t1 -83t4 -98.5t5 -101.5q23 -2 96.5 -5 t132 -8t107.5 -13q33 -49 44 -144q3 -24 3 -43q0 -56 -24 -71q-20 -10 -80 -14q-36 -2 -72 -1h-49q-31 1 -61 1t-60 -1q2 -74 20 -245q14 -139 14 -206q0 -16 -1 -28q-10 1 -23 1q-33 0 -85 -4q-73 -5 -131 -5t-87 16q-6 39 -7 67t-1 55v116q0 88 -4 207q-11 0 -26 -1 q-62 0 -199 7q-42 46 -42 138v13zM1410 620q3 101 42 152q6 0 209 6q-2 56 -2 114q0 243 29 503q6 72 147 96q81 14 164 14q62 0 126 -8q148 -18 183 -53q18 -75 19 -127q0 -35 -9 -60q-19 1 -56 2q-75 0 -222 -6q-29 -2 -49.5 -14t-31.5 -38.5t-17.5 -53.5t-6.5 -76t1 -83 t4.5 -98.5l5.5 -101.5q23 -2 96.5 -5t131.5 -8t107 -13q33 -49 45 -144q3 -24 2 -43q0 -56 -24 -71q-20 -10 -80 -14q-36 -2 -72 -1h-49q-31 1 -61 1t-60 -1q2 -74 20 -245q14 -139 14 -206q0 -16 -1 -28q-10 1 -23 1q-33 0 -84 -4q-73 -5 -131.5 -5t-86.5 16q-6 39 -7.5 67 t-1.5 55v116q0 88 -4 207q-11 0 -26 -1q-62 0 -199 7q-42 46 -42 138v13zM2673 954q12 -102 24.5 -317t27.5 -385t44 -244q27 -6 92 -6q24 0 54 1q110 3 161 24q0 84 -6 438q-4 213 -4 346q0 89 2 143q-43 -2 -103.5 -6t-84 -5t-62.5 -1t-70.5 3t-74.5 9zM2710 1255 q-4 37 -5 69q0 106 48 142t152 36q32 0 69 -3q88 -69 88 -152q0 -31 -13 -65q-33 -88 -122 -123q-33 -13 -64 -13q-72 0 -129 73q-14 16 -24 36z" />
<glyph unicode="&#xfb04;" horiz-adv-x="3270" d="M159 620q3 101 42 152q6 0 209 6q-2 56 -2 114q0 243 28 503q6 72 148 96q81 14 164 14q62 0 125 -8q148 -18 184 -53q18 -75 18 -127q0 -35 -8 -60q-19 1 -56 2q-75 0 -223 -6q-29 -2 -49 -14t-31.5 -38.5t-17.5 -53.5t-6 -76t1 -83t4 -98.5t5 -101.5q23 -2 96.5 -5 t132 -8t107.5 -13q33 -49 44 -144q3 -24 3 -43q0 -56 -24 -71q-20 -10 -80 -14q-36 -2 -72 -1h-49q-31 1 -61 1t-60 -1q2 -74 20 -245q14 -139 14 -206q0 -16 -1 -28q-10 1 -23 1q-33 0 -85 -4q-73 -5 -131 -5t-87 16q-6 39 -7 67t-1 55v116q0 88 -4 207q-11 0 -26 -1 q-62 0 -199 7q-42 46 -42 138v13zM1410 620q3 101 42 152q6 0 209 6q-2 56 -2 114q0 243 29 503q6 72 147 96q81 14 164 14q62 0 126 -8q148 -18 183 -53q18 -75 19 -127q0 -35 -9 -60q-19 1 -56 2q-75 0 -222 -6q-29 -2 -49.5 -14t-31.5 -38.5t-17.5 -53.5t-6.5 -76t1 -83 t4.5 -98.5l5.5 -101.5q23 -2 96.5 -5t131.5 -8t107 -13q33 -49 45 -144q3 -24 2 -43q0 -56 -24 -71q-20 -10 -80 -14q-36 -2 -72 -1h-49q-31 1 -61 1t-60 -1q2 -74 20 -245q14 -139 14 -206q0 -16 -1 -28q-10 1 -23 1q-33 0 -84 -4q-73 -5 -131.5 -5t-86.5 16q-6 39 -7.5 67 t-1.5 55v116q0 88 -4 207q-11 0 -26 -1q-62 0 -199 7q-42 46 -42 138v13zM2701 1468q63 34 129 35q13 0 27 -2q80 -8 149 -53q27 -113 33 -607q1 -82 1 -160q0 -386 -25 -644q-23 -4 -66 -15.5t-81 -16.5q-27 -4 -55 -4q-11 0 -24 1q-27 33 -32 76q-4 29 -4 65q0 18 1 38 q2 36 1 59v24q-53 750 -54 1174v30z" />
</font>
</defs>
</svg>
