<svg xmlns="http://www.w3.org/2000/svg"><defs><font horiz-adv-x="1337"><font-face units-per-em="2048" ascent="1536" descent="-512"/><glyph horiz-adv-x="1024"/><glyph horiz-adv-x="1024"/><glyph horiz-adv-x="1024"/><glyph unicode="!" horiz-adv-x="681" d="M203 1493q20 0 73.5 5t92.5 5 88-8q-2-101-2-187t2-157q8-351 8-555 0-102-2-168-15-1-30-1-94 0-154 24-33 199-51.5 587.5T203 1493zm76-1280q39 41 96 44h10q51 0 92-27 45-30 53-76 3-18 4-34 0-74-71-106-32-14-63-13-42 0-81 26-56 38-56 106 1 36 16 80z"/><glyph unicode="&quot;" horiz-adv-x="724" d="M41 1497q15-2 52-2 27 0 67 1 55 2 90 2 23 0 37-1 7-20 7-88 0-45-3-112-8-167-27-246-48-17-123-17-27 0-59 2-14 99-41 461zm422-2q57 1 101 1 88 0 124-5-2-37-3-138.5t-6-178-17-138.5q-62-8-106-8t-69 8q-16 183-24 459z"/><glyph unicode="#" horiz-adv-x="1748" d="M180 412q4 29 17 91l18 93q102-8 168-8 47 0 76 4 59 268 59 364-72-14-155-14-70 0-148 10 4 29 18.5 80t18.5 74q31 6 64.5 8t60 2 83-1 97.5-1q18 201 57 379 53 5 112 5t124-5q-4-67-23.5-183T801 1122q45-9 134-9 30 0 65 1 70 2 117 2t71-2q4 63 33 207l32 164q34 2 70 2 26 0 53-1 63-3 97-26-6-20-13.5-131.5T1425 1133q18 0 53-1t52.5-1 44.5-2.5 41-7.5l33-11q18-6 29.5-17.5t19.5-27.5 8-69.5-12-84.5q-18-14-59-16-11-1-23-1-29 0-58 4-41 5-95 11-41 5-70 5-10 0-19-1 4-27-39-370 70-10 324-11-20-102-31-169-53-14-96-14.5t-125 7-115 7.5q-16-211-63-347-23-10-48-14-20-3-37-3h-7q-18 1-55.5 4T1016 6q31 229 57 346-78 10-240 23-89 7-135 6-38 0-45-4-43-276-67-357-7 0-14 1l-76-10Q455 1 430 1h-4q-25 1-55 26 27 82 49 360-35-8-73-8-77 0-167 33zm522 170q25-12 176.5-12.5T1094 563q-2 14 10 81l28 154q15 87 19 136-9-1-34-2-45 0-140 5-81 4-137 4-48 0-78-3-3-45-60-356z"/><glyph unicode="$" horiz-adv-x="1193" d="M242 944l-2 36q0 248 241 363 0 131 11 156 23 0 54 3 19 2 35 2 11 0 21-1 25-2 53-14 18-16 19-123 119-20 176-79.5t72-211.5q-38-11-139-11-29 0-62 1-8 51-17.5 78.5T663 1193q-22 15-53 15-15 0-32-4-144-23-145-156 0-49 20-112 16-51 111-90l205-80q110-41 149-86 51-61 66-167 5-37 5-72 0-66-18-128-16-55-55-89t-81-46-118-28q-14-2-23-5-12-6-15-22.5t-1-38-4-47.5Q651 4 594 1h-18q-45 0-72 13-14 125-12 140-189 83-190 283 0 32 5 67 35 12 187 26 10-12 11-53t15-65q43-68 112-80 15-3 29-3 50 0 88 33 38 34 38 90 0 14-3 29-8 49-83.5 97.5t-170 84T428 705q-12 8-49 29.5T326.5 768t-38 36.5T255 863t-13 81z"/><glyph unicode="%" horiz-adv-x="1452" d="M256 1303q-1 6-1 13 0 27 12 67 15 52 59 77 53 28 107 28l20-1q63-6 112-45t53-86q1-7 1-13 0-53-46-95-51-46-116-59-21-4-41-4-44 0-86 19-62 29-74 99zM430 23q18-18 49-22 12-1 25-1 23 0 51 3 45 5 57 5 68 170 114 299l107 313 91 275 105 288q85 230 108 302-77 16-155 16-23 0-46-2L653 725q-37-100-116.5-348T430 23zm551 51q-15 55-15 107 0 61 20 119 38 108 120 120 12 2 24 2 54 0 100-38 56-46 64-105 3-16 3-32 0-59-36-118-46-74-120-94-19-5-39-5-57 0-121 44z"/><glyph unicode="&" horiz-adv-x="1449" d="M186 1206q0 135 94.5 209t198.5 82q44 2 85 2 139 0 245-26 12-4 22.5-13.5t17.5-27 12-34 8-44 5.5-48 2.5-55 1-55 1-57.5v-56q-61-10-215-22-14 47-21.5 117.5t-24 95T547 1298q-109-4-127-57-22-69-22-159 0-71 14-156 6-47 45-72t86-35 53-14q16-53 16-103 0-31-6-61-129-23-168-72-35-44-35-147v-23q4-117 50.5-165T602 186q150 0 214.5 22.5T885 285q7 102 7 169t-7 99q-10 45-43 71-30 24-71 23h-7v197q25 2 79 5t87 6 68.5 13.5T1049 895q16 18 22 38.5t6 35-5 41-5 43.5q49 9 98 8 43 0 84-6 9-50 10-85 0-32-7-90-5-48-5-55 0-125-227-133 41-41 61-94 20-51 20-135 0-89-5-136-4-38-19-155-6-41-26.5-72.5t-51-49-71.5-30T841 5t-98-5q-34-1-68-1h-70q-35 0-68-1h-15Q203-2 197 266q-2 104-6 183v12q0 71 31 137 34 72 114 129-106 68-128 140.5T186 1206z"/><glyph unicode="'" horiz-adv-x="598" d="M188 1499q18 0 106 3 37 1 64 2 36 0 54-3 1-38 1-76 0-200-28-385-49-9-91-8-47 0-85 10 1 20 1 46 0 71-8 190-12 162-14 221z"/><glyph unicode="(" horiz-adv-x="808" d="M199 1090q8 201 40.5 297T342 1532q25 18 80 25.5t120.5 10.5 86.5 7q0-18 2-68 1-33 1-60v-27q-1-38-5-66-80-12-115-35t-59-82q-15-89-16-226v-18q1-150 8.5-394.5T453 313q-2-104 41-132.5T645 152q4-65 4-115 0-69-8-107-162 2-256 33T244 98q-33 72-42 441-6 221-6 375 1 103 3 176z"/><glyph unicode=")" horiz-adv-x="854" d="M201 113q178 0 190 170 11 109 11 429 0 54-1 113-2 416-24 469-20 49-59 64-33 13-92 12h-17q-2 12-2 40.5t2 72.5q4 88 4 96h61q10 0 37-2t41.5-5 40-10.5 43-17.5 38-25.5T510 1483q49-59 72.5-155.5T609 1162q2-41 2-110 0-46-1-104-2-145-2-198 2-100 2-187 0-432-43-534-29-72-102-91-61-16-193-17-28 0-59 1-8 45-10 115t-2 76z"/><glyph unicode="*" horiz-adv-x="1064" d="M147 1352q55 84 103 86l80-71q66-58 96-75 10 68 10 201 25 5 61.5 5t84.5-5q13-47 13-98 0-43-9-88 76 20 180 116 10 2 21.5-1t25.5-11 25-15l27-20 24-16q-51-61-139-141t-111-103q35-33 74-60.5t89-57 81-52.5q-12-14-26.5-40.5t-30-45T786 829q-29 18-87 72.5T596 967q-8-23-10-107t-17-106q-10 1-22 1-20 0-44-4-16-3-27-3-16 0-21 6-4 25-7.5 101.5T436 961q-2-2-64.5-59.5T260 815q-20 2-49 37t-43 66q25 29 107.5 95T387 1126q-138 124-240 226z"/><glyph unicode="+" horiz-adv-x="1110" d="M154 861q-1 13-1 36.5t1 56.5q35 12 83 17.5t117.5 6.5 94.5 3q-33 156-33 238 68 25 139.5 24.5T702 1219q-2-19-2-56 0-27 1-64 2-52 2-84 0-21-1-34 53-2 289-6 21-73 21-162 0-50-6-104-29 0-111-2-55-1-94-2-20 0-35 1-47 1-74 9 16-169 16-251 0-25-1-42-45-25-115-32-19-2-39-2-49 0-94 13-16 70-21 299-34-3-67-3-104 0-199 30-2 23-9 65.5t-9 68.5z"/><glyph unicode="," horiz-adv-x="727" d="M211 173q18 62 72 97 21 3 40 3 122 0 179-121 31-66 31-134 0-53-19-108-43-125-152-131h-7q-40 0-85 18 6 12 20.5 37t21.5 40 17.5 42 9.5 43-5 43q-78 4-110 56-20 33-20 71 0 21 7 44z"/><glyph unicode="-" horiz-adv-x="1193" d="M202 847q0 72 29 118 56-5 206-6 199 0 564 10 2-4 10.5-24.5T1023 914l10-29q7-20 9-33.5l5-33.5q1-10 1-19.5t-1-19.5q-2-19-7-38-133-23-434-25.5T238 707q-36 61-36 140z"/><glyph unicode="." horiz-adv-x="638" d="M166 96q-1 12-1 23 0 94 95 131 40 15 80 15 54 0 106-29 81-44 81-130 0-21-5-45Q469 1 369 2q-16 0-34 1-126 11-169 93z"/><glyph unicode="/" horiz-adv-x="1110" d="M152 12l274 712q195 497 291 767 39 8 82 9h22q35 0 79-2 58-3 87-3-49-178-260-730T414 8q-59-8-141-8T152 12z"/><glyph unicode="0" d="M176 676q-2 49-2 96 0 264 78 449 92 217 307 272 31 11 67 11 26 0 54-6 68-13 138.5-40.5t140-90 125-139.5 91-188.5T1217 799q2-54 2-104 0-91-8-169-11-119-28.5-186.5t-52-122.5-56-74.5T1014 92Q916 12 799 1q-21-2-41-2-94 0-180 43-104 52-193.5 143t-146 221.5T176 676zm266-6q20-164 117-275 91-105 195-105 6 0 12 1 106 6 172 143 51 107 51 224 0 33-4 67-31 236-118 374-82 131-201 130h-15q-82-4-137-99.5T443 909q-8-65-8-126 0-58 7-113z"/><glyph unicode="1" horiz-adv-x="1251" d="M137 1069q43 74 95.5 148.5t89 134T389 1487q39 0 125 7t149.5 7 112.5-14q2-76 19-504 10-263 10-459 0-122-4-217 28-7 78-7 34 0 77 3 72 5 117 6 22 0 37-2 12-27 12-102 0-16-1-34-1-34-1-62 0-55 4-80Q770 9 205 0q-33 0-36 52-1 11-1 24 0 45 9 103 11 75 9 95 87-8 160-8 109 0 186 19 3 65 4 196 0 110-2 267-4 246-4 359v71q-14-8-28-20l-25-19q-10-8-24.5-23.5t-20.5-23l-21-27.5-20-26q-4-5-20.5-28.5T352 985h-16q-70 0-106 16-40 19-93 68z"/><glyph unicode="2" d="M236 215q111 27 256 172t177.5 206.5T731 736t50 179q12 53 12 103 0 42-9 82-18 86-82 129-8 1-16 0-86 0-130-60-48-66-71-190-56-7-95-7-16 0-29 1-46 4-115 26 23 362 254 463 76 31 173 37 19 1 38 1 74 0 133-19 123-45 167-252 27-129 27-256 0-77-10-154-18-154-117.5-307.5T682 256q23 2 155 10t178 8 161-4q33-41 37-124 1-15 1-29 0-64-18-113-96-4-237-4-94 0-208 2-143 2-265 2T262 2q-14 16-19 53t-5 90.5-2 69.5z"/><glyph unicode="3" horiz-adv-x="1253" d="M213 1282l35 47q29 39 39 50.5t38.5 40 52 39.5 60.5 23.5 80 16.5q24 2 48 2 110 0 205-47 116-57 157-143 24-70 23.5-137T928 1042q-47-129-162-182 223-57 291-364 14-68 14-128 0-154-96-252Q862 1 671 0q-34 0-71 4-123 12-223.5 96T236 322q45 51 180 98 80-127 166-150 34-9 63-8 76 0 129 55 47 50 48 122 0 40-15 85-12 37-30.5 64.5t-45 43-51.5 26-66 12.5-68 3q-14 1-33.5.5T468 673q-50-1-77-1-13 64-13 126 0 28 3 56 156 2 283 145 52 59 52 154 0 87-38 107-35 23-75 24-9 0-17 1-29 0-48-6-26-7-65-38t-50-41-44-47q-8-6-10-10-33 6-56.5 17t-43 35-28 37-28.5 50z"/><glyph unicode="4" horiz-adv-x="1193" d="M119 926q289 422 409 555 27 10 75 15t85 5 97.5-1 74.5-1q4-45 9-227t20-293q57 2 106 2 73 0 125-4 16-20 25.5-41t11.5-48q1-18 1-33v-13q-1-18-5-58.5t-6-58.5q-102-10-275-12 0-35 5.5-143.5T885 386q1-21 0-45 0-60-3-138-5-109-20-197-8 1-18 1-31 0-83-5-30-3-55-3-33 0-55 5-14 96-16 226-1 43-1 89 0 91 3 191t3 161q0 31-1 52-190-14-322-14-112 0-184 10-2 20-5 94t-9 113zm272 28q27 1 58 2 15 0 30-1 47-1 108.5-3t65.5-2q2 9 2 36 0 72-16 274-35 0-73-43t-101.5-146T391 954z"/><glyph unicode="5" horiz-adv-x="1392" d="M283 1489h42q110 0 346 7 173 6 287 6 77 0 127-3 16-57 22-81 4-17 4-43 0-11-1-23-2-43-18-84-58-6-152-7-56 0-125 3-79 3-146 2-89 0-157-4 10-88 10-168 130 61 222 60 13 0 26-1 98-10 219-96 119-84 164-290 24-109 24-217 0-96-19-192-40-203-148-282Q913-1 744-1q-20 0-42 1-199 10-301 123-63 66-83 176-15 84-14 202 0 37 1 79 35 0 93.5 8t85.5 10h10q26 0 65-8v-65q0-36 2-69.5t15.5-74.5 39.5-80q52-66 117-66 11 0 22 2 77 13 144 95 40 64 40 161 0 36-5 76-20 150-82 262-37 68-102 94-30 12-60 11l-72-16q-66-31-96-113-33-4-111.5-7T297 793q-26 351-26 531 1 121 12 165z"/><glyph unicode="6" horiz-adv-x="1308" d="M197 600q-2 38-2 75 0 205 48 394 56 223 154 311 132 120 341 121 107 0 235-33 23-62 23-143 0-43-7-92-43 3-84 2-186 0-313-53-63-27-110-115-42-81-42-160v-14q100 83 239 83 40 0 83-7 125-20 228.5-115.5T1114 639q8-48 8-96 0-155-86-309Q923 32 764 6q-40-7-81-6-97 0-193 38-136 54-201 171-82 145-92 391zm237-57q10-158 98-237 68-61 159-61 26 0 52 5 76 14 124 83.5t48 158T870 668q-47 80-152 95-21 3-42 3-82 0-152-49-88-61-90-174z"/><glyph unicode="7" horiz-adv-x="1222" d="M180 1374.5q0 14.5 1 33.5t4 36.5 10 36.5q315 19 510 19 98 0 165-5 168-14 283-49 2-10 2-22 0-27-10-62-14-49-42-106.5t-32-71.5Q850 549 707 20L634 3q-12-3-30-3-14 0-32 2-40 4-74 23 2 66 10 140.5T539 342l35 165q13 62 52 193l48 167 54 182q44 145 44 147-61 25-174 25-56 0-126-7-85-8-148-7-90 0-134 16 0 10-3 37.5t-4 40-2 36-1 38z"/><glyph unicode="8" horiz-adv-x="1335" d="M230 1149q11 90 36 151 29 72 137.5 135.5T616 1501h17q139 0 239-66 106-71 156-208 20-54 20-106v-14q-3-58-11.5-85T997 937l-34-67q86-31 140-79t78.5-113.5T1213 549q5-40 5-91 0-29-1-61-4-70-26-132t-68-121.5T991 46 788 2q-37-2-70-2-357 0-468 233-34 79-34 170 0 69 20 145 45 175 143 269-92 35-126 138-25 78-25 148-1 23 2 46zm308-888q95-62 183-64 86 0 177 64.5T991 438v9q0 133-64 213-65 81-217 81h-8q-117-2-190-82-72-78-72-207 1-127 98-191zm-92 812q59-145 215-145 160 0 187 213 1 7 1 13 0 60-68 97-65 36-137 36-11 0-21-1-78-6-140-79-44-52-44-98 0-18 7-36z"/><glyph unicode="9" horiz-adv-x="1196" d="M126 1052q-1 14-1 27 0 76 33 164 49 117 158.5 179.5T563 1499q39 4 74 4 122 0 189-45 87-57 102-192 6-53 6-241.5t4-472.5 18-527Q874 2 702 2q-10 150-13 275.5t-5 265-4 233.5q-79-26-159-25-16 0-33 1-97 6-172.5 44t-129 103.5T126 1052zm222 94q-3-17-3-33 0-54 32-100 41-60 127-65h19q117 0 152 70 20 39 20 110 0 65-17 156-29 38-95 38-12 0-25-1-85-8-144-57-54-45-66-118z"/><glyph unicode=":" horiz-adv-x="727" d="M240 123q-3 18-3 33 0 63 47 91 32 18 69 18 32 0 69-13 80-29 127-96 2-14 2-26 0-22-7-39-11-26-34-51.5T479 2q-20-2-39-2-78 0-129 28-63 34-71 95zm0 405q-12 48-13 87 0 90 68 124 29 14 58 15 42 0 85-29 53-35 60-92 1-10 1-19 0-83-83-122-32-15-64-16-57 0-112 52z"/><glyph unicode=";" horiz-adv-x="808" d="M252 174q8 41 57 66 33 18 78 18 34 0 75-11 93-26 124-87 28-57 27-127 0-13-1-27-6-86-45-147.5T465-230q-23-10-49-11-44 0-94 30 10 31 40.5 60.5T414-86q16 27 15 64 0 11-1 24-47 2-91 30.5T268 97q-18 27-18 57 0 10 2 20zm8 391q-5 24-5 46 0 41 18 70 28 44 77 55 36 8 75 9 14 0 29-2 54-4 97-22 9-28 9-55 0-33-14-62-26-53-74-77-37-18-82-18-14 0-28 2-61 7-102 54z"/><glyph unicode="<" horiz-adv-x="1110" d="M131 866q59 49 184 126t154 98q63 45 133 87t166 94l150 83q20-171 20-249 0-24-2-40-61-23-120.5-49.5t-99.5-46T604 912l-121-62 211.5-148.5L934 530q0-31 3-69l7-93q4-54 6-92-264 145-454 285L358 664q-43 33-102 84.5T131 866z"/><glyph unicode="=" horiz-adv-x="1110" d="M180 1167q82 8 201 9 179 0 442-19 15-55 15-183v-61q-65 6-158 6-74 0-166-4-138-5-235-5-48 0-86 1-14 45-14 167-1 40 1 89zm33-665q232-28 429-28 137 0 257 13 0 172-33 267-66 10-205 10-60 0-134-2-122-3-200.5-3T213 762q-9-88-9-153t9-107z"/><glyph unicode=">" horiz-adv-x="1107" d="M166 276q2 25 9 119t7 135q100 76 239.5 171.5L633 850l-122 62-112 58q-39 19-99 45.5T178 1065q-1 12-1 29 0 76 22 260l148-84 165-93q72-42 135-87 29-20 154-97.5T985 866q-92-94-160.5-150.5T621 561Q430 421 166 276z"/><glyph unicode="?" horiz-adv-x="1067" d="M152 915q-10 87-10 161 0 96 17 167 30 125 132 201 98 45 198 55 23 2 46 2 77 0 150-26 95-35 155-119 72-98 91-212 9-51 9-98 0-56-13-103-24-87-75-149.5T737 721q0-66-9-178.5T717 395q-119-11-180-11-17 0-29 1-13 197-13 349 0 68 3 126 6 2 45 18.5t49 23.5 40 24.5 39 34 21.5 42 10 58.5-12.5 72q-14 49-83 96-51 35-94 35-15 0-30-4-114-31-114-233 0-37 4-79-35-29-103-38-26-4-50-3-37-1-68 8zM498 53Q533 6 604-1q10-1 19-1 59 0 104 39 38 33 38 86 0 19-5 41-39 57-110 72-16 3-31 3-51 0-90-38-37-36-36-98 0-24 5-50z"/><glyph unicode="@" horiz-adv-x="1878" d="M164 750q10 82 23.5 151.5t36 141 52 129T347 1282t93.5 92 120 69 148 44 180 14 217.5-18q147-23 296.5-89.5T1602 1229q45-88 74.5-208t34.5-251q1-13 1-26 0-115-41-203-31-70-112.5-120T1427 365q-32-4-58-5-47 0-77 14-47 22-80 68-43-76-218-88-25-2-48-1-140 0-221 63-63 51-80 151-4 23-4 48 0 82 43 182 23 29 72 54.5T870 886q15 2 30 2 49 0 95-24 5 16 6 37 0 19-5 42-9 48-62 52-10 0-75.5-4t-111-6-61.5 4q0 16-4 46t-5 48.5 7 41 29 36.5q77 13 178 13 14 0 30-1 120-2 201-45 45-51 58.5-159.5t18.5-220 32-158.5q61-24 112-25 18 0 34 3 65 11 87.5 54.5T1494 739q2 18 2 38 0 58-16 126-22 90-70 171t-146.5 141.5T1030 1290q-75 8-141 8-101 0-177-19-126-32-191.5-120t-90-201.5T403 672q0-31 16.5-80T474 479.5t91-121T703 258t184-51q86-7 163-8 242 0 396 73 2-16 13-44.5t17.5-50 3.5-47.5-22-46q-61-61-424-82-36-2-72-2-117 0-238 25-159 33-263 112-160 123-237 303-63 149-63 263 0 24 3 47zm660-165q7-32 42-57 29-24 71-24 5 0 10 1 48 3 77 48 6 12 9 27 2 11 3 24 0 20-4 43-2 14-7 40l-7 36q-32 7-58 7-66 0-102-44-18-20-30-45-7-15-6-33-1-11 2-23z"/><glyph unicode="A" d="M113 8q72 569 264 1465 108 25 240 25 19 0 38-1 52-1 97-1 90 0 153 5 90-274 222-833 121-512 121-643 0-12-1-21-20 0-123 4-51 2-85.5 2T985 8q-41 100-83 283.5T829 561q-151-16-278-16-38 0-74 2-20-86-49-267.5T377 14Q328 2 245 0h-27q-64-1-105 8zm383 776q12 0 81.5-6t95.5-7q13-1 30.5-.5t40.5.5q46 1 75 7-6 106-35.5 268T719 1278q-49 3-86 3t-62-3q-12-47-38.5-249T496 784z"/><glyph unicode="B" horiz-adv-x="1222" d="M131 1454q71 48 243 48 62 0 137-6 284-24 396-110 80-61 105-200 8-44 7-85 0-89-36-163-6-14-18.5-27.5T942 889t-30-20l-28-16q-9-5-34-16.5T821 823q139-70 213-208 56-106 57-216 0-34-6-68-23-146-143-233-96-68-228-86Q623-1 505 0q-52 0-109 2-124 5-191 6-34 0-53-2-10 285-12.5 754t-8.5 694zm246-172q0-252 10-354 41-10 82-11 88 0 178 48 122 64 122 160 0 9-1 18-6 70-82 106.5T526.5 1286t-149.5-4zm10-812q-1-47 0-84 0-113 4-142 92-15 165-15 156 0 226 68 37 43 38 100 0 6-1 12-4 65-34.5 126T717 616q-51 31-150.5 51.5T387 688q1-15 1-69.5T387 470z"/><glyph unicode="C" horiz-adv-x="1366" d="M131 540q-17 103-17 203 0 118 23 233 43 214 146 333 162 188 376 192h18q85 0 163-17 86-19 143-49t98-65 56.5-64.5 7.5-46-19.5-31-30.5-32.5l-30-28-42-36q-32-28-42-36-124 150-284 149h-9q-121-2-197.5-92T393 926q-8-61-8-122 0-107 26-209 40-161 150-243 82-61 185-70l29-2q88 0 166 50 91 57 122 180 16-12 50-35l51-35q17-12 41-33.5t44-44.5q10-11 10-27 0-60-135-190Q954 0 740 0q-30 0-61 3-251 24-398 190-113 125-150 347z"/><glyph unicode="D" horiz-adv-x="1421" d="M161 1295v19q0 29 2 60 3 41 12 67.5t26 37.5q32 24 164 23 74 0 180-7 295-20 409-82 98-51 176-178t116-280q29-118 29-245 0-38-2-77-11-170-83-297-104-186-383-278Q626-1 423-1 313-1 197 16q-32 288-33 852 0 119 2 250 0 31-2 85t-3 92zm258-353q-2-63-2-121 0-140 9-255 12-163 57-281 231 8 377 160 131 137 131 333 0 22-2 45-16 219-173 341-102 79-238 80-73 0-156-23 1-19 0-50 1-77-3-229z"/><glyph unicode="E" horiz-adv-x="1165" d="M125 1491q107 5 271 5 82 0 179-1 83-1 156-1 181 0 297 7 23-53 24-106v-12q0-50-8-121-74-12-162.5-19.5t-148-9.5-173.5-3-165-3q1-37 11-165 9-107 8-157v-18q84-13 333-13 111 0 254 3 0-158 9-248-54-1-104.5-1t-97.5 1q-37 1-77 1-59 0-124-2-108-3-183-14-20-20-20.5-83.5T409 390q3-43 2-70 0-22-1-35 159-2 319-2t322 2q2-45 2-89 0-88-9-171Q933 15 810.5 9.5T605 3 376 1 150 0q0 94-17 651-11 371-11 621 0 125 3 219z"/><glyph unicode="F" horiz-adv-x="1081" d="M166 1479q0 14 127 20 65 3 141.5 3t165.5-3q178-6 293-24 31-81 31-158 0-40-9-80-116-8-228.5-8t-221.5 8q-2-23-2-54 0-63 8-161 12-147 12-188 39 3 91 3 43 0 94-2 33-2 61-2 67 0 102 9 23-76 23-242-209 7-306 7-39 0-59-1-7-60-7-177 0-47 1-103 4-197 19-299Q398 1 312 1q-57 0-105 11-41 791-41 1467z"/><glyph unicode="G" horiz-adv-x="1308" d="M129 950q20 135 75.5 242.5t130.5 171T502 1465q87 36 176 36h10q94-2 189-26 109-33 203-140.5t94-261.5q-88-47-172-46-23 0-46 3-8 16-25.5 54t-26.5 54.5-26.5 39-42 36T776 1233q-30 6-58 5-89 0-169-52-106-70-144-211-20-79-19-167 0-104 28-219 51-212 174-286 75-47 137-47 33 0 61 13 84 38 132.5 123T979 586q-49 0-193 71 8 137 50 191 53-6 199.5-27.5T1217 795q12-90 11-171 0-219-85-366Q991 0 735 0 555 0 400.5 128T168 479q-52 149-52 309 0 79 13 162z"/><glyph unicode="H" horiz-adv-x="1363" d="M127 1470q27 12 74 17 31 3 57 3 13 0 25-1l85-5q50-3 54-3 8-59 18.5-245.5T457 981q22-3 55-3 127 0 410 38v77q0 161-7 371 31 27 84 34 29 4 54 4 21 0 39-3 39-6 69-16 35-43 59.5-625T1245 0q-18 1-40.5 1T1156 0q-15-1-30-1-38 0-79 4-57 5-72 20-23 291-37 727-42-12-154-13-35 0-77 1-98 3-163 3-51 0-81-2-1-30-1-77 0-105 6-294 4-130 4-218 0-98-5-146-12 1-29 1-26 0-62-2-30-2-57-1.5T269 3q-46 3-72 20-41 702-70 1447z"/><glyph unicode="I" horiz-adv-x="681" d="M174 1485q23 2 69 8t67 7h12q18 0 44-2 34-3 66-13 25-102 39-256t17.5-276 7.5-320.5 6-284.5q4-74 3-149 0-95-5-193-16 0-112.5-2T248 0q-12 137-41 694.5T174 1485z"/><glyph unicode="J" horiz-adv-x="1196" d="M150 707q51 32 137 31 41 0 90-7l4-39 9-56q3-19 11.5-64.5T418 498l20-69q12-40 28.5-66.5t36-52 44-38T600 260h4q49 0 83 46 36 48 42 132 8 110 8 260 0 118-5 259-11 323-38 528 25 14 57 16 11 1 24 1 27 0 65-3 57-4 88-4 4-43 17-171t22.5-243.5T985 817q7-118 7-238 0-30-1-60-2-151-16-281-12-94-103.5-165T621 0Q467 0 350 111.5T184 383q-38 124-38 250 1 37 4 74z"/><glyph unicode="K" horiz-adv-x="1536" d="M143 1477q77 25 149.5 24.5T432 1477q3-40 4-104 0-87-6.5-219T423 924q0-71 3-125 233 127 393 291.5t240 396.5q29-12 144.5-15.5T1348 1432q-14-41-28.5-76t-36.5-73l-34-59q-12-22-43.5-65t-44.5-58l-55-69q-43-53-55-69l225-562 37-92q33-82 56.5-150.5T1405 29q-52-28-157-29-47 0-105 6l-95 231-124 304q-55 139-86 239-16-14-186.5-114.5T449 522q0-35 9-241 4-98 4-160 0-69-5-92Q409 8 336 8q-68 0-158 19-4 176-5 484t-6.5 540.5T143 1477z"/><glyph unicode="L" horiz-adv-x="1110" d="M168 1489q73 12 172 12 37 0 78-2 31-156 35-393 1-86 1-167 0-141-4-264-2-50-2-103 0-152 15-328 19-3 77.5-3t156.5 3q39 1 75 1 142 0 223-20 26-52 26-111 0-54-22-114-106 7-264 7-79 0-171.5-2T400 3q-142 0-201 7v154q0 656-31 1325z"/><glyph unicode="M" horiz-adv-x="1849" d="M127 1481q48 17 123 17 79 0 188-19 80-119 257-534t223-503q264 539 456 1031 59 6 166 8t143 4q35-90 49-413 11-262 10-492V475q-3-274-9-450-82-26-167-26-37 0-75 5-2 31-11.5 218.5t-13.5 256-16 197.5-29 227l-102-252-163-397q-75-182-99-234-35 0-213-12-102 188-230.5 478T414 985q30-442 30-733 0-125-6-223-12-14-55-20-36-4-69-4h-13q-39 1-94 5t-64 4q-6 96-9 761t-7 706z"/><glyph unicode="N" horiz-adv-x="1593" d="M176 8q-8 484-8 853.5t8 623.5q95 13 175 13 48 0 91-5 43-127 291-434t371-430q1 30 1 69 0 129-10 361-6 146-7 248 0 110 8 168 87 26 212 25 25 0 52-1 20-193 25-449 3-129 3-274t-3-307q-4-231-3-357V29q-59-10-110-10h-26q-62 3-103 13.5T1096 53q-49 98-168 261L651 676 457 924q0-109 6-293.5t6-330.5-16-273Q366 2 274 1q-49 0-98 7z"/><glyph unicode="O" d="M68 716q-3 35-3 71 0 137 43 286 54 188 177 330 68 78 214 93 50 5 98 5 93 0 180-19 132-30 194-75 98-70 168.5-199T1243 931q25-113 25-232 0-37-2-75-10-159-61.5-291t-160-223.5T782 2q-22-2-46-2-96 0-222 39-158 49-260 151-72 74-122 215.5T68 716zm260 83q4-141 33.5-237.5T422 426t86-86q45-37 128-44 13-1 26-1 70 0 142 33 85 39 120 123 31 74 46 172 12 74 11 153 0 26-1 53-5 109-57.5 207.5T774 1184q-94 50-172 49-87 0-155-61-120-109-120-343 1-14 1-30z"/><glyph unicode="P" horiz-adv-x="1251" d="M139 1436q29 35 79 46 37 8 73 8 13 0 26-1 25-2 51-2t54 2q158 12 257 13h9q96 0 209-21 119-23 180-80 76-68 86-280 1-25 1-48 0-179-68-293-45-72-174-119t-234.5-62T406 567q-2-27-2-67 0-51 3-122 2-58 2-109 0-61-3-112-6-93-35-155-26-2-50-2-104 0-163 37 5 126 5 282 0 209-9 476-15 413-15 598v43zm256-142q14-84 17.5-258t9.5-235q67-6 125-6 247 0 336 112 43 55 48 146v15q0 82-48 157-35 47-121 65-81 17-158 18h-8q-80-2-201-14z"/><glyph unicode="Q" horiz-adv-x="1564" d="M80 653q-1 18-1 36 0 227 97 419 104 207 290 313 140 80 294 81 50 0 102-9 57-10 129-45t152-103.5 141.5-157.5 91.5-219q18-75 18-155 0-59-10-121-29-190-59-268-12-31-29-64 47-57 106-72 35-9 75-9 27 0 57 4 61 9 82 8h6q18-86 18-116t-12-118q-80-25-157-36-53-8-105-7l-48 1q-77 5-133.5 44T1106 170Q983 55 838 17 765-2 696.5-2T564 17Q436 55 326.5 141t-175 222T80 653zm284-2q22-119 70-190 100-150 268-179 35-6 67-7 122 0 200 92 134 158 134 338 0 73-22 149-80 274-276 344-48 16-93 16-90 0-169-65-119-98-168-246-20-80-20-155 0-50 9-97z"/><glyph unicode="R" horiz-adv-x="1480" d="M166 1475q96 8 160.5 12t168 9 177 5 166-3 157-14 125-27.5 98-44.5 52.5-64q45-117 45-215 0-40-7-76-26-127-103-209t-193-119q20-78 97-311.5T1214 37q-35-20-110-30-52-6-101-6-22 0-42 1-53 123-119 386t-84 325q-10 0-112-5-72-4-134-4-25 0-47 1 19-145 19-294 0-190-31-384-29 0-84.5-6.5T288 13h-6q-25 0-65 7-4 190-29 693-23 463-22 720v42zm262-215q-1-17-1-42 0-48 5-125 8-116 27-155 65-8 133-8 59 0 121 6 133 12 235 73 98 58 99 138 0 46-51 72-48 25-119.5 31.5T720 1260q-34 1-67 0-49 0-94-2-32-1-61-1-38 1-70 3z"/><glyph unicode="S" horiz-adv-x="1067" d="M81 411q-1 12-1 24 0 76 26 169 22 1 46 1 83 0 184-11-2-15-2-31 0-87 57-189 68-120 156-122h4q83 0 130 81 40 68 40 155 0 19-2 38-6 63-63.5 107.5T517 707l-165 58q-84 30-154.5 81T102 969q-36 109-36 197 0 115 62 195 110 140 392 140 193 0 299.5-96T930 1178q0-14-11.5-26.5t-36-20-45-11.5-55.5-10l-47-8q-78 181-218 181-18 0-38-3-55-10-91-71-28-47-28-79 0-9 2-18 23-70 80.5-108.5t163-77.5T774 850q131-80 177-209 39-110 39-221 0-20-1-39-6-133-112.5-255T604 0h-19Q417 0 295 70q-41 25-83 67.5T128 253 81 411z"/><glyph unicode="T" horiz-adv-x="1138" d="M102 1345q-3 27-2 55 0 39 4 83 133 16 457 18 65 0 122 1 227 0 327-7 2-20 5-55t4-52.5 2-41.5v-16q0-15-1-28-2-19-8-40-129-16-209-16-24 0-43 1 4-109 17-298l23-321q9-132 12-319 0-29 1-57 0-146-14-232-29-16-72-19-18-1-39-1-27 0-57 2-35 3-57 3-10 0-17-1-8 142-8 276 0 67 2 132 2 73 2 152 0 132-6 282-10 240-47 401-52-10-150-10-87 0-211 8-31 38-37 100z"/><glyph unicode="U" horiz-adv-x="1480" d="M100 1450q6 16 33 26.5t59.5 13.5 72.5 4q20 1 38 1t33-1q31-1 57-3l25-2q6-63 21.5-372.5t47-507T584 362q92-70 173-69 72 0 136 53 92 78 133 304 38 211 38 408v29q-3 211-26 404 53 0 147 6 70 5 123 5 18 0 33-1 26-179 26-411 0-46-1-95-6-291-59-485-41-145-115-278.5T1030 49Q939 0 799 0q-86 0-191 18-236 41-370 336-63 141-89 317.5T115.5 1106 100 1450z"/><glyph unicode="V" horiz-adv-x="1480" d="M129 1442q80 33 131 42 31 6 84 5 35 0 80-2 53-137 145.5-516T692 487q74 147 184.5 508t184.5 502q58 4 104 4 150 0 176-41-39-188-221-715.5T811 2q-37 0-85-1t-68.5-1-50 6T547 27q-43 174-207 644t-211 771z"/><glyph unicode="W" horiz-adv-x="1820" d="M141 1466q56 33 134 34 55 0 120-17 12-94 43-476t58-509q31 94 71 263l81 348 52 230q59 43 108 47 6 1 14 1 50 0 155-23 45-109 134-411t155-431q59 160 111.5 511t74.5 450q69 17 164 17 62 0 135-7-53-221-80-365-133-682-274-1118-29-4-89-4h-106q-45 0-53-6l-91 272-111 324q-50 141-101 262-25-90-65-272.5T700 264 606 20q-121-5-210-4h-56q-18 117-81.5 441.5T167 1008q-26 210-26 426v32z"/><glyph unicode="X" horiz-adv-x="1280" d="M117 27q20 88 67 202.5T273 426l108 203q66 121 86 164-199 479-258 688 49 10 88 14t90 5 72 1q45-100 116-277l99-239q47 63 92 142t102 199l64 132q23 2 57.5 9.5t55 10.5 56.5 0 77-14q-16-47-37-96l-37-86q-16-37-44-89l-41-79q-13-27-48-83t-44.5-72.5-48-78T836 811l95-253 110-291q48-128 87-242-55-14-138-22-39-3-69-3-34 0-57 4-10 86-37.5 179t-44 135-71 161T651 612q-43-74-141-289.5T350 18q-57-5-104-4-78 0-129 13z"/><glyph unicode="Y" horiz-adv-x="1193" d="M55 1475q37 18 88 22 23 2 49 2 32 0 70-3 68-5 78-5 135-225 301-469 2 6 95 195.5T858 1487q46 13 120 13h11q82-1 148-13-31-131-183.5-375T780 823q-3-51-3-144.5t3-229.5q2-91 2-170 0-158-8-271Q698-2 635.5-2T524 8q-6 147-11 427t-9 388q-39 70-216.5 298.5T55 1475z"/><glyph unicode="Z" horiz-adv-x="1222" d="M170 2q-7 63-7 112 0 61 11 101 4 8 94 158l174 292q84 142 172 313t115 261q-68 8-294 9t-236 1q-16 84-17 230 61 14 378 20 158 3 262.5 3t154.5-3q27-2 43-20.5t22.5-62.5 7.5-76.5 1-98.5q-14-39-55.5-100.5T934 1040l-94-180-122-232-116-212q-66-117-110-187 70 0 276 7 89 3 154 2 88 0 135-5 8-41 10-75 1-17 1-39.5t-1-48.5q-2-53-2-68H170z"/><glyph unicode="[" horiz-adv-x="1193" d="M301 1538q126 38 308 38h9q188-1 320-38 6-203 6-223-29-8-84-9-14 0-29-1-46 0-105 3-79 3-122 3-13-164-13-363 0-328 36-751 23-14 88-19.5t148-8.5 122-9q5-85 5-142.5T985-70q-288 7-457 8-113 0-174-4-18 270-29.5 811T301 1538z"/><glyph unicode="\" horiz-adv-x="1323" d="M190 1499q14 2 49 2t90-2q110-4 117-4 117-168 226-399l174-348 45-86 46-89 39-76 41-82 36-75q25-51 37-82l31-76q19-45 35-87l32-85q-25-4-121-6T940 0q-10 14-68 126L740 379 629 588q-42 71-439 911z"/><glyph unicode="]" horiz-adv-x="1280" d="M342 1323q-2 31-2 62 0 84 16 165 61 14 137 20.5t128.5 6.5 183.5-1 201-1q37-147 46-352 6-123 5-232 0-73-2-140-2-56-2-115 0-119 8-255 2-31 7-100.5t7-105 4-93.5l2-75q0-18-1-36-1-54-7-114h-27q-73 0-195-8-146-10-237-15-18-1-37 0-77 0-171 13 1 14 0 30 0 41-4 95-5 76-5 114l195.5 7.5L803 201q3 158 3 270 0 56-1 100-2 133-8 384l-9 368h-39q-76 0-201-5-59-3-103-3-75 0-103 8z"/><glyph unicode="^" horiz-adv-x="768" d="M154 1092q18 49 80.5 182t84.5 217q39 12 80 12 22 0 45-4 88-135 183-307l35-58q18-30 28-49-21-5-57-4-27 0-62 2-90 119-170 258-20-35-131-266-23 2-45 0-8-1-15 0-15 0-28 2-20 5-28 15z"/><glyph unicode="_" horiz-adv-x="1705" d="M213 4q-3 35-3 97t3 151q98 0 313 4t305 4q45 0 152 1t167 1 157.5-3 189.5-11V10q-48-11-349-10-107 0-247 1-379 4-567 4-76 0-121-1z"/><glyph unicode="`" horiz-adv-x="555" d="M125 1450q119 74 180 43 133-133 156-287-14-6-45-25.5t-54-27.5q-37 109-116 176-29 25-62.5 61.5T125 1450z"/><glyph unicode="a" horiz-adv-x="1251" d="M153 459q3 166 66 239 102 115 273 143 39 6 77 6 127 0 240-71-2 27-4 88.5t-7 98-22 73.5q-10 23-49 27-13 1-29 1-31 0-72-5-62-8-132-19.5T337 1019q-71-8-131-8-13 0-26 1 3 14 3 29 0 29-10 61-12 39-12 70 0 8 1 16 100 72 292 115 130 29 252 29 58 0 114-7 175-20 208-117 35-98 70-504.5T1182 90q-86-53-213-67-26-3-48-4-106 0-106 75 0 21 12 56Q715 0 454-1q-17 0-34 1-127 4-199 148-69 138-69 297 1 7 1 14zm229-43q-3-23-3-46 0-50 17-95 23-57 77-57 7 0 14 1 115 14 183.5 52t90 86.5T787 463q2 17 2 33 0 40-9 79-52 37-112 37-14 0-28-2-77-10-131-35.5T422 518q-29-26-40-102z"/><glyph unicode="b" horiz-adv-x="1366" d="M92 1462q102 39 198 39 66 0 130-18 39-315 39-543 139 35 272 43 38 2 75 2 92 0 178-14 120-20 203-87t103-175q11-56 11-110 0-69-18-135-32-116-104.5-202t-180-147.5T768 25Q667 1 557 1q-24 0-48 1-136 6-263 49-39 145-49 356-7 150-8 280 0 52 1 101 1 26 1 54 0 148-19 308-23 189-80 312zm381-800q0-20 1-67.5t2-73 5-61.5 12.5-64.5T516 342q180 2 314 61 132 58 133 167 0 98-94 141-63 29-136 28-32 0-65-5-113-17-195-72z"/><glyph unicode="c" horiz-adv-x="1421" d="M131 598q-1 15 0 30 0 157 58 292 65 147 172.5 238T603 1296q106 37 214 38 28 0 55-3 197-18 355-110-4-74-64.5-171.5T1094 932q-88 57-190 77-52 10-100 10-45 0-86-9-85-18-152.5-65.5T478 819q-8-31-8-66 0-51 17-108 39-117 155-210 102-82 204-82 13 0 26 1 55 6 91 27.5t52.5 47.5 48.5 62.5 73 61.5q29-10 55.5-31.5t39.5-37 37.5-52.5 33.5-47q-18-109-69.5-189.5T1111 73 953 11Q901-1 848 0q-37 0-74 5-92 13-183 44t-172 87.5-144.5 124T173 416t-42 182z"/><glyph unicode="d" horiz-adv-x="1251" d="M122 385q-1 15-1 29 0 168 77 322 83 167 220 216 49 18 153.5 23.5T717 989q3 41 3 89 0 56-4 121-7 122-18 163 16 43 64.5 66.5t117 41T979 1503q27-6 42-24.5t18-44 3-49-4-53-4-42.5q5-264 22-626.5t17-472.5q0-46-63-89-68-45-173.5-68.5T615 3q-25-2-50-2-89 0-173 20-108 26-163 81-100 99-107 283zm238 72q10-76 83-111 55-26 121-26 21 0 44 3 92 11 164 62 3 17 3 39 0 61-21 159-29 132-31 144-133 0-255-78-109-70-109-169-1-11 1-23z"/><glyph unicode="e" horiz-adv-x="1394" d="M140 816q56 224 190 343 111 98 294 148 96 26 176 25 74 0 134-21 137-49 209-226 40-99 40-206 0-83-24-170-28 2-65 1-110 0-298-14-226-17-330-16h-22q-1-31-1-59 0-77 9-135 11-79 52-154 46-80 166-80h6q125 2 201 74 45 25 44 120 0 40-8 93 188-12 265-131-18-158-94-257.5T904 22Q836 2 761 2q-39 0-80 5-120 15-228.5 70.5T259 220 141 408q-29 93-29 196 0 101 28 212zm329 30h7q55 0 433 49 0 23-11 57.5t-35.5 70.5-72.5 55q-29 12-64 12-22 0-46-5-72-14-120-46.5T494.5 965 472 897q-4-19-4-37 0-7 1-14z"/><glyph unicode="f" horiz-adv-x="1251" d="M159 620q3 101 42 152 6 0 209 6-2 56-2 114 0 243 28 503 6 72 148 96 81 14 164 14 62 0 125-8 148-18 184-53 18-75 18-127 0-35-8-60-19 1-56 2-75 0-223-6-29-2-49-14t-31.5-38.5T690 1147t-6-76 1-83 4-98.5 5-101.5q23-2 96.5-5t132-8 107.5-13q33-49 44-144 3-24 3-43 0-56-24-71-20-10-80-14-36-2-72-1h-49q-31 1-61 1t-60-1q2-74 20-245 14-139 14-206 0-16-1-28-10 1-23 1-33 0-85-4-73-5-131-5t-87 16q-6 39-7 67t-1 55v116q0 88-4 207-11 0-26-1-62 0-199 7-42 46-42 138v13z"/><glyph unicode="g" horiz-adv-x="1394" d="M123 696q20 203 173 359.5T672 1268q99 24 205 24 135 0 282-39 129-181 129-673 0-164-14-363-14-203-109.5-326.5T925-266q-65-15-137-15-87 0-184 22-176 40-356 148-31 61-42 103-6 21-6 44 0 21 5 42 10 45 49 90 3 4 10 4 18 0 62-21l140-72 173-65q41-10 79-10 48 0 91 16 55 27 70.5 36.5t40 36T948 156q2 18 2 43t-2 57q-156-66-289-78-25-2-48-2-80 0-152 26-94 34-156.5 92T197 425t-62 143q-14 53-14 99 0 15 2 29zm330-65q37-92 126-131 55-24 113-24 37 0 76 9 88 20 123 146 28 101 28 225 1 29-1 59-2 63-110 71-17 1-33 1-87 0-152-33-86-37-146-136-37-63-37-121 0-33 13-66z"/><glyph unicode="h" d="M141 1481q56 21 145 20h16q99-2 165-20 47-115 51-377 61 27 147 28h6q82 0 167-25 88-26 167.5-69t138-111.5T1221 778q14-105 13-173v-24q-3-73-17.5-219.5T1202 127q-109-28-193-28-54 0-98 12 0 27 1 53 0 368-54 512-47 132-139 131-64 0-150-64-45-35-49-169-1-34-1-69 0-108 9-241 7-106 8-173 0-45-4-73Q408 2 340 3q-40 0-61 5-115 771-138 1473z"/><glyph unicode="i" horiz-adv-x="739" d="M170 954q12-102 24.5-317t28-385T266 8q27-6 92-6 24 0 55 1 110 3 160 24 0 84-6 438-4 213-3 346 0 89 1 143-43-2-103.5-6t-84-5-62.5-1-70.5 3-74.5 9zm37 301q-4 37-4 69 0 106 48 142t152 36q32 0 68-3 88-69 88-152 0-31-12-65-33-88-123-123-33-13-64-13-72 0-129 73-14 16-24 36z"/><glyph unicode="j" horiz-adv-x="1081" d="M111 88q113 68 270 102Q426 8 457-39q32-44 75-44 7 0 15 1 35 6 54.5 41T623 58q1 32 1 59.5t-1 50.5q-2 45-11 121-8 88-63 370l-53 283q37 0 153 32 98 27 148 26 10 0 18-1 35-109 71-331t48-450q3-51 3-96 0-159-34-251-25-57-107.5-116.5T643-317q-55-11-119-12-51 0-108 7-129 16-162 64Q117-74 111 88zm395 1325q48 38 123 38h11q83-3 132-46 35-42 35-92 0-9-1-18-7-60-36-103-27-39-126-48-15-1-28-2-79 0-122 46-43 55-44 112 0 69 56 113z"/><glyph unicode="k" horiz-adv-x="1421" d="M164 1479q30 22 121 22 26 0 57-2 80-5 123-5 33 0 45 3 0-8 10-284.5T543 829q119 55 254 147.5t218 162.5l206 176q18-23 81.5-64t81.5-82q-16-63-60-112t-120-105.5-96-74.5q33-160 133-420t125-363q-33-6-71-22.5T1235.5 44 1174 28l-20-2q-31 0-60 13-25 76-99.5 324.5T877 733q-129-76-324-213 0-47 3-160.5t3-200.5-6-136Q432 1 350 1q-33 0-59 3-39 188-41 476t-12.5 552.5T164 1479z"/><glyph unicode="l" horiz-adv-x="768" d="M199 1468q63 34 129 35 13 0 26-2 80-8 150-53 27-113 33-607 1-82 1-160 0-386-26-644-23-4-66-15.5T366 5q-27-4-56-4-11 0-23 1-27 33-33 76-4 29-4 65 0 18 1 38 2 36 2 59 0 15-1 24-53 750-53 1174v30z"/><glyph unicode="m" horiz-adv-x="2048" d="M180 653q2 342 45 473 41 123 185 176 82 30 174 29 69 0 143-16 287-66 354-228 29 25 92.5 93.5T1290 1283t121 38q10 1 20 1 98 0 175-55 84-60 132-169t78.5-237 40-278.5 9.5-270-8-234.5q-14 1-34 1-29 0-71-2-35-2-65.5-2t-57.5 2q-53 3-84 19 15 165 16 328 0 160-34 299-35 143-99 170-42 18-76 17-99 0-141-142-10-33-20-147.5L1168.5 340 1139 57q-18 4-38.5 4t-42.5-4q-25-5-48-4-17 0-31 2-8 76-14 385-2 84-5.5 127T948 675.5 925.5 773t-39 66.5T823 886q-29 8-64 8-13 0-28-1-76-6-128-91t-74.5-218T500 327q-4-74-4-149 0-50 2-100-18-35-57.5-49.5T322.5 8 225 0q-45 298-45 625v28z"/><glyph unicode="n" horiz-adv-x="1478" d="M145 1272q23 8 117 14t135 45q6 1 11 1 27 0 42-17 17-20 20-48t13.5-55.5T514 1176q150 106 313 105 23 0 46-2 187-17 341-142 63-152 114-581 36-305 36-432 0-52-6-75-17-13-61-13-27 0-64 5-31 4-56 4-54 0-79-18-2 37-3 141t-3 198.5-18.5 210T1029 774t-85 136q-53 50-126 51h-11q-72-4-122-37t-76.5-92.5-42-126T548 548q-2-68-2-127v-38q1-74 5-168 3-63 3-108 0-23-1-41-45-29-92-45.5T356 0h-13q-48 0-81 27-27 207-59.5 628.5T145 1272z"/><glyph unicode="o" horiz-adv-x="1449" d="M127 700q10 156 53 282t134.5 216T528 1317q64 14 133 14 63 0 131-12 140-25 232-84 131-86 259-332 115-221 115-395 0-20-1-39-14-164-140.5-280.5T966 30Q857 2 743 2q-58 0-117 7-175 22-284 110-154 123-186 268-31 125-31 248 0 33 2 65zm293 68q-1-14-1-29 0-182 122-339 111-143 261-143 27 0 56 5 88 16 169 98 79 80 79 188 0 104-34 196t-98.5 163.5T813 1008q-48 14-104 14t-119-14q-160-41-170-240z"/><glyph unicode="p" horiz-adv-x="1421" d="M109 1233q283 62 588 62 19 0 38-1 125-2 245-56t206-149.5T1309 863q18-63 18-131 0-72-20-150-39-150-173.5-260.5T828 164q-127-35-251-35-43 0-85 4 2-27 5-89t3-80v-59q0-42-5.5-76T481-250q-16-2-73.5-13t-89-15.5T242-283t-74 13q0 133-2 272t-4 233.5T152 490l-12 226q-3 65-15 262.5T109 1233zm358-281q-2-45-2-103 0-162 16-429 71-17 139-17 81 0 156 24 139 44 209 160 42 69 42 151 0 55-19 116-25 80-130 117-86 30-180 30-21 0-42-2-115-8-189-47z"/><glyph unicode="q" horiz-adv-x="1251" d="M65 778q17 219 142 361 141 158 403 182 37 3 72 3 216 0 371-130-43-633-43-1012 0-43 8-69.5t27.5-35.5 32-12.5 37 0T1141 68q20-25 32.5-66t12.5-80 1-80 1-63q-189-15-305-15-47 0-82 3-124 9-124 332 0 34 1 71-68-28-144-28-45 0-92 10-190 39-292 223-88 158-88 340 0 31 3 63zm271 4q-3-20-3-41 0-59 21-120 29-84 93-139 51-43 111-43 16 0 32 3 59 10 95 61.5T732 635t13 150q1 24 1 49 0 51-2.5 110t-2.5 91v26q-86-2-164.5-22.5T424 952t-88-170z"/><glyph unicode="r" horiz-adv-x="1308" d="M195 1178q49 25 131 41 41 8 70 8t46-8q102 70 212 96 68 16 130 16 38 0 75-6 95-16 180-70.5t136.5-145.5 71.5-213q8-49 8-103 0-81-18-172-43-20-139-26-37-2-63-2-42 0-56 5l-20 79q-15 62-28 103t-37 94.5-57.5 88T760 1012q-125 0-182-129-34-72-35-203 0-26 2-54 8-171 24-309 5-41 5-81 0-97-27-195Q450-1 375-1q-54 0-96 21 0 201-13.5 385.5t-37 403.5-33.5 369z"/><glyph unicode="s" horiz-adv-x="1222" d="M170 578q49 23 122 22h12q81-2 136-22-3-22-3-45 0-57 20-113 27-78 80-115 35-23 57-33t52-10 57.5 27.5T758 371q14 27 15 55.5t-14.5 56-30.5 50-49 50.5l-55 44q-22 16-65 42l-59 36q-16 10-58 32-51 29-83.5 54.5T302 855q-23 36-22 84 0 51 25 120 35 90 86 151.5t103.5 87T605 1329q23 2 45 3 32 0 60-6 46-9 89-28 20-10 74.5-32.5t83-37 67.5-38 62.5-51 37.5-62.5q-33-123-166-159-14 10-45 34l-55 44q-25 19-58.5 42t-61 32-53.5 11-44-16-29-57q-3-14-3-27 0-44 36-81 47-48 126-92t101-71l58-59q53-55 71.5-81t43-84 24.5-118q0-199-109.5-295T672 0h-23Q319 0 248 174q-37 94-60 208-19 96-19 170 0 13 1 26z"/><glyph unicode="t" horiz-adv-x="1050" d="M53 840q-5 35-4 65 0 51 12 92 64 6 147 6 96 0 218-8-5 102-5 205 0 137 9 277 14 1 33 0 38 0 93-2 41-2 71.5-2t50.5 2q8-47 9-124v-55q0-58-1-131-2-109-2-164 10 0 140 4 56 1 90 1 45 0 51-2 2-14 8-43t7-39.5 2-31.5v-11q0-15-2-26-3-15-9-38.5T952 764q-35-4-114-9l-144-10v-30q0-118 13-393 0-47 38-67 32-16 70-16 8 0 15 1 37 3 70 3h15q39-1 39-10 2-87 2-140t-2-73q-6 0-69.5-4t-133-4T607 19.5t-123 32-48 65.5q0 43 4 167 3 99 4 195 0 24-1 47-1 119-15 217-32-2-71-1-102 0-244 12-3 0-6-1-42 1-54 87z"/><glyph unicode="u" horiz-adv-x="1452" d="M150 562q-19 146-19 318 0 207 27 453 53-18 154.5-28.5T426 1292q19-86 19-248 0-16-1-33v-50q0-159 12-295 13-158 74-244 97-32 167-32h4q71 1 119 39t77 95.5 43 137T957 825q2 42 2 86t-2 90q-3 92-7 175-4 80-6 116 101 13 184 13.5t148-13.5q39-170 51-366.5t16.5-420.5 14.5-351q-31-35-104-64-52-21-103-20-20 0-41 3-72 11-84 81Q897 43 764 14 710 2 660 3q-73 0-139 25-110 42-206 140-124 73-165 394z"/><glyph unicode="v" horiz-adv-x="1280" d="M100 1194q8-1 18-1 49 0 127 27 93 32 158 31 35-88 89.5-414.5T612 385q70 117 115 301t80 383 67 295q30-7 83-7 82 0 221 17-2-80-28-185.5T1084 945t-58-222q-2-10-17.5-79T989 555t-19.5-82.5T946 381l-23-82q-15-53-27.5-85t-30-72-35-70.5T793 16Q724 4 569 4q-58 0-129 2-88 88-194.5 501T100 1194z"/><glyph unicode="w" horiz-adv-x="2217" d="M215 886q4 167 39 312 54 22 113 22 19 0 39-2 80-9 139-38 6-84 6-217V703q0-126 46-233.5T737 330q78 12 129.5 59t75 109.5T977 652t13 171 5 184.5 13 172.5q29-4 89-9.5t103-11.5 78-18q20-86 21-210 0-18 1-35 0-105-6-204-1-19-1-36 0-93 27-172 32-93 114-117 88 31 134 101.5t54 168.5q5 60 5 119 0 37-2 73-5 94-14 214-6 72-6 128 0 37 3 66 41-8 158.5-14t168.5-25q12-123 18-233 3-55 2.5-115t-2.5-125q-5-129-25.5-233.5T1865 291t-105.5-156.5T1598 46q-56-16-120-16-48 0-102 9-102 16-167.5 56T1106 231q-49-98-145.5-162.5T737 0h-19Q600 0 504 70q-104 76-166 204.5T244 561q-29 140-29 288v37z"/><glyph unicode="x" horiz-adv-x="1366" d="M150 31q51 104 191 311t191 309L431 782 330 915q-35 47-83 131t-87 177q29 10 100 9h38q43-1 81-1 51 0 92 2 35-66 123-207t135-229l49 85q35 60 56 93l51 82 59.5 90 59.5 80q49 3 91 3 131 0 183-34-18-72-47-133.5T1156 939t-75.5-97T982 734.5 889 633q117-324 270-617-47-10-101-13-33-2-65-2-21 0-43 1-53 2-65 2-121 211-189 371-49-47-140-170T403 23q-6 0-64-3-29-1-55-1t-48 1q-45 3-86 11z"/><glyph unicode="y" horiz-adv-x="1251" d="M141 679q4 120 14.5 281.5T166 1186q57-10 164-20 64-6 100-5 24 0 37 2 1-12 1-28 0-72-15-224-16-160-16-300v-46q3-160 57-243 33-40 117-41 15 0 31 2 110 8 177 49 29 16 34 114 2 33 2 68 0 69-7 144-10 114-20 252-8 113-7 179v27q89 34 223 34 27 0 56-1 25-193 74-873 5-66 4-126 0-455-275-543-84-28-206-28-41 0-86 3-179 12-257 62-80 51-112.5 128.5T207-6q49 5 73 5h7q23-1 86-13.5T459-29q-2-37 14-61.5t41-37.5 68-19.5 77.5-7.5 90.5-1q86 2 128 97 32 73 32 134 0 18-3 36-80-80-210-96-33-4-64-3-96 0-189 34-123 46-188.5 134T164 414q-23 126-23 233-1 16 0 32z"/><glyph unicode="z" horiz-adv-x="1222" d="M180 39q-2 57-2 102 0 90 8 131 12 61 80 150 23 29 138.5 165T591 823.5 698 1014q-53 0-129.5-15.5t-131-28T317 955h-15q-54 0-81 20-27 56-27 152 0 48 7 106 469 98 874 100-2-45 33-132 28-70 28-109 0-9-1-17-10-61-62.5-123.5T940 816 823 696Q708 551 559 338q28-8 68-8 82 0 215 35 145 38 225 37 29 0 49-5 0-20 9-69l18-94q5-27 5-56 0-18-2-38-5-50-30-81Q870 10 634 3q-34-1-67-1-201 0-387 37z"/><glyph unicode="{" horiz-adv-x="1406" d="M222 710q-1 22-1 42 0 27 2 53 2 23 2 46t-2 48q31 4 61 4 20 0 39-2 12-1 23-1 34 0 62 9 37 12 41 49 0 6 1 117t21.5 207 75.5 172q47 68 147 96 94 27 211 27h17q127-2 284-6 16-18 22.5-45t5.5-47.5-5-62.5-4-66q-28 3-72 2-58 0-141-4-147-8-211-23-33-6-42-120.5t-29.5-252T647 766q39-51 50.5-189.5t23.5-257T776 182q51-22 168-22 15 0 31 1 47 1 90 1 87 0 160-4 12-25 16-49.5t4-42-3-54.5-3-61q-167-19-296-19-337 0-419 127-41 66-56 180.5T453 472v126q-4 29-50 31h-18l-72-6q-14-3-26-3-28 0-47 13-15 27-18 77z"/><glyph unicode="|" horiz-adv-x="811" d="M311 1501q158 0 234-10 5-355 4-659V635q0-29 4-178.5t5-253.5v-42q0-82-3-159-20-1-52-1-64 0-175 3-22 407-22 937 0 264 5 560z"/><glyph unicode="}" horiz-adv-x="1363" d="M229 1358q-2 35-2 69 0 70 9 140 139 12 275 12 169 0 335-18 55-6 82.5-100.5t28.5-205 10.5-205T1001 952q39-6 96.5-6t104.5-6q30-62 30-137 0-54-15-115-23-8-80.5-12t-92-14.5T1012 621q6-114 6-208 0-449-137-458l-110-8q-81-6-134-9.5T516-68q-17-1-32 0-47 0-82 5-46 6-66 18-4 29-4 207 49 14 188 14t197 8q45 8 54 84 4 34 4 72 0 46-6 96-7 53-6 110 0 41 3 85 8 102 49 151-61 47-88 147.5T691 1151t-21 160q-8 33-81 40-39 4-84 4-39 0-82-3-31-2-63-2-64 0-131 8z"/><glyph unicode="~" horiz-adv-x="1067" d="M141 778l40 52q28 36 37 45.5l30.5 33L283 938l34 17q23 11 46.5 14.5T418 975h4q54 0 138-51.5T687 872h3q25 2 47.5 8.5t41 17.5 30.5 19.5 27.5 21.5 19.5 17q53-76 80-147-31-33-100.5-63.5T700 713h-11q-68 0-112 23-48 26-78 53.5T438 817q-37 0-63.5-16.5T309 736t-47-56q-98 75-121 98z"/><glyph unicode="¡" horiz-adv-x="681" d="M166 1352q-3 18-3 33 0 74 70 106 32 14 63 14 42 0 81-26 56-38 56-106 0-36-15-81-39-41-96-44h-11q-51 0-92 27-45 30-53 77zm67-275q-2-66-2-168 0-205 9-555 2-71 2-156.5T240 10q49-8 88-9h11q35 0 80 5 52 6 75 6-6 68-24.5 456T418 1055q-67 23-157 23-14 0-28-1z"/><glyph unicode="¢" horiz-adv-x="1236" d="M199 979q2 82 9 126t31.5 90 76 65.5T451 1280q0 14-2.5 48t-2.5 76 5 97q77-6 162-6 51 0 106 2 2-41 4-101.5t6-92.5q18 0 101-1.5t120-3.5q2-50 2-92 0-99-10-159-115 12-199 11-195 0-227-63-34-67-34-226 0-83 10-189 6-49 41.5-79t97-37 115-7 123 5 92.5 5q2-72 13-141 7-45 7-76 0-17-2-29h-26q-105 0-220 15 7-77 8-146 0-45-4-86-14-5-58-5-33 0-82 3-116 6-128 6-5 115-5 186 0 35 1 60-231 23-254 217-16 142-16 320 0 90 4 188z"/><glyph unicode="£" horiz-adv-x="1492" d="M164 201q44-10 82-10 150 0 213 153 41 97 40 231 0 41-3 87-168 18-195 24-1 61-1 107t1 75q23-2 59.5-7t53-6 40 2 44.5 13q37 244 71 330 29 76 72 133 31 39 85 85t91 59q78 22 150 21 63 0 122-16 126-36 204-149 68-97 69-218 0-19-2-38-188-16-199-16-8 20-21.5 61t-20.5 57.5-22.5 40-37 34-51.5 16.5q-12 2-25 2-60 0-115-51-66-61-102.5-158.5T731 868q49 0 137-5t142-5q14-29 13-62 0-11-1-22-6-45-31-78-33-8-124-13t-132-13q-26-44-25-125 0-49 9-111 61-16 166.5-79.5T1055 272q50-14 130-13 74 0 173 11 7-43 7-92t-7-104q-84-10-157-10-104 0-187 20-141 35-293 158h-7q-47 0-75-27-31-29-53.5-67.5T525 71 397 12Q344 0 274 0q-50 0-108 6-4 53-4 112 0 40 2 83z"/><glyph unicode="¤" horiz-adv-x="1492" d="M127 1192q39 47 78 79t91 66.5 60 40.5q45-37 121-106.5t88-79.5q38 40 162 40 17 0 35-1 154-6 221-64 23 41 68 106.5t63 100.5q59-20 136-57t118-51q-39-68-96.5-139.5T1194 1020q35-45 56-119 15-52 15-116 0-28-2-58-9-100-69-176 45-70 92-121t94-125q-66-55-95.5-73.5T1165 176q-33 33-88 102.5T989 377q-98-53-205-56-7 0-13-1-98 0-171 45-111-174-151-215-23 12-80.5 37.5t-99.5 50-66 51.5q35 45 192 229-88 43-109 209-4 33-5 64 0 124 69 213-43 47-117.5 103T127 1192zm422-404q4-102 64.5-159.5T780 571q96 0 143 66 48 69 48 161 0 79-62 146-63 70-157 72h-9q-114 0-155-55-39-52-39-153v-20z"/><glyph unicode="¥" horiz-adv-x="1193" d="M100 1477q80 16 224 15 43 0 92-1 29-78 100.5-189.5T614 1130q119 203 152 338l77 15q54 10 87 15 23 4 53 4 12 0 26-1 46-2 78-14-41-84-105-179.5t-147-205T715 940q27 0 86 7t87 8h4q26 0 60-11 25-79 26-152 0-38-7-75-248 2-283 6 0-10 7-71.5t7-71.5l267 2q17-50 17-112 0-70-17-116-45 6-143.5 8.5T698 367q-1-16 0-36 0-59 4-150 6-122 7-163Q658 0 550 0q-36 0-79 2-16 123-19 161-1 13-1 38 0 52 4 157-209 0-265 9-11 43-10 94 0 56 13 121 42 1 78 1 126 0 173-12 4 22 4.5 59.5T444 721q-28-4-63-4-81 0-199 20 0 33 4 111 2 31 2 53 0 32-4 43 80 17 146 18 58 0 106-14-246 412-336 529z"/><glyph unicode="¦" horiz-adv-x="681" d="M219 1489q63 12 238 12 5-49 4-131v-58q-2-124-3-172t-8.5-162-9.5-159q-43 0-207-4-14 293-14 674zm33-854q29 6 66.5 6t80.5-3 58-3q14-376 14-545 0-56-2-90-29 0-95 4-44 3-77 3-16 0-29-1 0 22 1 48 0 113-8 281-9 206-9 300z"/><glyph unicode="§" horiz-adv-x="980" d="M176 756v16q0 92 66 162t148 70h13q-59 29-117.5 101.5T227 1257q0 125 46 184.5t182 59.5q251 0 250-271v-34q-49-2-150-2-1 12-1 26 0 8 1 25.5t1 26.5q0 34-22 64-26 34-79 34-35 0-50.5-24.5T391 1286t14.5-70.5T434 1157q29-39 91-90l110-90q47-39 83-110 31-60 30-133v-25q-6-109-105-193 74-84 97-188 8-34 8-67 0-69-33-136Q635 0 502 0q-80 0-140.5 28.5t-91 68.5-48 94.5T201 286t-4 79q4-2 22.5-2.5T270 365q66 4 90 4 0-207 134-211 59 0 70 68 3 21 4 43 0 49-18 101-26 75-58 91-23-3-45-3-116 0-182 76-79 89-89 222zm178 41q-6-30-6-55 0-87 78-117 27-10 52-10 32 0 60 17 46 28 46 77 0 76-45 129-31 41-79 40-12 0-26-2-66-13-80-79z"/><glyph unicode="¨" horiz-adv-x="980" d="M365 1501q57 0 90.5-34.5T489 1372q0-57-33.5-92t-82.5-35q-55 0-97 33-39 31-39 88 1 135 128 135zm352 0q59 0 92-34.5t33-94.5q0-57-34-92t-83-35q-55 0-95 33-38 31-38 88 0 135 125 135z"/><glyph unicode="©" horiz-adv-x="1705" d="M98 760q0 145 44 275t131 236.5T505 1441q140 60 315 60h11q190-2 336-62.5t224.5-142.5 128-189.5 63.5-185 14-147.5q0-7 1-15 0-165-45-297-46-138-121.5-223t-178-140.5-203-77T846 0q-70 0-141.5 12.5T545 54.5t-165 87-141.5 137T136 482 98 760zm189-31q0-209 161.5-371.5T891 190h12q108 0 193 36 90 38 146 100.5t93 149.5 50.5 177 13.5 193q-4 207-140.5 339T825 1317q-127 0-234.5-63.5t-171-158-98-191.5T287 729zm207-82q25-125 110-172 86-49 219-51h12q127 0 250 41-4 18-14 52t-17 62.5-12 67.5q-166-27-218-27-4 0-7 1-121 10-121 124.5T785 911q60 35 132 35 35 0 72-8 10 31 29.5 77t28.5 72q-133 54-235 55-59 0-106-19-130-50-190-218-31-87-31-171 1-44 9-87z"/><glyph unicode="ª" horiz-adv-x="894" d="M219 1157q55 63 148 78 21 3 41 3 69 0 131-38-2 14-2 47t-3.5 53.5T522 1341q-6 12-27.5 14.5t-55-1.5-71.5-10.5-85-12.5q-35-5-65-4h-19q4 23-4.5 49.5T188 1423q88 63 262 77 25 2 47 2 131 0 162-66 18-55 37-276.5T741 827q-57-35-133-39h-4q-62 0-62 41 0 14 7 31-57-82-201-82h-20q-70 2-109 81-37 75-37 159 0 96 37 139zm88-153q-2-12-2-25 0-27 10-51 13-31 42-31h8q82 10 121.5 42t39.5 71-2 82q-39 17-74 16-20 0-39-5-52-15-81-44-17-14-23-55z"/><glyph unicode="«" horiz-adv-x="1622" d="M150 614q2 41 2 103v76q45 41 135 133t114 112l199 180 211 187q82 70 125 96 6-64 10-133 0-8-3-40t-1-50q-76-76-137-127-221-195-436-424 170-158 237-209l318-252q4-40 4-93 0-74-8-173-47 29-176.5 130T580 262L421 396 276 517q-58 48-126 97zm534 0v179q45 41 135 132t117 113l199 180 211 187q82 70 124 96 2-23 9-133 0-10-2-42t0-48q-98-92-140-127-244-217-434-424 150-143 236-209l317-252q5-36 5-94 0-70-7-172-92 55-342 262L952 396 810 517q-58 48-126 97z"/><glyph unicode="¬" horiz-adv-x="1961" d="M166 1495q39 4 168 4t309-2 242-2q698 0 862-6 31-228 31-403 0-67-4-125-41 0-129-7-53-4-95-3-28 0-51 1-16 219-29 289-80-5-209-5-98 0-224 3-176 4-294 4-79 0-133-2-20 0-133-4-75-3-130-3-28 0-51 1-69 2-126 12 6 56 6 111 0 70-10 137z"/><glyph unicode="­" horiz-adv-x="1705"/><glyph unicode="®" horiz-adv-x="1705" d="M98 752v12q0 130 40 254 42 129 124 239.5T484 1436q136 66 308 65h11q193-2 344-65.5t243.5-170T1530 1028t51-276v-36q0-105-10-189-12-97-56.5-200.5t-121-171-215-111.5T852 0 524.5 45 306 160.5t-127 176-63.5 201T98 752zm211-4q8-242 152.5-401T901 186h14q112 0 199 31 92 33 147.5 87t89 131 44.5 157q6 50 6 104 0 32-2 66-14 264-160.5 413.5T807 1325q-113 0-202-32.5t-145.5-87-91-130.5T321 919q-12-70-12-148v-23zm305 339q74 29 154 41 31 5 63 5 50 0 102-12 85-19 126-83 45-72 64-141 10-37 11-70 0-30-9-57-17-57-76-76 10-23 66-119t73-163q-24-7-64-8h-11q-7 0-13 1-40 0-70-6-12 31-64.5 135.5T903 674q-11 1-27 0-33 0-88-2 6-45 7.5-87t2.5-98.5 3-103.5l-148 12q-19 204-39 692zm146-83q0-6-1-15 0-38 9-106 10-82 10-111 22-2 45-2 17 0 34 1 40 3 72 11.5t47 38.5q9 18 9 44 0 17-4 36-25 120-130 120-39 1-91-17z"/><glyph unicode="°" horiz-adv-x="641" d="M200 1452q42 47 138 49h9q89 0 119-40 32-42 32-132 0-78-48.5-126T322 1153h-7q-75 0-118 42t-43 117q0 88 46 140zm46-131q0-26 21-44 24-19 67-22h5q27 0 45 21 19 23 22 55v5q0 26-21 51.5t-53 25.5h-4q-37-1-59.5-24.5T246 1321z"/><glyph unicode="±" horiz-adv-x="1323" d="M211 752v272q49 2 148.5 13.5T498 1049q3 72 3 156.5t-3 183.5q246 4 266 4 12-91 12-235 0-54-2-116 38-2 93-1 83 0 204 3v-14q0-41 8-133 4-46 5-77 0-44-9-58-29 6-64.5 6t-54-1-83-7-89.5-8q5-125 5.5-209.5T784 414q-41-6-141-6t-131-5q-2 25-10 345-141 5-223 5-41 0-68-1zm4-535q2-35 10-94.5L240 12q137-4 295.5-5T760 4q41-1 79-1 151 0 242 20-6 51-8 122.5t-2 85.5q-98 9-285 10-62 0-135-1-289-5-436-23z"/><glyph unicode="²" horiz-adv-x="638" d="M127 1241q0 162 57 207 29 23 62 37t71 17q4 0 8 1l70-25q39-28 68-87 14-28 14-61.5t-14-73.5q-29-79-91.5-182T293 934q12-10 51-13t87-3 63-3V786q-31-8-79-10-16-1-37 0-42 0-103 2-91 4-115 4-18 26-18 66 0 30 8 57 8 31 28.5 74t37.5 73.5 45 74.5 40 69q42 77 42 119 0 27-17 39-29 14-43.5 17t-22.5-13.5-11-33.5-6-43-10-38q-19-3-60-3-20 0-46 1z"/><glyph unicode="³" horiz-adv-x="641" d="M127 1397q4 4 17.5 22.5T163 1444t18.5 19.5T206 1482t29.5 10 38.5 7q12 1 24 1 52 0 98-22 56-28 77-69 11-32 11-63 0-33-12-65-24-62-79-89 109-27 142-174 7-33 6-62 0-75-46-122-54-55-146-56-17 0-36 2-59 6-107 46t-69 108q16 16 88 47 39-61 80-72 16-4 31-4 37 0 62 27 23 23 23 57 0 19-7 41-6 20-19.5 34.5t-24 22-35 11.5-34.5 5-45 0-43-1q-5 29-5 58 0 15 1 30 76 0 135 70 25 29 26 71.5t-20 52.5q-18 12-37.5 12.5t-32-3.5-32-19.5T224 1353t-21-24q-8 2-14.5 3t-11.5 4-9 5-8 7.5-7 8.5-8 9l-6 9q-2 3-6 11.5t-6 10.5z"/><glyph unicode="´" horiz-adv-x="681" d="M205 1206q23 154 155 287 18 9 42 9 55 0 139-52-25-23-58.5-59.5T420 1329q-80-68-117-176-23 8-53.5 27.5T205 1206z"/><glyph unicode="µ" horiz-adv-x="1536" d="M209 1217q85 3 148 2 84 0 130-5 0-377 9-704 2-86 60-139.5T696 309q28-3 57-3l107 10q82 15 138.5 66.5T1053 500q0 59 3 336 1 92 1 165 0 146-4 213 49 8 93 11 29 1 62 1 16 0 33-.5t32-.5q30 0 50 2-3-34-3-148 0-152 5-445 7-410 7-562 0-38-1-60h-272l-6 72q-37-39-153-61-69-13-139-14-48 0-96 6-120 15-157 79-4-68-4-148 0-40 1-82.5t1-76.5q0-69-4-106-25 0-95.5 1T293-317h-76q-1 79-1 207 0 224 4 598 2 165 2 295 0 334-13 434z"/><glyph unicode="¶" horiz-adv-x="1366" d="M140 981v15q0 88 32 190 35 111 111 188 35 37 79 61.5t77.5 38 90 19.5 81.5 7q13 1 36 1t55-1q66-1 82-1 332-4 375-12 23-429 23-931 0-266-6-552-65-5-112-5-70 0-99 11 0 209-6.5 719T946 1298q-10 0-66 4-24 1-42 1-23 0-33-3 37-789 37-1104 0-133-6-182-11-6-46-6-24 0-61 3-88 7-115 7-2 45-4 161t-6 209-14 196q-70 4-123 14t-117.5 32.5-112 70T168 815q-25 72-28 166z"/><glyph unicode="·" horiz-adv-x="598" d="M123 965q-1 12-1 22 0 94 95 131 40 15 80 16 54 0 106-30 81-44 81-130 0-21-5-44-53-60-153-60-16 0-34 1-126 12-169 94z"/><glyph unicode="¸" horiz-adv-x="768" d="M174-223q14 35 70 141 18-12 42.5-34.5t37-31 34-13.5 48.5-1q47 4 58 61 4 18 3 34 0 36-16 65 29 2 89 2h99q14-20 14-58 0-19-4-42-10-70-47-131-60-87-171-88-6 0-12 1-120 5-245 95z"/><glyph unicode="¹" horiz-adv-x="681" d="M115 1264q18 41 72.5 120.5T256 1497q85 4 129 4 30 0 41-2 16-61 17-154 0-13 1-28 0-84-6-192-6-126-6-177 49-8 119-8 1-12 1-30 0-36-5-93-143 5-281 6-69 0-137-2v70q0 51 2 59 49 6 170 6 0 84 14 385-8-12-33.5-39.5T244 1251q-29-2-51-1-67 0-78 14z"/><glyph unicode="º" horiz-adv-x="940" d="M150 989q-17 76-18 146 0 95 32 180 55 147 188 178 35 7 73 7 35 0 71-6 76-13 127-46 72-47 140-180 61-119 61-214 0-11-1-22-8-88-75.5-151.5T590 794q-61-16-124-16-30 0-60 3-94 11-154 61-84 67-102 147zm144 206v-14q0-99 66-186 60-77 140-76 16 0 32 3 47 6 92 51 42 43 42 99 0 122-76 203-55 59-138 59-31 0-67-9-86-22-91-130z"/><glyph unicode="»" horiz-adv-x="1705" d="M190 1368q6 111 9 133 43-27 125-96l211-187 198-180q25-20 115-112t135-133v-76q0-61 2-103-68-49-126-97L717 396 557 262Q315 63 215 0q-8 93-8 163 0 60 6 103l315 252q88 66 238 209-209 225-434 424-41 35-139 127 2 16-.5 48t-2.5 42zm533 0q4 70 10 133 43-27 125-96l211-187 199-180q25-20 115-112t135-133V614q-68-49-126-97l-143-121-159-134q-35-31-164-132T750 0q-9 104-10 176 0 54 5 90l318 252q68 51 237 209-215 229-436 424-61 51-137 127 2 18-1 50t-3 40z"/><glyph unicode="¼" horiz-adv-x="1622" d="M164 1202q18 41 72.5 121t68.5 113q96 3 139 2h31q16-61 18-155v-27q0-84-6-192-6-126-6-175 49-8 119-8 1-12 1-31 0-36-5-94-143 5-281 5-69 0-137-1v70q0 52 2 61 49 4 170 4 0 76 7.5 220.5T365 1280q-8-12-34-39t-38-49q-31-2-55-2-64 0-74 12zM283 8q111 190 127 230l428 917q131 279 157 340 35 0 107 4 48 3 84 3 18 0 33-1-2-6-62-141l-135-305-167-368-183-385Q580 115 514 0h-27q-73-1-204 8zm680 363q0 12 2 66 1 27 1 44t-1 23q31 47 80 139t61 113q11 1 25 0 37 0 99-3 48-3 80-3 26 0 42 2 7-109 7-166 0-38-3-51 94-6 108-9 2-23 5.5-76t5.5-73q-48-7-102-7-14 0-27 1-1-7-1-19 0-18 2-50 2-39 2-76v-24q-1-48-14-79-12-8-36-10-12-1-25-1t-29 1q-31 2-47 0-8 31-9 73v30q0 31 1 67 1 27 1 47.5t-1 36.5q-37 4-94.5 4t-88-1-44.5 1zm124 131q14 0 57.5 1t57.5 1q12 36 12 84 0 27-4 57-16-10-35.5-29.5T1143 580l-31-43z"/><glyph unicode="½" horiz-adv-x="1449" d="M160 1202q18 41 72.5 121t68.5 113q85 4 129 3 30 0 41-1 16-61 17-156 0-12 1-24 0-86-7-194-7-124-7-175 53-8 119-8 1-10 1-27 0-34-5-98-141 5-280 5-69 0-138-1v68q0 46 2 63 51 4 172 4 0 76 6 224.5t6 160.5q-8-14-33.5-40t-37.5-48q-31-2-54-2-63 0-73 12zM279 8l127 230q84 158 145 284l144 313 139 306 157 354q35 0 107 4 48 3 83 3 18 0 33-1-2-6-61-141l-135-305-167-368-183-385Q576 115 510 0h-27q-73-1-204 8zm663 549q0 162 57 207 68 53 146 53t133-108q15-28 15-63 0-33-14-73-28-80-92.5-183T1108 250q12-8 51-11t87-3 63-3V104q-31-8-82-10-20-1-46-1-38 0-87 2-82 3-119 3-18 26-18 67 0 31 8 58 8 31 28.5 74t37.5 73l45 74q28 45 40 68 41 79 41 121 0 27-16 39-29 14-43.5 17t-22.5-14.5-11-34.5-6-42-9-37q-22-5-71-4-17-1-36 0z"/><glyph unicode="¾" horiz-adv-x="1579" d="M209 1044q16 10 52 14.5t52 12.5q2-41 17.5-70.5T383 973q39 4 64.5 30.5T469 1061q-2 25-10 43t-14.5 27.5-29 16.5-28.5 8-40 4-38 3q2 12 0 40t-2 38q55 12 87 31.5t28 52.5-37 41q-24 6-60 6-13 0-28-1-33-2-53-2-13 0-21 1 0 20-3 41t-3 47q30 14 84 14 34 0 79-6 114-14 144-71 16-33 19.5-59.5t-8-47-23.5-33-37-30.5q4-2 20.5-8.5t20.5-9.5 17.5-10 18.5-15 13-19.5 12.5-27 6.5-35.5q3-34 3-62 0-91-35-128-46-48-177-52h-12q-51 0-84 15-37 17-50.5 50T211 982q-3 17-3 39 0 11 1 23zM264 8q14 25 41 79l57 117q31 62 37 77l412 882q12 27 76.5 151t89.5 181q35 0 106 4 48 3 84 3 18 0 33-1-2-6-61-141l-135-305-167-368-184-385Q561 115 496 0h-27q-74-1-205 8zm733 363q0 14 2 60 1 23 1 41t-1 32q16 27 140 252 11 1 25 0 37 0 100-3 49-3 80-3 25 0 40 2 7-109 8-166 0-38-3-51 92-4 108-9 6-37 10-149-48-7-100-7-13 0-27 1 0-8 2-119 0-12 1-24 0-89-15-105-12-8-36-10-12-1-25.5-1t-28.5 1q-31 2-45 0-8 31-10 72-1 21-1 45.5t1 52 1 48.5-1 36q-37 4-93.5 4t-87.5-1-45 1zm125 131q14 0 57.5 1t55.5 1q12 34 12 93 0 22-2 48-37-20-123-143z"/><glyph unicode="¿" horiz-adv-x="1067" d="M142 356q-9 51-8 97 0 56 12 104 24 88 75 150.5T336 780q0 61 9 172t9 154q121 11 182 11 17 0 29-1 13-197 13-349 0-68-3-126-10-4-39.5-17.5t-42-18.5-38-20.5T419 558t-25.5-31.5-18.5-42-3-52.5 11-65q14-47 83-95 51-35 94-35 15 0 30 5 114 28 114 231 0 37-4 80 35 31 103 39 23 3 43 3 41 0 76-11 10-87 9-159 0-96-17-167-30-125-132-203-98-43-198-53-23-2-47-2-76 0-149 26-95 34-155 117-72 100-91 213zm171 981q-5 22-5 41 0 53 38 86 44 39 104 39 9 0 19-1 72-7 106-54 5-26 5-49 0-62-36-99-39-38-90-38-15 0-31 4-71 14-110 71z"/><glyph unicode="À" d="M94 8q41-9 106-8h26q83 2 132 14 23 84 51.5 265.5T459 547l74-2q127 0 278 16 31-86 73-269T967 8q18 2 53 2t86-2q102-4 123-4 1 9 1 21 0 131-121 643-132 559-222 833-45-5-142-5-48 0-109 1-23 1-45 1-151 0-233-25Q166 577 94 8zm383 776q10 43 37 245t39 249q25 3 61.5 3t85.5-3q35-70 65-231.5T801 778q-29-6-75-7-23-1-41-.5t-31 .5q-26 1-95.5 7t-81.5 6zm8 1096q84 52 140 52 23 0 41-9 133-133 155-287-14-6-45-25.5t-53-27.5q-37 109-117 176-29 25-62.5 61.5T485 1880z"/><glyph unicode="Á" d="M100 8q72 569 265 1465 108 25 240 25 19 0 38-1 52-1 97-1 90 0 153 5 90-274 222-833 121-512 121-643 0-12-1-21-20 0-123 4-51 2-86 2t-53-2q-41 100-83 283.5T817 561q-151-16-278-16-38 0-74 2-20-86-49-267.5T365 14Q316 2 232 0h-26q-65-1-106 8zm383 776q12 0 82-6t95-7q13-1 31-.5t41 .5q46 1 75 7-6 106-36 268t-64 232q-49 3-86 3t-62-3q-12-47-39-249t-37-245zm11 852q20 152 155 287 18 9 41 9 55 0 139-52-25-23-58.5-59.5T709 1759q-80-68-117-176-23 8-53.5 27.5T494 1636z"/><glyph unicode="Â" d="M109 8q72 569 264 1465 108 25 240 25 19 0 38-1 52-1 97-1 90 0 153 5 90-274 222-833 121-512 121-643 0-12-1-21-20 0-123 4-51 2-86 2t-53-2q-41 100-83 283.5T825 561q-151-16-278-16-38 0-74 2-20-86-49-267.5T373 14Q324 2 241 0h-27q-64-1-105 8zm204 1591q51 102 242 402 10 0 108 5 54 3 84 3 24 0 33-2 43-57 148.5-232.5T1038 1593q-29-5-78-4-37 0-83 2-23 23-50.5 70T767 1769.5t-46 85.5q-20 1-38 2-34 0-54-6-27-37-79-131t-81-137q-31 2-59.5 0t-57.5 2-39 14zm179-815q12 0 81.5-6t95.5-7q13-1 30.5-.5t40.5.5q46 1 75 7-6 106-35.5 268T715 1278q-49 3-86 3t-62-3q-12-47-38.5-249T492 784z"/><glyph unicode="Ã" d="M96 8q72 569 264 1465 108 25 241 25 19 0 38-1 52-1 97-1 90 0 153 5 90-274 222-833 121-512 121-643 0-12-1-21-20 0-123 4-51 2-86 2t-53-2q-41 100-83 283.5T813 561q-151-16-278-16-38 0-74 2-20-86-49-267.5T360 14Q311 2 228 0h-26Q137-1 96 8zm170 1673l40 53q28 36 37 45t30.5 32.5T408 1841l34 18q23 11 46.5 14t54.5 5h4q54 0 138-51t127-51h3q25 2 47.5 8t41 17 30.5 19.5 27.5 21.5 19.5 18q53-76 80-148-31-33-100.5-63.5T825 1616h-11q-68 0-113 23-48 26-77.5 53.5T563 1720q-37 0-63.5-16t-65.5-64.5-47-56.5q-98 75-121 98zm213-897q12 0 82-6t95-7q13-1 31-.5t41 .5q46 1 75 7-6 106-36 268t-65 232q-49 3-85.5 3t-61.5-3q-12-47-39-249t-37-245z"/><glyph unicode="Ä" d="M94 8q41-9 106-8h26q83 2 132 14 23 84 51.5 265.5T459 547l74-2q127 0 278 16 31-86 73-269T967 8q18 2 53 2t86-2q102-4 123-4 1 9 1 21 0 131-121 643-132 559-222 833-45-5-142-5-48 0-109 1-23 1-45 1-151 0-233-25Q166 577 94 8zm391 1831q57 0 91-35t34-94q0-57-33.5-92t-82.5-35q-55 0-97 33-39 31-39 88 0 135 127 135zm-8-1055q10 43 37 245t39 249q25 3 61.5 3t85.5-3q35-70 65-231.5T801 778q-29-6-75-7-23-1-41-.5t-31 .5q-26 1-95.5 7t-81.5 6zm361 1055q59 0 92-35t33-94q0-57-34-92t-83-35q-55 0-95 33-38 31-38 88 0 135 125 135z"/><glyph unicode="Å" d="M106 8q72 569 265 1465 108 25 240 25 19 0 38-1 52-1 97-1 90 0 153 5 90-274 222-833 121-512 121-643 0-12-1-21-20 0-123 4-51 2-86 2t-53-2q-41 100-83 283.5T823 561q-151-16-278-16-38 0-74 2-20-86-49-267.5T371 14Q322 2 239 0h-27q-65-1-106 8zm338 1809q2 98 60.5 152t159.5 54q227 0 239-217 1-9 1-18 0-77-48-139-52-68-161-68h-7q-119 2-183 68-61 62-61 155v13zm45-1033q12 0 82-6t96-7q13-1 30.5-.5t40.5.5q46 1 75 7-6 106-35.5 268T713 1278q-49 3-86 3t-62-3q-12-47-39-249t-37-245zm82 1010q10-100 105-100h6q37 0 61 21 29 26 29 73 0 115-90 115-59 0-87-29-24-25-24-67-1-6 0-13z"/><glyph unicode="Æ" horiz-adv-x="1708" d="M82 16q49 225 105 454l146 566 122 461q91 0 342 3 187 2 339 2h98q187-1 314-9 7-35 8-86 0-6-1-13v-38q0-35 1-60-50 1-97 1-285 0-470-21-6-103-5-197 0-110 7-209 69-6 167-6 59 0 127 2 79 3 136 3 77 0 117-5 6-18 9-45.5t4-49 1-59.5v-57q-61-8-170-11-65-2-124-2-39 0-76 1-46 1-91 1t-90-1q-1-29-1-73 0-111 8-322 6 0 224 1t302 5q4-71 4-124 0-66-6-105-210-18-437-19-151 0-309 8-18 102-35.5 306T721 618q-16 0-262-10-82-406-115-596Q269 1 208 1 136 1 82 16zm424 791q28-2 64-2 60 0 145 6-8 33-32 218t-46 235q-16-35-40-116t-53-195z"/><glyph unicode="Ç" horiz-adv-x="1366" d="M102 848q10 170 73 303t150 206 170 108.5 148 35.5q135 0 232.5-32.5T1022 1393t78.5-114 35-114 9.5-108q-110-19-182-19-43 0-72 6-4 14-9 50t-13.5 54.5-27 43.5-56.5 34q-26 6-61 6-16 0-34-1-279-16-278-522 0-117 24.5-208t93-155.5T705 279q5 0 10-1 105 0 192 80 92 84 117 220 68 2 81 2t75.5-6.5 95.5-8.5q0-117-29.5-207t-89-153.5-124-105.5T874 16q16-69 16-131 0-77-24-145-43-123-145-164-58-23-126-23-74 0-160 28-163 54-240 165l170 143q31-37 45-51t40.5-31.5T508-215h4q76 0 103 69 11 29 12 58 0 42-23 84-45 31-131 63.5T354 113q-137 86-201 280-53 159-53 362-1 46 2 93z"/><glyph unicode="È" d="M215 1491q-3-94-3-219 0-249 11-621Q239 94 240 0q80 0 226 1t229 2 206 6 234 16q8 83 8 171 0 44-2 89-162-2-322.5-2T500 285q2 13 2 35 0 28-3 70-5 77-5 140.5t20 83.5q76 10 183 14 65 2 124 2 40 0 77-1 47-1 97-1t105 1q-8 90-8 248-144-3-255-3-250 0-333 13v18q0 50-8 157-10 128-11 165 51 2 165 3t173.5 3 148.5 9 163 20q7 71 7 121v12q-1 53-24 106-120-7-299-7-72 0-153 1-95 1-177 1-163 0-274-5zm295 389q84 52 139 52 23 0 41-9 133-133 156-287-14-6-45-25.5t-53-27.5q-37 109-117 176-29 25-62.5 61.5T510 1880z"/><glyph unicode="É" d="M209 1491q107 5 271 5 82 0 179-1 83-1 156-1 181 0 297 7 23-53 24-106v-12q0-50-8-121-74-12-162.5-19.5t-148-9.5-173.5-3-165-3q0-37 10-165 9-107 9-157v-18q84-13 333-13 111 0 254 3 0-158 9-248-54-1-105-1t-97 1q-37 1-77 1-59 0-124-2-108-3-183-14-20-20-20.5-83.5T493 390q3-43 2-70 0-22-1-35 159-2 319-2t322 2q2-45 2-89 0-88-9-171-111-10-233.5-15.5T689 3 459.5 1 233 0q0 94-16 651-11 371-11 621 0 125 3 219zm295 145q23 154 155 287 18 9 42 9 55 0 139-52-25-23-58.5-59.5T719 1759q-80-68-117-176-23 8-53.5 27.5T504 1636z"/><glyph unicode="Ê" d="M213 1491q107 5 271 5 82 0 180-1 83-1 155-1 181 0 297 7 23-53 24-106v-12q0-50-7-121-74-12-163-19.5t-148.5-9.5-173-3-165.5-3q0-37 11-165 9-107 8-157v-18q84-13 333-13 111 0 255 3 0-158 8-248-54-1-104.5-1t-97.5 1q-37 1-77 1-59 0-124-2-108-3-183-14-20-20-20-83.5t5-140.5q3-43 2-70 0-22-1-35 159-2 319-2t322 2q2-45 2-89 0-88-8-171-111-10-234-15.5T693 3 463.5 1 238 0q0 94-17 651-11 371-11 621 0 125 3 219zm100 108q51 102 242 402 10 0 108 5 54 3 84 3 24 0 33-2 43-57 148.5-232.5T1038 1593q-29-5-78-4-37 0-83 2-23 23-50.5 70T767 1769.5t-46 85.5q-20 1-38 2-34 0-54-6-27-37-79-131t-81-137q-31 2-59 0-10-1-20-1l-38 3q-29 4-39 14z"/><glyph unicode="Ë" d="M211 1491q-3-94-3-219 0-249 11-621Q235 94 236 0q80 0 226 1t229 2 206 6 233 16q8 83 9 171 0 44-2 89-162-2-322.5-2T496 285q2 13 1 35 0 28-2 70-5 77-5.5 140.5T510 614q76 10 183 14 65 2 124 2 40 0 77-1 47-1 97-1t105 1q-8 90-9 248-144-3-254-3-250 0-333 13v18q0 50-8 157-10 128-11 165 51 2 165 3t173.5 3 148.5 9 162 20q7 71 8 121v12q-1 53-24 106-120-7-299-7-72 0-153 1-95 1-177 1-163 0-274-5zm287 348q57 0 91-35t34-94q0-57-34-92t-83-35q-55 0-96 33-39 31-39 88 0 135 127 135zm352 0q59 0 92-35t33-94q0-57-34-92t-83-35q-55 0-95 33-38 31-38 88 0 135 125 135z"/><glyph unicode="Ì" horiz-adv-x="681" d="M180 1880q84 52 139 52 23 0 41-9 133-133 156-287-14-6-45-25.5t-53-27.5q-37 109-117 176-29 25-62.5 61.5T180 1880zm2-395q4-233 33-790.5T256 0q43 2 139.5 4T508 6q6 98 6 193 0 76-4 149-2 86-6 284.5T497 953t-17.5 275.5T440 1485q-33 10-66 13-25 2-44 2h-12q-22-1-67.5-7t-68.5-8z"/><glyph unicode="Í" horiz-adv-x="681" d="M174 1628q23 154 156 287 18 9 41 9 55 0 139-52-25-23-58.5-59.5T389 1751q-80-68-117-176-23 8-53.5 27.5T174 1628zm0-143q23 2 69 8t67 7h12q18 0 44-2 34-3 66-13 25-102 39-256t17.5-276 7.5-320.5 6-284.5q4-74 3-149 0-95-5-193-16 0-112.5-2T248 0q-12 137-41 694.5T174 1485z"/><glyph unicode="Î" horiz-adv-x="909" d="M90 1599q51 102 242 402 10 0 107 5 54 3 85 3 24 0 33-2 43-57 148.5-232.5T815 1593q-28-5-77-4-37 0-85 2-23 23-50.5 70t-59 108.5T498 1855q-20 1-38 2-34 0-55-6-27-37-79-131t-80-137q-31 2-59.5 0t-57.5 2-39 14zm197-114q23 2 68.5 8t67.5 7h11q18 0 44-2 34-3 67-13 25-102 39-256t17-276 7-320.5 6-284.5q4-74 4-149 0-95-6-193-16 0-112.5-2T360 0q-12 137-40.5 694.5T287 1485z"/><glyph unicode="Ï" horiz-adv-x="966" d="M274 1839q57 0 91-35t34-94q0-57-33.5-92t-82.5-35q-55 0-97 33-39 31-39 88 0 135 127 135zm11-354q4-233 32.5-790.5T358 0q43 2 139.5 4T610 6q6 98 6 193 0 76-4 149-2 86-6 284.5T599 953t-17.5 275.5T543 1485q-33 10-67 13t-55.5 2-67-7-68.5-8zm342 354q59 0 92-35t33-94q0-57-34-92t-83-35q-55 0-95 33-38 31-38 88 0 135 125 135z"/><glyph unicode="Ð" horiz-adv-x="1421" d="M104 852q39 12 138 16-31 573-35 623 6 0 53 3t69.5 4 76.5 2h25q37 0 64-2 36-3 90-8t98-17l94-28q50-15 98.5-41t91.5-56q109-80 161-129.5t99-149.5 57-244q3-50 3-97 0-418-261-609-41-29-82-50.5t-98.5-35-91-20.5T642 3 536.5 0t-127 2T287 4q-10 86-22.5 309.5T242 627q-12-5-37-6-12 0-27 2-45 4-59 24-4 27-5.5 95.5T104 852zm369 428q23-317 37-424 28-5 64-5 47 0 108 9-1-12-1-27 0-32 5.5-80.5T692 666q0-19-2-35-9-6-42-6-12 0-27 1-34 2-57 2-15 0-25-1-2-16-3-45 0-48 7-132 9-112 8-168v-20q458 27 458 466 0 22-1 46-12 221-151 365-136 141-377 141h-7z"/><glyph unicode="Ñ" horiz-adv-x="1593" d="M197 8q-8 484-8.5 853.5T197 1485q95 13 175 13 48 0 91-5 43-127 290.5-434T1124 629q1 30 1 69 0 129-10 361-6 146-6 248 0 110 7 168 87 26 213 25 25 0 51-1 20-193 26-449 3-129 3-274t-3-307q-4-231-4-357 0-50 1-83-59-10-111-10h-25q-62 3-103.5 13.5T1116 53q-49 98-168 261L672 676 477 924q0-109 6-293.5t6-330.5-16-273Q386 2 294 1q-48 0-97 7zm204 1673l40 53q28 36 37 45t30.5 32.5T543 1841l35 18q23 11 46 14t54 5h4q54 0 138-51t127-51h3q25 2 47.5 8t41 17 30.5 19.5 27.5 21.5 19.5 18q53-76 80-148-31-33-100.5-63.5T961 1616h-12q-68 0-112 23-48 26-78 53.5t-61 27.5q-37 0-63.5-16t-65.5-64.5-47-56.5q-98 75-121 98z"/><glyph unicode="Ò" d="M68 716q14-169 64-310.5T254 190Q356 88 514 39 640 0 736 0q24 0 46 2 154 16 262.5 107.5T1204 333t62 291q2 38 2 75 0 119-25 232-33 148-103.5 277T971 1407q-61 45-194 75-87 20-180 19-48 0-98-5-146-15-214-93-123-141-177-330-43-149-43-286 0-36 3-71zm260 83q0 16-1 30 0 234 120 343 67 61 155 61 78 0 172-49 96-49 148.5-147.5T980 829q1-27 1-53 0-79-11-153-15-98-46-172-35-84-120-123-72-33-142-33-13 0-26 1-83 7-128 44-55 47-86 86t-60.5 135.5T328 799zm172 1073q84 52 139 52 23 0 41-9 133-133 156-287-14-6-45-25.5t-54-27.5q-37 109-116 176-29 25-62.5 61.5T500 1872z"/><glyph unicode="Ó" d="M68 716q-3 35-3 71 0 137 43 286 54 188 177 330 68 78 214 93 50 5 98 5 93 0 180-19 132-30 194-75 98-70 168.5-199T1243 931q25-113 25-232 0-37-2-75-10-159-61.5-291t-160-223.5T782 2q-22-2-46-2-96 0-222 39-158 49-260 151-72 74-122 215.5T68 716zm260 83q4-141 33.5-237.5T422 426t86-86q45-37 128-44 13-1 26-1 70 0 142 33 85 39 120 123 31 74 46 172 12 74 11 153 0 26-1 53-5 109-57.5 207.5T774 1184q-94 50-172 49-87 0-155-61-120-109-120-343 1-14 1-30zm172 829q23 154 155 287 18 9 41 9 55 0 140-52-25-23-59-59.5t-62-61.5q-80-68-117-176-23 8-53.5 27.5T500 1628z"/><glyph unicode="Ô" d="M70 716q-3 35-3 71 0 137 43 286 54 188 177 330 68 78 214 93 50 5 98 5 93 0 180-19 132-30 194-75 98-70 168.5-199T1245 931q25-113 25-232 0-37-2-75-10-159-61.5-291t-160-223.5T784 2q-22-2-46-2-96 0-222 39-158 49-260 151-72 74-122 215.5T70 716zm237 883q51 102 242 402 10 0 107 5 54 3 85 3 24 0 33-2 43-57 148.5-232.5T1032 1593q-28-5-77-4-37 0-85 2-23 23-50 70t-59 108.5-46 85.5q-20 1-38 2-34 0-54-6-27-37-79-131t-81-137q-31 2-59.5 0t-57.5 2-39 14zm23-800q4-141 33.5-237.5T424 426t86-86q45-37 128-44 13-1 26-1 70 0 142 33 85 39 120 123 31 74 46 172 12 74 11 153 0 26-1 53-5 109-57.5 207.5T776 1184q-94 50-172 49-87 0-154-61-120-109-121-343 1-14 1-30z"/><glyph unicode="Õ" d="M68 716q-3 35-3 71 0 137 43 286 54 188 177 330 68 78 214 93 50 5 98 5 93 0 180-19 132-30 194-75 98-70 168.5-199T1243 931q25-113 25-232 0-37-2-75-10-159-61.5-291t-160-223.5T782 2q-22-2-46-2-96 0-222 39-158 49-260 151-72 74-122 215.5T68 716zm231 1000q14 14 45 49t44 47.5 40 31 55 21.5q12 1 27 1 19 0 41-2 31-4 57.5-23.5t44-40T706 1768q19-6 41-5 20 0 44 4 27 4 81 31t72 31q31-22 45.5-37.5t24.5-45.5q3-9 3-19 0-20-16-39-27-10-72.5-33t-67-31-67.5-18q-19-4-35-5-22 0-38 9-49 12-95 54t-85 42q-33 0-58.5-16.5t-47-41T405 1618q-27 8-58.5 48t-47.5 50zm29-917q4-141 33.5-237.5T422 426t86-86q45-37 128-44 13-1 26-1 70 0 142 33 85 39 120 123 31 74 46 172 12 74 11 153 0 26-1 53-5 109-57.5 207.5T774 1184q-94 50-172 49-87 0-155-61-120-109-120-343 1-14 1-30z"/><glyph unicode="Ö" d="M68 716q14-169 64-310.5T254 190Q356 88 514 39 640 0 736 0q24 0 46 2 154 16 262.5 107.5T1204 333t62 291q2 38 2 75 0 119-25 232-33 148-103.5 277T971 1407q-61 45-194 75-87 20-180 19-48 0-98-5-146-15-214-93-123-141-177-330-43-149-43-286 0-36 3-71zm260 83q0 16-1 30 0 234 120 343 67 61 155 61 78 0 172-49 96-49 148.5-147.5T980 829q1-27 1-53 0-79-11-153-15-98-46-172-35-84-120-123-72-33-142-33-13 0-26 1-83 7-128 44-55 47-86 86t-60.5 135.5T328 799zm166 1042q57 0 90.5-34.5T618 1712q0-57-33.5-92t-82.5-35q-55 0-96 33-39 31-40 88 1 135 128 135zm352 0q59 0 92-34.5t33-94.5q0-57-34-92t-83-35q-55 0-95 33-38 31-38 88 0 135 125 135z"/><glyph unicode="×" horiz-adv-x="1110" d="M203 610q29 31 91 104.5T401 836q-35 31-67.5 64.5T267 974l-50 58 38 50 57.5 70 66.5 65q43-20 124-109.5t97-103.5l69 93q56 77 83 122l54-47 56.5-49 43-44.5L954 1016q-33-27-90-87.5T784 848l201-209q-57-104-178-197l-63 59-66 64-51 54q-27 29-37 47-51-59-199-215-102 59-188 159z"/><glyph unicode="Ø" horiz-adv-x="1536" d="M120 863q28 185 124 341 92 150 232 222 136 71 278 71h8q145-2 287-65l155 221 83-68q73-59 104-82l-37-63-40-71q-19-34-50-77 125-139 174-318 33-121 33-240 0-57-8-112-24-173-109-325-117-209-332-271Q942 3 856 2 713 2 555 68L406-158q-31 14-117 66.5T180-27q53 68 142 222-127 123-179 303-33 117-33 236 0 64 10 129zm291-121q-2-28-3-53 0-151 77-240 76 111 221.5 387T899 1190q-20 18-54 29.5t-84 12.5h-3q-49 0-111-40-63-41-121-121-100-140-115-329zm261-459q75-32 147-33 60 0 117 23 125 50 188 176 63 118 63 278v25q-5 176-85 270L912 689Q750 402 672 283z"/><glyph unicode="Ù" horiz-adv-x="1480" d="M100 1450q8-86 15.5-344t33-434T238 354Q373 59 608 18 713-1 799 0q140 0 231 49 88 49 162 182.5T1307 510q53 195 59 485 1 48 1 95 0 232-26 411-16 1-33 1-53 0-123-5-93-6-147-6 23-193 26-404v-29q0-197-38-408-41-226-133-304-64-54-136-53-82 0-173 69-66 49-97.5 247t-47 507-21.5 373l-25 2q-27 2-57 3-15 1-33 1t-38-1q-40-1-72.5-4t-59.5-13.5-33-26.5zm471 422q84 52 140 52 23 0 41-9 133-133 155-287-14-6-45-25.5t-53-27.5q-37 109-117 176-29 25-62.5 61.5T571 1872z"/><glyph unicode="Ú" horiz-adv-x="1480" d="M100 1450q6 16 33 26.5t59.5 13.5 72.5 4q20 1 38 1t33-1q31-1 57-3l25-2q6-63 21.5-372.5t47-507T584 362q92-70 173-69 72 0 136 53 92 78 133 304 38 211 38 408v29q-3 211-26 404 53 0 147 6 70 5 123 5 18 0 33-1 26-179 26-411 0-46-1-95-6-291-59-485-41-145-115-278.5T1030 49Q939 0 799 0q-86 0-191 18-236 41-370 336-63 141-89 317.5T115.5 1106 100 1450zm471 178q23 154 156 287 18 9 41 9 55 0 139-52-25-23-58.5-59.5T786 1751q-80-68-116-176-23 8-54 27.5t-45 25.5z"/><glyph unicode="Û" horiz-adv-x="1480" d="M100 1450q6 16 33 26.5t59.5 13.5 72.5 4q20 1 38 1t33-1q31-1 57-3l25-2q6-63 21.5-372.5t47-507T584 362q92-70 173-69 72 0 136 53 92 78 133 304 38 211 38 408v29q-3 211-26 404 53 0 147 6 70 5 123 5 18 0 33-1 26-179 26-411 0-46-1-95-6-291-59-485-41-145-115-278.5T1030 49Q939 0 799 0q-86 0-191 18-236 41-370 336-63 141-89 317.5T115.5 1106 100 1450zm277 158q51 102 241 401 10 0 108 5 54 3 84 3 24 0 34-2 43-57 148.5-232t109.5-181q-28-5-77-5-37 0-85 2-23 23-50.5 70t-59 108.5T784 1864q-20 1-37 1-34 0-55-5-27-37-79-131.5T532 1591q-31 2-59 0-10-1-19 0l-38 2q-29 5-39 15z"/><glyph unicode="Ü" horiz-adv-x="1480" d="M100 1450q8-86 15.5-344t33-434T238 354Q373 59 608 18 713-1 799 0q140 0 231 49 88 49 162 182.5T1307 510q53 195 59 485 1 48 1 95 0 232-26 411-16 1-33 1-53 0-123-5-93-6-147-6 23-193 26-404v-29q0-197-38-408-41-226-133-304-64-54-136-53-82 0-173 69-66 49-97.5 247t-47 507-21.5 373l-25 2q-27 2-57 3-15 1-33 1t-38-1q-40-1-72.5-4t-59.5-13.5-33-26.5zm465 391q57 0 91-34.5t34-94.5q0-57-33.5-92t-83.5-35q-55 0-96 33-39 31-39 88 0 135 127 135zm353 0q59 0 91.5-34.5t32.5-94.5q0-57-33.5-92t-82.5-35q-55 0-96 33-38 31-38 88 1 135 126 135z"/><glyph unicode="Ý" horiz-adv-x="1193" d="M55 1475q37 18 88 22 23 2 49 2 32 0 70-3 68-5 78-5 135-225 301-469 2 6 95 195.5T858 1487q46 13 120 13h11q82-1 148-13-31-131-183.5-375T780 823q-3-51-3-144.5t3-229.5q2-91 2-170 0-158-8-271Q698-2 635.5-2T524 8q-6 147-11 427t-9 388q-39 70-216.5 298.5T55 1475zm373 153q23 154 156 287 18 9 41 9 55 0 139-52-25-23-58.5-59.5T643 1751q-80-68-117-176-23 8-53.5 27.5T428 1628z"/><glyph unicode="Þ" horiz-adv-x="1067" d="M160 1501q16 1 32 1 25 0 51-2 44-3 94-7l75-6q16-111 20-379 23 0 71-1t66.5-2 55.5-4 54-8.5l47-15.5 49.5-23.5 43-35L864 971q89-110 89-297 0-180-81-252-37-35-93-55.5T688 341t-122-9-109-6q0-29 1-103v-46q0-44-1-79-2-51-13-90-59-9-148-9-52 0-114 3-2 182-10 711zm284-581q3-28 4-124 0-24-1-52v-85q0-78 2-127 57 0 102 6.5t91 25 70 60.5q22 39 21 95 0 130-77 170-61 32-173 31-19 1-39 0z"/><glyph unicode="ß" horiz-adv-x="1323" d="M146 664v96q0 469 10 698 119 37 286 44l64 2q135 0 264-25 160-31 234-97 70-61 109-169 29-79 29-168 0-32-3-66-14-127-101-215 90-72 111.5-135.5T1182 399q3-40 3-74 0-40-4-73-7-61-37-122.5T1041.5 35 854 0h-16Q732 0 664 25q-74 27-111 85t-48 128q-8 51-8 120 0 25 1 54 65 4 121 4t104-4q0-23-3-61t-2-50 6-32.5 18.5-28 39-13.5 66.5-8h9q88 0 113 74 12 37 12 78 0 44-14 92-28 92-75 143-41 43-101.5 63.5t-93 21.5-112.5 1q0 23 4 94 2 36 2 60t-2 37q20 0 67.5-1t78-1 71.5 7 65.5 21.5 41 43T930 1024q-2 96-56.5 157.5T735 1263q-73 17-149 16h-25q-90-3-174-28-5-116-5-342 0-113 1-254 1-121 1-224 0-261-7-421-23-6-65-6-60 0-158 12-7 105-8 648z"/><glyph unicode="à" horiz-adv-x="1251" d="M120 459v-14q0-158 68-297Q260 4 387 0q17-1 34-1 262 0 374 151-12-33-13-57 0-72 109-73h7q113 0 230 60 12 4 21 10-49 207-84 613.5T995 1208q-33 96-208 117-56 7-114 7-122 0-252-29-191-43-292-115-1-8-1-16 0-31 12-70 10-32 10-61 0-15-3-29 13 0 26-1 60 0 131 8 87 9 156.5 20.5T593 1059q42 5 73 5 16 0 28-1 39-4 49-27 16-37 21.5-73.5t7.5-98 4-88.5q-113 71-240 71-38 0-77-6-170-28-273-143-63-73-66-239zm229-43q11 76 40 102 33 31 87 56.5T607 610q14 2 28 2 61 0 113-37 9-39 8-79 0-17-1-33-5-57-26.5-105.5T638 271t-183-52q-7-1-15-1-54 0-76 57-18 45-18 95 0 23 3 46zm118 1341q84 52 139 52 23 0 41-9 133-133 156-287-14-6-45-25.5t-54-27.5q-37 109-116 176-29 25-62.5 61.5T467 1757z"/><glyph unicode="á" horiz-adv-x="1251" d="M153 459q3 166 66 239 102 115 273 143 39 6 77 6 127 0 240-71-2 27-4 88.5t-7 98-22 73.5q-10 23-49 27-13 1-29 1-31 0-72-5-62-8-132-19.5T337 1019q-71-8-131-8-13 0-26 1 3 14 3 29 0 29-10 61-12 39-12 70 0 8 1 16 100 72 292 115 130 29 252 29 58 0 114-7 175-20 208-117 35-98 70-504.5T1182 90q-86-53-213-67-26-3-48-4-106 0-106 75 0 21 12 56Q715 0 454-1q-17 0-34 1-127 4-199 148-69 138-69 297 1 7 1 14zm229-43q-3-23-3-46 0-50 17-95 23-57 77-57 7 0 14 1 115 14 183.5 52t90 86.5T787 463q2 17 2 33 0 40-9 79-52 37-112 37-14 0-28-2-77-10-131-35.5T422 518q-29-26-40-102zm75 1077q23 154 155 287 18 9 41 9 55 0 140-52-25-23-59-60t-62-61q-80-68-117-176-23 8-53.5 27.5T457 1493z"/><glyph unicode="â" horiz-adv-x="1251" d="M153 459q3 166 66 239 102 115 273 143 39 6 77 6 127 0 240-71-2 27-4 88.5t-7 98-22 73.5q-10 23-49 27-13 1-29 1-31 0-72-5-62-8-132-19.5T337 1019q-71-8-131-8-13 0-26 1 3 14 3 29 0 29-10 61-12 39-12 70 0 8 1 16 100 72 292 115 130 29 252 29 58 0 114-7 175-20 208-117 35-98 70-504.5T1182 90q-86-53-213-67-26-3-48-4-106 0-106 75 0 21 12 56Q715 0 454-1q-17 0-34 1-127 4-199 148-69 138-69 297 1 7 1 14zm109 1005q51 102 242 402 10 0 107 5 54 3 85 3 24 0 33-2 43-57 148.5-232.5T987 1458q-28-5-77-5-37 0-85 3-23 23-50 70t-59 108.5-46 85.5q-20 1-38 2-34 0-54-6-27-37-79.5-131T418 1448q-31 2-59.5 0t-57.5 2-39 14zM382 416q-3-23-3-46 0-50 17-95 23-57 77-57 7 0 14 1 115 14 183.5 52t90 86.5T787 463q2 17 2 33 0 40-9 79-52 37-112 37-14 0-28-2-77-10-131-35.5T422 518q-29-26-40-102z"/><glyph unicode="ã" horiz-adv-x="1251" d="M153 459q3 166 66 239 102 115 273 143 39 6 77 6 127 0 240-71-2 27-4 88.5t-7 98-22 73.5q-10 23-49 27-13 1-29 1-31 0-72-5-62-8-132-19.5T337 1019q-71-8-131-8-13 0-26 1 3 14 3 29 0 29-10 61-12 39-12 70 0 8 1 16 100 72 292 115 130 29 252 29 58 0 114-7 175-20 208-117 35-98 70-504.5T1182 90q-86-53-213-67-26-3-48-4-106 0-106 75 0 21 12 56Q715 0 454-1q-17 0-34 1-127 4-199 148-69 138-69 297 1 7 1 14zm103 1116q14 14 45 49t44 47 40 30.5 55 21.5q12 1 27 2 19 0 41-3 31-4 57.5-23.5t44-40T663 1627q19-6 41-6 20 0 44 5 27 4 81 30.5t72 31.5q31-22 45.5-38t24.5-45q3-9 3-19 0-20-16-40-27-10-72.5-32.5t-67-30.5-67.5-19q-19-4-35-4-22 0-38 8-49 12-95 54.5t-85 42.5q-33 0-58.5-16.5t-47-41T363 1477q-27 8-59 48t-48 50zM382 416q-3-23-3-46 0-50 17-95 23-57 77-57 7 0 14 1 115 14 183.5 52t90 86.5T787 463q2 17 2 33 0 40-9 79-52 37-112 37-14 0-28-2-77-10-131-35.5T422 518q-29-26-40-102z"/><glyph unicode="ä" horiz-adv-x="1251" d="M153 459q0-7-1-14 0-158 69-297Q293 4 420 0q17-1 34-1 262 0 373 151-12-33-12-57 0-72 109-73h7q113 0 230 60 12 4 21 10-49 207-84 613.5t-70 504.5q-33 96-208 117-56 7-114 7-122 0-252-29-191-43-292-115-1-8-1-16 0-31 12-70 10-32 10-61 0-15-3-29 13 0 26-1 60 0 131 8 87 9 156.5 20.5T626 1059q42 5 72 5 16 0 29-1 39-4 49-27 16-37 21.5-73.5t7.5-98 4-88.5q-113 71-240 71-38 0-77-6-170-28-273-143-63-73-66-239zm298 1239q57 0 90.5-35t33.5-94q0-57-33.5-92t-82.5-35q-55 0-97 33-39 31-39 88 1 135 128 135zM382 416q11 76 40 102 33 31 87 56.5T640 610q14 2 28 2 61 0 112-37 9-39 9-79 0-17-2-33-5-57-26.5-105.5t-90-86.5T487 219q-7-1-14-1-54 0-77 57-18 45-17 95 0 23 3 46zm421 1282q59 0 92-35t33-94q0-57-34-92t-83-35q-55 0-95 33-38 31-38 88 0 135 125 135z"/><glyph unicode="å" horiz-adv-x="1251" d="M120 459q3 166 66 239 102 115 273 143 39 6 77 6 127 0 240-71-2 27-4 88.5t-7 98-22 73.5q-10 23-49 27-13 1-28 1-31 0-73-5-62-8-132-19.5T304 1019q-71-8-131-8-13 0-26 1 3 14 3 29 0 29-10 61-12 39-12 70 0 8 1 16 100 72 292 115 130 29 252 29 58 0 114-7 175-20 208-117 35-98 70-504.5T1149 90q-86-53-213-67-26-3-48-4-106 0-106 75 0 21 13 56Q683 0 421-1q-17 0-34 1-127 4-199 148-69 138-68 297v14zm229-43q-3-23-3-46 0-50 18-95 23-57 76-57 7 0 15 1 115 14 183.5 52t90 86.5T755 463q2 17 1 33 0 40-8 79-52 37-113 37-14 0-28-2-77-10-131-35.5T389 518q-29-26-40-102zm57 1243q2 98 60 152.5t159 54.5q227 0 239-217 1-9 1-18 0-77-48-140-52-68-161-68h-7q-119 2-183 67-61 61-61 157 1 6 1 12zm126-23q10-98 105-102 41 0 68 24 29 26 28 72 0 113-90 113-59 0-87-29-24-25-24-65-1-7 0-13z"/><glyph unicode="æ" horiz-adv-x="1878" d="M129 514q27 106 99.5 195.5T425 827q54 13 116 13 80 0 172-21 7 37 7 99 0 41-3 94-2 63-100 75-28 4-57 4-75 0-166-22-126-31-220-82-16 172-14 207 102 74 242 113 92 25 193 25 53 0 110-7 162-20 278-119 88 84 241 107 45 7 87 6 99 0 180-37 145-68 215-249 66-171 66-402v-27q-143 4-320 4t-387-4v-18q0-186 79-274 83-91 281-91 96 0 132 70 32 62 33 140 0 9-1 18 39 0 223-17l2-45q0-253-176-330-108-48-254-48-47 0-99 5-210 20-273 111 8-38 8-74 0-18-2-35-64-2-112-2-95 0-122 9 4 16 4 40 0 31-6 74-35-72-132-109Q582 2 506 1q-33 0-67 5-114 16-187 86-84 84-117 200-18 64-18 125 0 49 12 97zm226-90q-2-15-1-30 0-55 21-107 31-61 115-65h8q81 0 151 62 74 65 74 171 0 96-37 128-33 28-125 28-12 0-24-1-72-2-123.5-58T355 424zm718 371q44-1 108-1t147 1q42 1 76 0 103 0 138-4-2 37-25.5 104.5T1436 1027q-54 61-119 61-4 0-8-1-121-8-171.5-67T1073 795z"/><glyph unicode="ç" horiz-adv-x="1421" d="M111 637q6 299 191 500 182 197 421 196h10q463-8 492-469-33-4-121-9t-143-11q-23 84-71 123t-134 39q-88-12-137.5-27.5T518 927t-72-105q-19-62-18-157v-20q6-207 104-307 94-96 227-96h11q92 2 149.5 33.5t74 76.5 22.5 95q3 22 2 41 0 26-4 49 63 25 258 47 51-92 50-177 0-25-4-51-19-109-97-194Q1110 39 883 2q21-32 21-87 0-26-5-56-14-96-72-189-93-136-261-135h-19q-182 8-375 148 25 57 104 215 27-20 66-53t56.5-45.5T450-222q20-6 43-6 15 0 31 3 72 8 88 94 5 26 5 51 0 56-25 103-238 27-362 200-120 169-120 399 1 7 1 15z"/><glyph unicode="è" horiz-adv-x="1394" d="M140 816q-28-111-28-212 0-103 29-196 33-100 118-187.5T452.5 78 681 7q41-5 80-5 75 0 143 20 103 30 179 129t95 257q-76 119-265 131 8-53 8-93 0-96-44-120-76-72-201-74h-6q-120 0-166 80-41 76-52 154-8 58-9 135 0 28 1 59h22q104 0 330 16 188 14 298 14 37 0 65-1 24 87 24 170 0 107-40 206-72 176-209 226-61 22-134 21-80 0-176-25-183-49-294-148-134-119-190-343zm329 30q-1 7-1 14 0 18 4 37 5 27 22.5 68t65.5 73.5 120 46.5q24 5 45 5 35 0 64-12 48-19 73-55t36-70.5 11-57.5q-378-49-433-49h-7zm59 891q84 52 139 52 23 0 42-9 133-133 155-287-14-6-45-25.5t-53-27.5q-37 109-117 176-29 25-62.5 61.5T528 1737z"/><glyph unicode="é" horiz-adv-x="1394" d="M140 816q56 224 190 343 111 98 294 148 96 26 176 25 74 0 134-21 137-49 209-226 40-99 40-206 0-83-24-170-28 2-65 1-110 0-298-14-226-17-330-16h-22q-1-31-1-59 0-77 9-135 11-79 52-154 46-80 166-80h6q125 2 201 74 45 25 44 120 0 40-8 93 188-12 265-131-18-158-94-257.5T904 22Q836 2 761 2q-39 0-80 5-120 15-228.5 70.5T259 220 141 408q-29 93-29 196 0 101 28 212zm329 30h7q55 0 433 49 0 23-11 57.5t-35.5 70.5-72.5 55q-29 12-64 12-22 0-46-5-72-14-120-46.5T494.5 965 472 897q-4-19-4-37 0-7 1-14zm59 647q23 154 156 287 18 9 41 9 55 0 139-52-25-23-58.5-60t-62.5-61q-80-68-116-176-23 8-54 27.5t-45 25.5z"/><glyph unicode="ê" horiz-adv-x="1394" d="M140 816q56 224 190 343 111 98 294 148 96 26 176 25 74 0 134-21 137-49 209-226 40-99 40-206 0-83-24-170-28 2-65 1-110 0-298-14-226-17-330-16h-22q-1-31-1-59 0-77 9-135 11-79 52-154 46-80 166-80h6q125 2 201 74 45 25 44 120 0 40-8 93 188-12 265-131-18-158-94-257.5T904 22Q836 2 761 2q-39 0-80 5-120 15-228.5 70.5T259 220 141 408q-29 93-29 196 0 101 28 212zm194 650q51 102 241 402 10 0 108 5 54 3 84 3 24 0 34-2 43-57 148.5-232.5T1059 1460q-29-5-78-4-37 0-84 2-23 23-50.5 70t-59 108.5T741 1722q-20 1-37 2-34 0-55-6-27-37-79-131t-81-137q-31 2-59.5 0t-57 2-38.5 14zm135-620h7q55 0 433 49 0 23-11 57.5t-35.5 70.5-72.5 55q-29 12-64 12-22 0-46-5-72-14-120-46.5T494.5 965 472 897q-4-19-4-37 0-7 1-14z"/><glyph unicode="ë" horiz-adv-x="1394" d="M140 816q-28-111-28-212 0-103 29-196 33-100 118-187.5T452.5 78 681 7q41-5 80-5 75 0 143 20 103 30 179 129t95 257q-76 119-265 131 8-53 8-93 0-96-44-120-76-72-201-74h-6q-120 0-166 80-41 76-52 154-8 58-9 135 0 28 1 59h22q104 0 330 16 188 14 298 14 37 0 65-1 24 87 24 170 0 107-40 206-72 176-209 226-61 22-134 21-80 0-176-25-183-49-294-148-134-119-190-343zm382 880q57 0 91-35t34-94q0-57-33.5-92t-83.5-35q-55 0-96 33-39 31-39 88 0 135 127 135zm-53-850q-1 7-1 14 0 18 4 37 5 27 22.5 68t65.5 73.5 120 46.5q24 5 45 5 35 0 64-12 48-19 73-55t36-70.5 11-57.5q-378-49-433-49h-7zm405 850q59 0 92-35t33-94q0-57-33.5-92t-82.5-35q-55 0-96 33-38 31-38 88 0 135 125 135z"/><glyph unicode="ì" horiz-adv-x="739" d="M164 954q12-102 24.5-317T216 252 260 8q27-6 92-6 24 0 55 1 110 3 160 24 0 84-6 438-4 213-4 346 0 89 2 143-43-2-103.5-6t-84-5-62.5-1-70.5 3-74.5 9zm39 447q84 52 139 52 23 0 41-9 133-133 156-287-14-6-45-25.5t-54-27.5q-37 109-116 176-29 25-62.5 61.5T203 1401z"/><glyph unicode="í" horiz-adv-x="739" d="M162 954q43-6 74.5-9t70.5-3 62.5 1 84 5 103.5 6q-2-54-2-143 0-134 4-346 6-354 6-438Q514 7 404 3q-30-1-54-1-65 0-92 6-29 74-44 244t-27.5 385T162 954zm39 207q23 154 155 287 18 9 41 9 55 0 140-52-25-23-59-59.5t-62-61.5q-80-68-117-176-23 8-53.5 27.5T201 1161z"/><glyph unicode="î" horiz-adv-x="1024" d="M172 1083q51 102 242 402 10 0 107 5 54 3 85 3 24 0 33-2 43-57 148.5-232.5T897 1077q-28-5-77-4-37 0-85 2-23 23-50.5 70t-59 108.5T580 1339q-20 1-38 2-34 0-55-6-27-37-79-131t-80-137q-31 2-59.5 0t-57.5 2-39 14zm156-129q43-6 74.5-9t70.5-3 62.5 1 84 5 103.5 6q-2-54-2-143 0-134 4-346 6-354 6-438Q680 7 570 3q-30-1-54-1-65 0-92 6-29 74-44 244t-27.5 385T328 954z"/><glyph unicode="ï" horiz-adv-x="966" d="M305 1430q57 0 91-35t34-95q0-57-34-91.5t-83-34.5q-55 0-96 32-39 31-39 89 0 135 127 135zm-31-476q12-102 24.5-317t28-385T371 8q27-6 92-6 24 0 54 1 110 3 161 24 0 84-6 438-4 213-4 346 0 89 2 143-43-2-103.5-6t-84-5-62.5-1-71 3-75 9zm383 476q59 0 92-35t33-95q0-57-33.5-91.5T666 1174q-55 0-96 32-38 31-38 89 0 135 125 135z"/><glyph unicode="ð" horiz-adv-x="1196"/><glyph unicode="ñ" horiz-adv-x="1478" d="M145 1272q23 8 117 14t135 45q35 4 52.5-16.5t20.5-48 13.5-55T514 1176q150 106 313 105 23 0 46-2 187-17 341-142 63-152 114-581 36-305 36-432 0-52-6-75-17-13-61-13-27 0-64 5-31 4-56 4-54 0-79-18-2 37-3 141t-3 198.5-18.5 210T1029 774t-85 136q-53 50-126 51h-11q-72-4-122-37t-76.5-92.5-42-126T548 548q-2-68-2-127v-38q1-74 5-168 3-63 3-108 0-23-1-41-45-29-92-45.5T356 0h-13q-48 0-81 27-27 207-59.5 628.5T145 1272zm224 303q14 14 44.5 49t44 47 40 30.5T553 1723q12 1 26 2 19 0 42-3 31-4 57.5-23.5t43.5-40 53-31.5q19-6 41-6 20 0 44 5 27 4 81 30.5t73 31.5q31-22 45-38t24-45q3-9 4-19 0-20-16-40-27-10-73-32.5t-67.5-30.5-67.5-19q-19-4-35-4-22 0-37 8-49 12-95.5 54.5T610 1565q-33 0-58.5-16.5t-47-41T475 1477q-27 8-58.5 48t-47.5 50z"/><glyph unicode="ò" horiz-adv-x="1449" d="M127 700q-2-32-2-65 0-124 31-248 33-145 186-268Q451 31 626 9q59-7 117-7 114 0 223 28 165 42 290.5 158.5T1397 469q1 19 1 39 0 175-115 395-128 246-259 332-92 59-232 84-67 12-131 12-69 0-133-14-123-29-214-119T180 982t-53-282zm293 68q10 199 170 240 63 14 119 14t104-14q96-29 160.5-100.5t98.5-164 34-195.5q0-107-79-188-81-82-169-98-29-5-56-5-150 0-261 143-122 157-122 339 0 15 1 29zm137 969q84 52 139 52 23 0 41-9 133-133 156-287-14-6-45-25.5t-53-27.5q-37 109-117 176-29 25-62.5 61.5T557 1737z"/><glyph unicode="ó" horiz-adv-x="1449" d="M127 700q10 156 53 282t134.5 216T528 1317q64 14 133 14 63 0 131-12 140-25 232-84 131-86 259-332 115-221 115-395 0-20-1-39-14-164-140.5-280.5T966 30Q857 2 743 2q-58 0-117 7-175 22-284 110-154 123-186 268-31 125-31 248 0 33 2 65zm293 68q-1-14-1-29 0-182 122-339 111-143 261-143 27 0 56 5 88 16 169 98 79 80 79 188 0 104-34 196t-98.5 163.5T813 1008q-48 14-104 14t-119-14q-160-41-170-240zm137 725q23 154 156 287 18 9 41 9 55 0 139-52-25-23-58.5-60t-62.5-61q-80-68-117-176-23 8-53.5 27.5T557 1493z"/><glyph unicode="ô" horiz-adv-x="1449" d="M127 700q10 156 53 282t134.5 216T528 1317q64 14 133 14 63 0 131-12 140-25 232-84 131-86 259-332 115-221 115-395 0-20-1-39-14-164-140.5-280.5T966 30Q857 2 743 2q-58 0-117 7-175 22-284 110-154 123-186 268-31 125-31 248 0 33 2 65zm235 740q51 102 242 401 10 0 108 5 54 3 84 3 24 0 33-2 43-57 148.5-232t109.5-181q-29-5-77-5-37 0-84 3-23 23-50.5 69.5t-59.5 108-46 86.5q-20 1-37 1-34 0-55-5-27-37-79-131.5T518 1423q-31 2-59.5 0t-57.5 2.5-39 14.5zm58-672q-1-14-1-29 0-182 122-339 111-143 261-143 27 0 56 5 88 16 169 98 79 80 79 188 0 104-34 196t-98.5 163.5T813 1008q-48 14-104 14t-119-14q-160-41-170-240z"/><glyph unicode="õ" horiz-adv-x="1449" d="M127 700q10 156 53 282t134.5 216T528 1317q64 14 133 14 63 0 131-12 140-25 232-84 131-86 259-332 115-221 115-395 0-20-1-39-14-164-140.5-280.5T966 30Q857 2 743 2q-58 0-117 7-175 22-284 110-154 123-186 268-31 125-31 248 0 33 2 65zm227 854q14 14 45 49t44.5 47.5 40 31T539 1703q12 1 26 1 19 0 41-2 31-4 57.5-23.5t44-40T761 1607q19-6 41-6 20 0 44 5 27 4 81 30.5t72 30.5q31-22 45.5-37.5t24.5-45.5-12-58q-27-10-73-33t-67.5-31-67.5-18q-19-4-35-4-22 0-38 8-49 12-95 54t-85 42q-33 0-58.5-16.5t-47-41T461 1456q-27 8-59 48t-48 50zm66-786q-1-14-1-29 0-182 122-339 111-143 261-143 27 0 56 5 88 16 169 98 79 80 79 188 0 104-34 196t-98.5 163.5T813 1008q-48 14-104 14t-119-14q-160-41-170-240z"/><glyph unicode="ö" horiz-adv-x="1449" d="M127 700q-2-32-2-65 0-124 31-248 33-145 186-268Q451 31 626 9q59-7 117-7 114 0 223 28 165 42 290.5 158.5T1397 469q1 19 1 39 0 175-115 395-128 246-259 332-92 59-232 84-67 12-131 12-69 0-133-14-123-29-214-119T180 982t-53-282zm293 68q10 199 170 240 63 14 119 14t104-14q96-29 160.5-100.5t98.5-164 34-195.5q0-107-79-188-81-82-169-98-29-5-56-5-150 0-261 143-122 157-122 339 0 15 1 29zm131 917q57 0 91-34.5t34-94.5q0-57-34-92t-83-35q-55 0-96 33-39 31-39 89 0 134 127 134zm352 0q59 0 92-34.5t33-94.5q0-57-33.5-91.5T911 1430q-55 0-95 32-38 31-38 89 0 134 125 134z"/><glyph unicode="÷" horiz-adv-x="1024" d="M169 805q-3 34-3 60 0 30 4 48 69 13 250 14 45 0 98-1 131-2 210-2t106 2q4-16 14-48t16-54.5 6-52.5-12-54q-106-16-210-20-39-1-86-1-80 0-184 3-167 5-208 6 3 12 3 34 0 26-4 66zm234 231q-3 14-2 28 0 62 56 96 42 26 86 26 27 0 56-9 75-26 75-104-27-74-124-90-19-3-35-3-72 0-112 56zm13-528q-4 15-4 29 0 65 90 94 14 4 30 4 28 0 66-11 64-19 64-74 0-48-51-80-43-27-91-27-13 0-26 2-64 10-78 63z"/><glyph unicode="ø" horiz-adv-x="1449" d="M124 772q26 166 112 305 82 133 206 198 121 63 247 62h8q130-2 257-57l138 197q14-10 77.5-62.5t90.5-71.5q-16-25-34-57.5t-36.5-62L1145 1155q113-125 157-285 30-107 29-212 0-51-7-102-22-155-99-290Q1123 80 930 25 859 5 783 4 654 4 512 63L379-139q-29 14-105.5 60T178-23q47 59 127 197-113 111-160 271-31 104-30 211 0 58 9 116zm260-108q-2-24-2-47 0-135 69-216 66 98 196.5 344T821 1063q-18 16-49 26.5t-76 11.5h-2q-44 0-99-36-56-37-108-109-90-124-103-292zm234-410q67-29 132-29 53 0 103 20 112 44 167 156 56 109 56 256v16q-3 157-75 240-37-61-176-309T618 254z"/><glyph unicode="ù" horiz-adv-x="1452" d="M150 562q41-321 165-394 96-98 206-140Q586 3 660 3q50 0 104 11 133 29 262 140 12-70 84-81 20-3 41-3 52 0 103 20 73 29 104 64-10 127-14.5 351T1327 925.5t-51 366.5q-65 13-147.5 13.5T944 1292l6-116q6-134 7-241 0-201-23-304-56-240-247-241-69 0-157 32-61 86-74 244-12 137-12 295v50q0 17 1 33 0 163-19 248-12 2-113.5 12.5T158 1333q-27-246-27-453 0-172 19-318zm407 1154q84 52 139 52 23 0 41-9 133-133 156-286-14-6-45-26t-53-28q-37 109-117 176-29 25-62.5 61.5T557 1716z"/><glyph unicode="ú" horiz-adv-x="1452" d="M150 562q-19 146-19 318 0 207 27 453 53-18 154.5-28.5T426 1292q19-86 19-248 0-16-1-33v-50q0-159 12-295 13-158 74-244 97-32 167-32h4q71 1 119 39t77 95.5 43 137T957 825q2 42 2 86t-2 90q-3 92-7 175-4 80-6 116 101 13 184 13.5t148-13.5q39-170 51-366.5t16.5-420.5 14.5-351q-31-35-104-64-52-21-103-20-20 0-41 3-72 11-84 81Q897 43 764 14 710 2 660 3q-73 0-139 25-110 42-206 140-124 73-165 394zm407 890q23 154 156 287 18 9 41 9 55 0 139-52-25-23-58.5-60t-62.5-61q-80-68-117-176-23 8-53.5 27.5T557 1452z"/><glyph unicode="û" horiz-adv-x="1452" d="M150 562q-19 146-19 318 0 207 27 453 53-18 154.5-28.5T426 1292q19-86 19-248 0-16-1-33v-50q0-159 12-295 13-158 74-244 97-32 167-32h4q71 1 119 39t77 95.5 43 137T957 825q2 42 2 86t-2 90q-3 92-7 175-4 80-6 116 101 13 184 13.5t148-13.5q39-170 51-366.5t16.5-420.5 14.5-351q-31-35-104-64-52-21-103-20-20 0-41 3-72 11-84 81Q897 43 764 14 710 2 660 3q-73 0-139 25-110 42-206 140-124 73-165 394zm212 857q51 102 242 402 10 0 108 5 54 3 84 3 24 0 33-2 43-57 148.5-232.5T1087 1413q-29-5-77-5-37 0-84 3-23 23-50.5 70T816 1589.5t-46 85.5q-20 1-37 2-34 0-55-6-27-37-79-131t-81-137q-31 2-59 0-10-1-19-1l-39 3q-29 4-39 14z"/><glyph unicode="ü" horiz-adv-x="1452" d="M150 562q41-321 165-394 96-98 206-140Q586 3 660 3q50 0 104 11 133 29 262 140 12-70 84-81 20-3 41-3 52 0 103 20 73 29 104 64-10 127-14.5 351T1327 925.5t-51 366.5q-65 13-147.5 13.5T944 1292l6-116q6-134 7-241 0-201-23-304-56-240-247-241-69 0-157 32-61 86-74 244-12 137-12 295v50q0 17 1 33 0 163-19 248-12 2-113.5 12.5T158 1333q-27-246-27-453 0-172 19-318zm401 1124q57 0 91-35t34-95q0-57-34-91.5t-83-34.5q-55 0-96 32-39 31-39 89 0 135 127 135zm352 0q59 0 92-35t33-95q0-57-33.5-91.5T911 1430q-55 0-95 32-38 31-38 89 0 135 125 135z"/><glyph unicode="ý" horiz-adv-x="1251" d="M141 679q4 120 14.5 281.5T166 1186q57-10 164-20 64-6 100-5 24 0 37 2 1-12 1-28 0-72-15-224-16-160-16-300v-46q3-160 57-243 33-40 117-41 15 0 31 2 110 8 177 49 29 16 34 114 2 33 2 68 0 69-7 144-10 114-20 252-8 113-7 179v27q89 34 223 34 27 0 56-1 25-193 74-873 5-66 4-126 0-455-275-543-84-28-206-28-41 0-86 3-179 12-257 62-80 51-112.5 128.5T207-6q49 5 73 5h7q23-1 86-13.5T459-29q-2-37 14-61.5t41-37.5 68-19.5 77.5-7.5 90.5-1q86 2 128 97 32 73 32 134 0 18-3 36-80-80-210-96-33-4-64-3-96 0-189 34-123 46-188.5 134T164 414q-23 126-23 233-1 16 0 32zm316 712q23 154 155 286 18 9 41 9 55 0 140-52-25-23-59-59.5t-62-61.5q-80-68-117-176-23 8-53.5 28t-44.5 26z"/><glyph unicode="þ" horiz-adv-x="1024" d="M135 1501q16 1 32 1 25 0 51-2 44-3 94-7l75-6q16-111 21-379 23 0 70.5-1t66-2 55.5-4 54.5-8.5l47-15.5 49-23.5 43-35L840 971q89-110 89-297 0-180-81-252-37-35-93.5-55.5t-91-25.5-121.5-9-110-6q0-29 1-103v-46q0-44-1-79-2-51-12-90-59-9-149-9-52 0-113 3-2 182-11 711zm285-581q3-28 3-124V659q0-78 1-127 57 0 102 6.5t91.5 25T687 624q22 39 22 95 0 130-77 170-61 32-173 31-19 1-39 0z"/><glyph unicode="ÿ" horiz-adv-x="1251" d="M141 679q-1-16 0-32 0-107 23-233 27-145 92.5-233.5T444 46q92-35 189-34 32 0 64 3 130 15 210 96 3-17 3-36 0-62-32-134-42-94-128-97-55 0-90 1t-78 7.5-68 19.5-41 37.5T459-29q-23 2-86.5 14.5T287-1h-7q-24 0-73-5 2-143 34.5-221T354-356q78-49 257-62 45-3 86-3 122 0 206 28 275 89 275 543 0 60-4 126-49 680-74 873-29 1-56 1-134 0-223-34v-27q0-66 7-179 9-138 20-252 7-76 7-144 0-34-2-68-5-98-34-114-68-41-177-49l-31-2q-84 0-117 41-53 84-57 243v46q0 140 16 300 15 152 15 224 0 16-1 28-12-2-37-2-37 0-100 5-106 9-164 20 0-63-10.5-225T141 679zm310 884q57 0 90.5-35t33.5-94q0-57-33.5-92t-82.5-35q-55 0-97 32-39 31-39 89 1 135 128 135zm352 0q59 0 92-35t33-94q0-57-34-92t-83-35q-55 0-95 32-38 31-38 89 0 135 125 135z"/><glyph unicode="Œ" horiz-adv-x="1705" d="M131 788q0 315 146.5 501T682 1499q15 2 34 2 39 0 95-8 84-12 154-53 68-6 309-7 80 0 141-1 122 0 166 2 0-33 3-100.5t5-121.5q-125-2-432-2 6-29 7-85 1-28 1-57.5t-1-59.5q-1-61-1-78 34-1 77-1 64 0 145.5 2t133.5 2q35 0 56-1 4-49 4-95 0-91-16-165-32-2-73-2-61 0-140 4-133 6-197 6-1-14-1-47 0-49 2-141 1-66 1-111 0-60-2-84h428q4-39 4-234-127-5-417-4H956Q823 0 676 0 570 0 486.5 22.5T347 81t-97 96.5T186.5 298t-35 148.5-16.5 163-4 178.5zm264-32q14-506 240-508h6q243 0 242 476v54q-2 111-7.5 177.5t-18.5 134-35.5 102.5-61.5 55q-35 19-84 19h-10q-135-8-206-156-65-136-65-322v-32z"/><glyph unicode="œ" horiz-adv-x="2260" d="M133 639q-1 19-1 37 0 255 160 437 168 192 410 192h11q115-2 196.5-17.5T1037 1242t68.5-52.5 43-58 27.5-44.5q175 242 398 242h15q104-4 198.5-45t172.5-119 122-207q42-123 42-278v-14q-46 2-103 2-114 0-272-9-204-11-361-10h-51q10-170 107-291 90-113 218-113 9 0 17 1 68 4 109 31.5t53 67.5 17 86q2 18 1 36 0 27-4 53 44 10 111.5 10t157.5-10q14-62 14-119 0-135-78-246Q1951-2 1704-2h-6q-162 2-316.5 67.5T1176 236q-2-4-9-15-23-43-45-70.5T1048.5 80 912 16Q841-1 750-1q-18 0-37 1-135 6-234.5 39T302 143.5 183 339t-50 300zm277 33q0-155 82-264 82-111 232-111h5q164 2 243 101 67 84 67 232 0 27-3 56-23 352-338 352-139 0-213.5-101.5T410 672zm952 153l119 2q30 0 61-1 46-1 93.5-.5t96.5.5q97 1 140 5-4 106-67.5 182.5T1628 1092h-7q-117 0-181-62-66-64-78-205z"/><glyph unicode="Ÿ" horiz-adv-x="1193" d="M55 1475q55-125 232.5-353.5T504 823q4-109 9-388T524 8Q573-2 635.5-2T774 8q8 112 8 271 0 79-2 170-3 136-3 229.5t3 144.5q20 45 173 289t184 375q-66 12-148 13h-11q-74 0-120-13-29-80-122-269.5T641 1022q-166 244-301 469-10 0-78 5-38 3-70 3-26 0-49-2-51-4-88-22zm367 366q57 0 91-34.5t34-94.5q0-57-34-92t-83-35q-55 0-96 33-39 31-39 88 0 135 127 135zm352 0q59 0 92-34.5t33-94.5q0-57-34-92t-83-35q-55 0-95 33-38 31-38 88 0 135 125 135z"/><glyph unicode="ˆ" horiz-adv-x="937" d="M104 1092q51 102 242 401 10 0 108 5 54 3 84 3 24 0 33-2 43-57 148.5-232T829 1085q-29-5-77-4-37 0-84 2-23 23-50.5 70T558 1261.5t-46 86.5q-20 1-38 1-34 0-54-6-27-37-79-131t-81-137q-31 2-59 0-10-1-19 0l-39 2q-29 5-39 15z"/><glyph unicode="˜" horiz-adv-x="980" d="M160 1350q14 14 45 49t44 47 39.5 30.5T344 1498q12 1 27 1 19 0 41-2 31-4 57.5-23.5t43.5-40 53-31.5q19-6 41-6 20 0 44 5 27 4 81 30.5t73 30.5q31-22 45-37.5t24-45.5q3-9 4-18 0-20-16-40-27-10-73-32.5t-67.5-31T654 1239q-19-4-35-4-22 0-37 8-49 12-95.5 54t-85.5 42q-33 0-58.5-16t-47-41-29.5-31q-27 8-58.5 48.5T160 1350z"/><glyph unicode="–" horiz-adv-x="1153" d="M159 847q0 72 29 118 56-5 206-6 199 0 564 10 2-4 10.5-24.5T980 914l10-29q7-20 9-33.5l5-33.5q1-10 1-19.5t-1-19.5q-2-19-7-38-133-23-434-25.5T195 707q-36 61-36 140z"/><glyph unicode="—" horiz-adv-x="1622" d="M193 711q-3 35-3.5 96.5T193 958q98 0 313 4.5t305 4.5q45 0 151.5 1t167 1 157.5-3 190-12V717q-48-11-349-11-107 0-247 2-379 4-568 3-75 1-120 0z"/><glyph unicode="‘" horiz-adv-x="768" d="M244 1370q43 125 149 131h8q40 0 84-18-6-14-24.5-47t-25.5-50.5-16-52.5 3-53q80-4 112-56 20-32 19-69 0-22-7-46-19-62-73-97-20-3-38-3-122 0-179 117-31 66-31 135 0 53 19 109z"/><glyph unicode="’" horiz-adv-x="724" d="M212 1404q19 62 73 97 20 3 38 3 122 0 179-118 31-66 31-134 0-54-19-109-43-125-152-131h-7q-40 0-85 18 6 12 25.5 46t27 50.5 16.5 52-3 54.5q-80 4-112 56-20 32-19 69 0 22 7 46z"/><glyph unicode="‚" horiz-adv-x="638" d="M146 173q19 62 73 97 20 3 39 3 122 0 178-117 31-66 31-135 0-54-18-109-43-125-152-131h-8q-40 0-84 18 6 12 25.5 46t26.5 50.5T273.5-52 270 2q-80 4-111 56-20 32-20 69 0 22 7 46z"/><glyph unicode="“" horiz-adv-x="1110" d="M221 1370q41 125 150 131h8q40 0 84-18-6-14-24.5-46t-27-50.5T395 1333t4-53q78-4 110-56 20-33 20-71 0-22-7-44-18-62-71-97-20-3-39-3-122 0-179 117-31 66-31 135 0 53 19 109zm389 0q43 125 152 131h8q40 0 84-18l-19-37-22-40q-8-15-18.5-41t-9.5-42 6-43q78-4 109-56 20-33 20-71 0-22-7-44-18-62-71-97-20-3-39-3-122 0-178 117-33 67-33 137 0 53 18 107z"/><glyph unicode="”" horiz-adv-x="1107" d="M209 1400q18 62 72 97 20 3 38 3 122 0 179-118 31-66 31-134 0-54-19-109-41-125-150-131-4 0-7-1-40 0-85 19 6 14 24.5 46t27 50.5 16.5 53-4 53.5q-78 4-110 56-20 33-20 70 0 22 7 45zm391 0q18 62 72 97 20 3 38 3 122 0 179-118 31-66 31-134 0-54-19-109-41-125-149-131-4 0-8-1-40 0-85 19 6 14 24.5 47t26 50.5 16.5 52-3 53.5q-78 4-110 56-20 33-20 70 0 22 7 45z"/><glyph unicode="„" horiz-adv-x="1067" d="M166 177q18 62 72 97 20 3 38 3 122 0 179-117 31-66 31-135 0-54-19-109-41-125-150-131h-7q-40 0-85 18 6 14 24.5 46t27 50.5T293-47t-4 53q-78 4-110 56-20 33-20 71 0 21 7 44zm391 0q18 62 72 97 20 3 38 3 122 0 179-117 31-66 31-135 0-54-19-109-41-125-149-131h-8q-40 0-85 18 6 14 24.5 47t26 50.5T683-47t-3 53q-78 4-110 56-20 33-20 71 0 21 7 44z"/><glyph unicode="•" horiz-adv-x="638" d="M198 1030q42 47 138 49h9q89 0 119-40 32-42 32-132 0-78-48.5-126T319 731h-7q-75 0-118 42t-43 117q1 88 47 140z"/><glyph unicode="…" horiz-adv-x="1662" d="M182 96q-1 12-1 23 0 94 93 131 40 15 80 15 54 0 107-29 83-45 82-131 0-21-4-44Q486 1 385 1q-16 0-34 2-126 11-169 93zm451 0q-1 12-1 23 0 94 95 131 40 15 80 15 54 0 106-29 81-44 81-130 0-21-5-45Q936 1 836 2q-16 0-34 1-126 11-169 93zm469 0q-1 12-1 23 0 94 95 131 40 15 80 15 54 0 106-29 81-44 81-130 0-21-5-45-51-60-151-60-16 0-34 2-126 11-171 93z"/><glyph unicode="‹" horiz-adv-x="1236" d="M133 893q164 199 483.5 423t495.5 259q6-33 6-275l-100-67-108-73-97-67q-66-46-104-76l-93-73q-53-43-96-84l-84-84q86-135 327-331.5T1071 217q23-172-8-287-129 55-453.5 303T143 649q-6 33-7 132.5T133 893z"/><glyph unicode="›" horiz-adv-x="1280" d="M209 1575q102-29 303-172t403.5-307T1153 909q12-49 12-176 0-48-2-106-43-43-253-224.5T571 121Q465 39 223-70q-2 21-2 53 0 40 3 96 5 101 5 116 29 35 309.5 268T885 780q-137 125-332 274.5T217 1286v18q1 59-8 271z"/><glyph unicode="€" d="M133 838q12 147 14 166 20 1 54 1 16 0 35.5-.5t39.5-.5q40 0 82 2 4 18 11.5 67t12.5 69.5 17.5 59.5 32 76 49.5 82q49 72 166 107 110 34 232 34h14q129-2 260-18 31-41 34-103 1-12 0-24 0-48-9-88-35-4-198-4t-218-13q-109-45-162-245 55 6 168 7h43q82 0 131-3 33-57 40-90 2-9 2-22 0-31-13-83-41-5-98-5-51 0-116 4-111 8-153 8-9 0-14-1-2-6-2-21 0-31 8-100 41-8 122-7h52q121 3 170 16 23-47 23-139 0-40-5-89-58-1-108-1-183 0-250 18-1-6-1-12 0-36 22-82 25-52 79-93 70-52 397-52 35 0 72 1h35q15-40 16-86 0-36-7-87-7-58-7-81-131-4-226-4-153 0-217 10-103 16-251 119-68 47-114 130t-55 121l-26 114q-10 0-53-1-11 0-20-1-30 0-51 3-29 3-39 13-4 43-5 79 0 50 9 87 32 10 81 10 31 0 68-4v143q-11 4-42 4-21 0-51-2-17-1-30-1-46 1-51 12z"/><glyph unicode="™" horiz-adv-x="1452" d="M233 1487q19 1 66.5 1t121.5-1 129-1 91 1q4-39 4-73.5t-4-63.5q-20 0-65.5-2t-71.5-2q3-49 2-92 0-56-4-99-27-4-64-4h-47q-4 31-5 101.5t-3 93.5q-20 0-72-3-26-1-44.5-1t-30.5 1q1 12 1 31t-1 43q-3 50-3 70zm476 4q27 4 110 4 41-33 182-195 121 133 158 195 27 2 64 3t63 3q16-101 16-243 0-43-2-89-41-7-74-7-23 0-42 3-6 47-7 108.5t-3 74.5q-18-29-40-59l-49-64-43-56h-42q-30 0-37 2-96 131-140 181 0-29 2-75t2-66.5-2-53.5q-31-6-61-6l-49 4q2 28 2 68 0 50-3 117-5 122-5 151z"/><glyph unicode="" horiz-adv-x="1235" d="M0 1235h1235V0H0v1235z"/><glyph unicode="ﬁ" horiz-adv-x="1536" d="M140 617q3 101 42 153 6 0 209 6-2 56-1 114 0 243 28 503 6 72 147 96 81 14 164 14 62 0 126-8 148-18 183-53 17-81 18-133 0-33-7-54-18 1-56 2-75 0-225-6-29-2-49.5-14t-30.5-39-16-53.5-6-74.5 1-83 4-98l5-103q343-23 563-23 73 0 133 3-1-30-1-67 0-121 10-321 13-261 14-358-84-2-149-1-97 0-152 4-12 117-17 469-256 0-364-5 2-74 19-245 14-139 14-206 0-16-1-28-10 1-23 1-33 0-84-4-73-5-131-5t-87 16q-6 39-7 67t-1 55v116q0 88-4 207-11 0-27-1-62 0-199 7-42 46-42 138v12z"/><glyph unicode="ﬂ" horiz-adv-x="1576" d="M110 614q3 100 42 152 35 4 105.5 4t100.5 2q-2 52-1 108 0 223 26 502 8 70 168 98 131 23 259 22 28 0 56-1l156-6q147-2 364-2 29-119 38-641 2-115 2-220 0-373-25-624-41-8-116-8-64 0-152 6-7 7-7 79 0 36 1 88 5 157 6 179-4 164-16.5 448.5T1100 1241q-127 3-218.5 3t-148.5-3q-29 0-49-12t-31.5-40-17.5-53.5-6-73.5 1-83 4-98.5 5-100.5q25-2 96.5-5t130-7T971 756q33-49 45-143 3-25 3-45 0-54-24-70-20-10-72-13-26-1-59-1t-72.5 1-68.5 1-47-1q2-63 19-237 14-141 14-210V10q-10 1-23 1-32 0-84-4-60-4-109-4h-20q-57 1-86 15-6 41-8 68t-2 54v115q0 87-4 204-10 0-26-1-60 0-195 7-42 46-43 137 1 6 1 12z"/><glyph unicode="ﬃ" horiz-adv-x="3241" d="M159 620q3 101 42 152 6 0 209 6-2 56-2 114 0 243 28 503 6 72 148 96 81 14 164 14 62 0 125-8 148-18 184-53 18-75 18-127 0-35-8-60-19 1-56 2-75 0-223-6-29-2-49-14t-31.5-38.5T690 1147t-6-76 1-83 4-98.5 5-101.5q23-2 96.5-5t132-8 107.5-13q33-49 44-144 3-24 3-43 0-56-24-71-20-10-80-14-36-2-72-1h-49q-31 1-61 1t-60-1q2-74 20-245 14-139 14-206 0-16-1-28-10 1-23 1-33 0-85-4-73-5-131-5t-87 16q-6 39-7 67t-1 55v116q0 88-4 207-11 0-26-1-62 0-199 7-42 46-42 138v13zm1251 0q3 101 42 152 6 0 209 6-2 56-2 114 0 243 29 503 6 72 147 96 81 14 164 14 62 0 126-8 148-18 183-53 18-75 19-127 0-35-9-60-19 1-56 2-75 0-222-6-29-2-49.5-14t-31.5-38.5-17.5-53.5-6.5-76 1-83 4.5-98.5L1946 788q23-2 96.5-5t131.5-8 107-13q33-49 45-144 3-24 2-43 0-56-24-71-20-10-80-14-36-2-72-1h-49q-31 1-61 1t-60-1q2-74 20-245 14-139 14-206 0-16-1-28-10 1-23 1-33 0-84-4-73-5-131.5-5T1690 18q-6 39-7.5 67t-1.5 55v116q0 88-4 207-11 0-26-1-62 0-199 7-42 46-42 138v13zm1263 334q12-102 24.5-317t27.5-385 44-244q27-6 92-6 24 0 54 1 110 3 161 24 0 84-6 438-4 213-4 346 0 89 2 143-43-2-103.5-6t-84-5-62.5-1-70.5 3-74.5 9zm37 301q-4 37-5 69 0 106 48 142t152 36q32 0 69-3 88-69 88-152 0-31-13-65-33-88-122-123-33-13-64-13-72 0-129 73-14 16-24 36z"/><glyph unicode="ﬄ" horiz-adv-x="3270" d="M159 620q3 101 42 152 6 0 209 6-2 56-2 114 0 243 28 503 6 72 148 96 81 14 164 14 62 0 125-8 148-18 184-53 18-75 18-127 0-35-8-60-19 1-56 2-75 0-223-6-29-2-49-14t-31.5-38.5T690 1147t-6-76 1-83 4-98.5 5-101.5q23-2 96.5-5t132-8 107.5-13q33-49 44-144 3-24 3-43 0-56-24-71-20-10-80-14-36-2-72-1h-49q-31 1-61 1t-60-1q2-74 20-245 14-139 14-206 0-16-1-28-10 1-23 1-33 0-85-4-73-5-131-5t-87 16q-6 39-7 67t-1 55v116q0 88-4 207-11 0-26-1-62 0-199 7-42 46-42 138v13zm1251 0q3 101 42 152 6 0 209 6-2 56-2 114 0 243 29 503 6 72 147 96 81 14 164 14 62 0 126-8 148-18 183-53 18-75 19-127 0-35-9-60-19 1-56 2-75 0-222-6-29-2-49.5-14t-31.5-38.5-17.5-53.5-6.5-76 1-83 4.5-98.5L1946 788q23-2 96.5-5t131.5-8 107-13q33-49 45-144 3-24 2-43 0-56-24-71-20-10-80-14-36-2-72-1h-49q-31 1-61 1t-60-1q2-74 20-245 14-139 14-206 0-16-1-28-10 1-23 1-33 0-84-4-73-5-131.5-5T1690 18q-6 39-7.5 67t-1.5 55v116q0 88-4 207-11 0-26-1-62 0-199 7-42 46-42 138v13zm1291 848q63 34 129 35 13 0 27-2 80-8 149-53 27-113 33-607 1-82 1-160 0-386-25-644-23-4-66-15.5T2868 5q-27-4-55-4-11 0-24 1-27 33-32 76-4 29-4 65 0 18 1 38 2 36 1 59v24q-53 750-54 1174v30z"/></font>
</defs>
</svg>
