<?xml version="1.0" encoding="utf-8"?>
<!-- Generator: Adobe Illustrator 16.0.0, SVG Export Plug-In . SVG Version: 6.00 Build 0)  -->
<!DOCTYPE svg PUBLIC "-//W3C//DTD SVG 1.1//EN" "http://www.w3.org/Graphics/SVG/1.1/DTD/svg11.dtd">
<svg version="1.1" id="Layer_1" xmlns="http://www.w3.org/2000/svg" xmlns:xlink="http://www.w3.org/1999/xlink" x="0px" y="0px"
	 width="400px" height="400px" viewBox="0 0 400 400" enable-background="new 0 0 400 400" xml:space="preserve">
<path fill="#010101" d="M255.539,360.362c-9.653-19.306-9.653-44.256-9.653-62.473c0-13.736-4.562-26.42-12.236-36.64v-12.305
	l-12.276-221.61c-0.719-12.968-11.444-23.115-24.432-23.115h-24.472c-12.989,0-23.718,10.146-24.438,23.115l-12.271,221.61v12.308
	c-7.671,10.22-12.232,22.9-12.236,36.637c0,26.262,9.607,50.334,27.05,67.778c13.738,13.737,39.299,30.111,83.075,30.111h42.827
	L255.539,360.362z M209.177,248.945h-48.944L162.95,200h43.507L209.177,248.945z M196.941,28.693l8.836,159.07H163.63l8.838-159.07
	H196.941z M147.996,297.89c0.002-9.404,3.546-17.978,9.362-24.473h54.692c5.816,6.495,9.362,15.068,9.362,24.473
	c0,20.273,0.003,48.948,12.236,73.417C172.469,371.307,147.996,334.599,147.996,297.89z"/>
</svg>
