<svg xmlns="http://www.w3.org/2000/svg" width="400" height="400" viewBox="0 0 400 400"><path fill="#010101" d="M369.344 79.04v241.92H30.656V79.04h338.688m0-24.192H30.656c-13.36 0-24.192 10.833-24.192 24.192v241.92c0 13.36 10.832 24.192 24.192 24.192h338.688c13.36 0 24.192-10.832 24.192-24.192V79.04c0-13.36-10.832-24.192-24.192-24.192zm-241.92 108.864H109.28v-48.384c0-3.34-2.708-6.048-6.048-6.048s-6.048 2.708-6.048 6.048v48.384H79.04c-6.68 0-12.096 5.416-12.096 12.096V200c0 6.68 5.416 12.096 12.096 12.096h18.144v72.576c0 3.34 2.708 6.048 6.048 6.048s6.048-2.708 6.048-6.048v-72.576h18.144c6.68 0 12.096-5.416 12.096-12.096v-24.192c0-6.68-5.416-12.096-12.096-12.096zm0 36.288H79.04v-24.192h48.384V200zm96.768-60.48h-18.145v-24.192c0-3.34-2.708-6.048-6.048-6.048s-6.05 2.708-6.05 6.048v24.192h-18.143c-6.68 0-12.096 5.416-12.096 12.096v24.192c0 6.68 5.417 12.096 12.097 12.096h18.144v96.768c0 3.34 2.71 6.048 6.05 6.048s6.047-2.708 6.047-6.048v-96.768h18.145c6.68 0 12.096-5.416 12.096-12.096v-24.192c0-6.68-5.416-12.096-12.096-12.096zm0 36.288h-48.384v-24.192h48.384v24.192zM320.96 200h-18.144v-84.672c0-3.34-2.708-6.048-6.05-6.048-3.34 0-6.047 2.708-6.047 6.048V200h-18.145c-6.68 0-12.096 5.416-12.096 12.096v24.192c0 6.68 5.415 12.096 12.095 12.096h18.144v36.288c0 3.34 2.707 6.048 6.047 6.048s6.05-2.708 6.05-6.048v-36.288h18.143c6.68 0 12.096-5.416 12.096-12.096v-24.192c0-6.68-5.416-12.096-12.096-12.096zm0 36.288h-48.384v-24.192h48.384v24.192z"/></svg>