<svg xmlns="http://www.w3.org/2000/svg" width="400" height="400" viewBox="0 0 400 400"><path fill="#010101" d="M336.455 87.455l-71.73-71.73c-4.48-4.483-10.564-7.002-16.905-7.002H80.452c-13.205 0-23.91 10.705-23.91 23.91V367.37c0 13.202 10.705 23.908 23.91 23.908H319.55c13.202 0 23.908-10.706 23.908-23.91V104.362c0-6.34-2.52-12.42-7.003-16.905zM247.82 32.632l71.728 71.73h-71.73V32.63zm71.73 334.736H80.45V32.632h155.413v71.73c0 6.602 5.353 11.954 11.955 11.954h71.73v251.052zM196.168 116.1h-77.86c-7.44 0-13.49-5.813-13.49-12.957v-35.19c0-7.145 6.05-12.957 13.49-12.957h77.86c7.438 0 13.49 5.812 13.49 12.956v35.19c0 7.145-6.052 12.957-13.49 12.957zm-78.352-13.134c.077.054.233.133.49.133h77.86c.258 0 .414-.08.49-.134V68.128c-.076-.054-.232-.133-.49-.133h-77.86c-.257 0-.413.08-.49.133v34.838zM279.87 256.383H118.554c-6.267 0-13.737-2.248-13.737-12.956v-45.19c0-10.708 7.47-12.957 13.737-12.957H279.87c6.267 0 13.737 2.248 13.737 12.957v45.19c0 10.708-7.47 12.956-13.737 12.956zm-162.054-13.018c.212.01.457.018.737.018H279.87c.28 0 .524-.007.737-.018v-45.067c-.213-.012-.457-.02-.737-.02H118.554c-.28 0-.525.008-.737.02v45.067zM287.107 159.907h-175.79c-3.59 0-6.5-2.91-6.5-6.5s2.91-6.5 6.5-6.5h175.79c3.59 0 6.5 2.91 6.5 6.5s-2.91 6.5-6.5 6.5zM180.723 294.574h-69.407c-3.59 0-6.5-2.91-6.5-6.5s2.91-6.5 6.5-6.5h69.407c3.59 0 6.5 2.91 6.5 6.5s-2.91 6.5-6.5 6.5zM287.107 294.574H217.7c-3.59 0-6.5-2.91-6.5-6.5s2.91-6.5 6.5-6.5h69.407c3.59 0 6.5 2.91 6.5 6.5s-2.91 6.5-6.5 6.5zM180.723 334.455h-69.407c-3.59 0-6.5-2.91-6.5-6.5s2.91-6.5 6.5-6.5h69.407c3.59 0 6.5 2.91 6.5 6.5s-2.91 6.5-6.5 6.5z"/><path fill="none" stroke="#010101" stroke-width="13" stroke-linecap="round" d="M217.7 327.955h69.407"/></svg>