<svg xmlns="http://www.w3.org/2000/svg" width="400" height="400" viewBox="0 0 400 400"><path fill="#010101" d="M255.54 360.362c-9.654-19.306-9.654-44.256-9.654-62.473 0-13.737-4.562-26.42-12.236-36.64v-12.306l-12.276-221.61c-.72-12.968-11.444-23.115-24.432-23.115H172.47c-12.99 0-23.718 10.145-24.438 23.114l-12.27 221.61v12.308c-7.672 10.22-12.233 22.9-12.237 36.637 0 26.26 9.607 50.333 27.05 67.777 13.738 13.737 39.3 30.11 83.075 30.11h42.827l-20.938-35.415zm-46.363-111.417h-48.944L162.95 200h43.507l2.72 48.945zM196.94 28.693l8.837 159.07H163.63l8.838-159.07h24.473zM147.997 297.89c.002-9.404 3.546-17.978 9.362-24.473h54.692c5.816 6.495 9.362 15.068 9.362 24.473 0 20.273.003 48.948 12.236 73.417-61.18 0-85.652-36.708-85.652-73.417z"/></svg>