<?xml version="1.0" encoding="utf-8"?>
<!-- Generator: Adobe Illustrator 16.0.0, SVG Export Plug-In . SVG Version: 6.00 Build 0)  -->
<!DOCTYPE svg PUBLIC "-//W3C//DTD SVG 1.1//EN" "http://www.w3.org/Graphics/SVG/1.1/DTD/svg11.dtd">
<svg version="1.1" id="Layer_1" xmlns="http://www.w3.org/2000/svg" xmlns:xlink="http://www.w3.org/1999/xlink" x="0px" y="0px"
	 width="400px" height="400px" viewBox="0 0 400 400" enable-background="new 0 0 400 400" xml:space="preserve">
<path fill="#010101" d="M336.262,128.907H205.925c-3.272,0-5.925-2.653-5.925-5.924c0-3.272,2.652-5.925,5.925-5.925h130.337
	c3.273,0,5.925,2.653,5.925,5.925C342.187,126.254,339.535,128.907,336.262,128.907L336.262,128.907z M336.262,164.453
	c3.273,0,5.925-2.652,5.925-5.924c0-3.271-2.651-5.924-5.925-5.924H205.925c-3.272,0-5.925,2.653-5.925,5.924
	c0,3.272,2.652,5.924,5.925,5.924H336.262L336.262,164.453z M176.302,117.058v94.791c0,6.544-5.304,11.849-11.849,11.849H69.662
	c-6.545,0-11.849-5.305-11.849-11.849v-94.791c0-6.543,5.304-11.849,11.849-11.849h94.791
	C170.999,105.209,176.302,110.514,176.302,117.058z M164.453,117.058H69.662v94.791h11.849c0-13.395,7.413-25.054,18.358-31.115
	c-4.024-4.247-6.509-9.968-6.509-16.281c0-13.087,10.61-23.697,23.697-23.697c13.089,0,23.698,10.61,23.698,23.697
	c0,6.312-2.485,12.034-6.509,16.281c10.945,6.061,18.357,17.72,18.357,31.115h11.849V117.058z M389.582,81.511v236.977
	c0,13.088-10.609,23.698-23.697,23.698H34.116c-13.088,0-23.698-10.61-23.698-23.698V81.511c0-13.087,10.609-23.698,23.698-23.698
	h331.769C378.973,57.813,389.582,68.424,389.582,81.511z M365.885,81.511H34.116v236.977h77.018V306.64
	c0-0.26,0.045-0.509,0.077-0.761c-10.243-2.613-17.85-11.893-17.85-22.937c0-13.067,10.631-23.698,23.697-23.698
	c13.067,0,23.698,10.631,23.698,23.698c0,11.044-7.607,20.323-17.85,22.937c0.032,0.252,0.077,0.501,0.077,0.761v11.849h154.035
	V306.64c0-0.26,0.045-0.509,0.077-0.761c-10.244-2.613-17.851-11.893-17.851-22.937c0-13.067,10.631-23.698,23.698-23.698
	c13.066,0,23.697,10.631,23.697,23.698c0,11.044-7.606,20.323-17.85,22.937c0.031,0.252,0.076,0.501,0.076,0.761v11.849h77.019
	V81.511z M294.791,282.942c0-6.533-5.315-11.849-11.849-11.849s-11.849,5.315-11.849,11.849s5.315,11.849,11.849,11.849
	S294.791,289.476,294.791,282.942z M128.907,282.942c0-6.533-5.315-11.849-11.849-11.849c-6.533,0-11.849,5.315-11.849,11.849
	s5.315,11.849,11.849,11.849C123.591,294.791,128.907,289.476,128.907,282.942z M336.262,200c3.273,0,5.925-2.653,5.925-5.924
	c0-3.272-2.651-5.924-5.925-5.924H205.925c-3.272,0-5.925,2.652-5.925,5.924c0,3.271,2.652,5.924,5.925,5.924H336.262L336.262,200z"
	/>
</svg>
