<?xml version="1.0" encoding="utf-8"?>
<!-- Generator: Adobe Illustrator 16.0.0, SVG Export Plug-In . SVG Version: 6.00 Build 0)  -->
<!DOCTYPE svg PUBLIC "-//W3C//DTD SVG 1.1//EN" "http://www.w3.org/Graphics/SVG/1.1/DTD/svg11.dtd">
<svg version="1.1" id="Layer_1" xmlns="http://www.w3.org/2000/svg" xmlns:xlink="http://www.w3.org/1999/xlink" x="0px" y="0px"
	 width="400px" height="400px" viewBox="0 0 400 400" enable-background="new 0 0 400 400" xml:space="preserve">
<path fill="#010101" d="M336.455,87.455l-71.729-71.729c-4.482-4.484-10.565-7.003-16.906-7.003H80.452
	c-13.205,0-23.91,10.705-23.91,23.91v334.736c0,13.203,10.705,23.909,23.91,23.909h239.097c13.203,0,23.909-10.706,23.909-23.909
	V104.361C343.458,98.021,340.938,91.939,336.455,87.455z M247.819,32.632l71.729,71.729h-71.729V32.632z M319.549,367.368H80.452
	V32.632h155.413v71.729c0,6.603,5.353,11.955,11.955,11.955h71.729V367.368z"/>
<g>
	<path fill="#010101" d="M196.168,116.099h-77.861c-7.438,0-13.49-5.812-13.49-12.956V67.952c0-7.144,6.052-12.956,13.49-12.956
		h77.861c7.438,0,13.49,5.812,13.49,12.956v35.191C209.658,110.287,203.606,116.099,196.168,116.099z M117.816,102.966
		c0.077,0.054,0.233,0.133,0.49,0.133h77.861c0.257,0,0.413-0.079,0.49-0.133V68.128c-0.077-0.054-0.233-0.133-0.49-0.133h-77.861
		c-0.257,0-0.413,0.079-0.49,0.133V102.966z"/>
</g>
<g>
	<path fill="#010101" d="M279.87,256.383H118.554c-6.267,0-13.737-2.248-13.737-12.956v-45.19c0-10.708,7.47-12.957,13.737-12.957
		H279.87c6.267,0,13.737,2.248,13.737,12.957v45.19C293.607,254.135,286.137,256.383,279.87,256.383z M117.816,243.365
		c0.212,0.011,0.457,0.018,0.737,0.018H279.87c0.28,0,0.524-0.007,0.737-0.018v-45.067c-0.213-0.012-0.457-0.019-0.737-0.019
		H118.554c-0.28,0-0.525,0.007-0.737,0.019V243.365z"/>
</g>
<g>
	<path fill="#010101" d="M287.107,159.907H111.316c-3.59,0-6.5-2.91-6.5-6.5s2.91-6.5,6.5-6.5h175.791c3.59,0,6.5,2.91,6.5,6.5
		S290.697,159.907,287.107,159.907z"/>
</g>
<g>
	<path fill="#010101" d="M180.723,294.574h-69.407c-3.59,0-6.5-2.91-6.5-6.5s2.91-6.5,6.5-6.5h69.407c3.59,0,6.5,2.91,6.5,6.5
		S184.313,294.574,180.723,294.574z"/>
</g>
<g>
	<path fill="#010101" d="M287.107,294.574H217.7c-3.59,0-6.5-2.91-6.5-6.5s2.91-6.5,6.5-6.5h69.407c3.59,0,6.5,2.91,6.5,6.5
		S290.697,294.574,287.107,294.574z"/>
</g>
<g>
	<path fill="#010101" d="M180.723,334.455h-69.407c-3.59,0-6.5-2.91-6.5-6.5s2.91-6.5,6.5-6.5h69.407c3.59,0,6.5,2.91,6.5,6.5
		S184.313,334.455,180.723,334.455z"/>
</g>
<line fill="none" stroke="#010101" stroke-width="13" stroke-linecap="round" x1="217.7" y1="327.955" x2="287.107" y2="327.955"/>
</svg>
