<?xml version="1.0" encoding="utf-8"?>
<!-- Generator: Adobe Illustrator 16.0.0, SVG Export Plug-In . SVG Version: 6.00 Build 0)  -->
<!DOCTYPE svg PUBLIC "-//W3C//DTD SVG 1.1//EN" "http://www.w3.org/Graphics/SVG/1.1/DTD/svg11.dtd">
<svg version="1.1" id="Layer_1" xmlns="http://www.w3.org/2000/svg" xmlns:xlink="http://www.w3.org/1999/xlink" x="0px" y="0px"
	 width="400px" height="400px" viewBox="0 0 400 400" enable-background="new 0 0 400 400" xml:space="preserve">
<path fill="#010101" d="M369.344,79.04v241.92H30.656V79.04H369.344 M369.344,54.848H30.656c-13.36,0-24.192,10.833-24.192,24.192
	v241.92c0,13.36,10.832,24.192,24.192,24.192h338.688c13.36,0,24.192-10.832,24.192-24.192V79.04
	C393.536,65.68,382.704,54.848,369.344,54.848L369.344,54.848z M127.424,163.712H109.28v-48.384c0-3.34-2.708-6.048-6.048-6.048
	s-6.048,2.708-6.048,6.048v48.384H79.04c-6.68,0-12.096,5.416-12.096,12.096V200c0,6.68,5.416,12.096,12.096,12.096h18.144v72.576
	c0,3.34,2.708,6.048,6.048,6.048s6.048-2.708,6.048-6.048v-72.576h18.144c6.68,0,12.096-5.416,12.096-12.096v-24.192
	C139.52,169.128,134.104,163.712,127.424,163.712z M127.424,200H79.04v-24.192h48.384V200z M224.192,139.52h-18.145v-24.192
	c0-3.34-2.708-6.048-6.048-6.048s-6.048,2.708-6.048,6.048v24.192h-18.144c-6.68,0-12.096,5.416-12.096,12.096v24.192
	c0,6.68,5.416,12.096,12.096,12.096h18.144v96.768c0,3.34,2.708,6.048,6.048,6.048s6.048-2.708,6.048-6.048v-96.768h18.145
	c6.68,0,12.096-5.416,12.096-12.096v-24.192C236.288,144.936,230.872,139.52,224.192,139.52z M224.192,175.808h-48.384v-24.192
	h48.384V175.808z M320.96,200h-18.144v-84.672c0-3.34-2.708-6.048-6.049-6.048c-3.34,0-6.048,2.708-6.048,6.048V200h-18.144
	c-6.68,0-12.096,5.416-12.096,12.096v24.192c0,6.68,5.416,12.096,12.096,12.096h18.144v36.288c0,3.34,2.708,6.048,6.048,6.048
	c3.341,0,6.049-2.708,6.049-6.048v-36.288h18.144c6.68,0,12.096-5.416,12.096-12.096v-24.192C333.056,205.416,327.64,200,320.96,200
	z M320.96,236.288h-48.384v-24.192h48.384V236.288z"/>
</svg>
