<svg xmlns="http://www.w3.org/2000/svg" width="400" height="400" viewBox="0 0 400 400"><path fill="#010101" d="M346.848 28.678c13.46 0 24.474 11.014 24.474 24.475v293.695c0 13.46-11.013 24.474-24.474 24.474H53.152c-13.46 0-24.475-11.013-24.475-24.474V53.152c0-13.46 11.014-24.475 24.475-24.475h293.696m0-24.474H53.152c-26.992 0-48.95 21.96-48.95 48.95v293.694c0 26.99 21.96 48.95 48.95 48.95h293.695c26.99 0 48.95-21.96 48.95-48.95V53.152c0-26.99-21.96-48.95-48.95-48.95zM200 83.285c23.02 0 41.684 18.662 41.684 41.684 0 1.466-.077 2.916-.226 4.345 7.004-5.34 15.748-8.514 25.236-8.514 23.022 0 41.685 18.663 41.685 41.685 0 16.502-9.592 30.76-23.5 37.516 13.908 6.756 23.5 21.016 23.5 37.517 0 23.02-18.663 41.684-41.686 41.684-9.488 0-18.232-3.174-25.236-8.513.148 1.43.226 2.878.226 4.346 0 23.02-18.662 41.684-41.684 41.684s-41.684-18.662-41.684-41.684c0-1.468.078-2.917.226-4.346-7.006 5.34-15.75 8.514-25.236 8.514-23.022 0-41.684-18.66-41.684-41.683 0-16.5 9.588-30.76 23.498-37.516-13.91-6.754-23.498-21.012-23.498-37.515 0-23.022 18.662-41.684 41.684-41.684 9.487 0 18.23 3.176 25.236 8.515-.148-1.43-.226-2.878-.226-4.346 0-23.023 18.662-41.685 41.684-41.685m0-16.674c-25.28 0-46.86 16.16-54.947 38.69-3.826-.78-7.755-1.173-11.747-1.173-32.18 0-58.358 26.18-58.358 58.357 0 11.162 3.167 22.017 9.157 31.393 1.37 2.144 2.874 4.187 4.496 6.123-1.62 1.934-3.125 3.98-4.495 6.124-5.99 9.375-9.157 20.23-9.157 31.392 0 32.18 26.177 58.357 58.358 58.357 3.992 0 7.92-.396 11.747-1.174 8.088 22.53 29.666 38.688 54.947 38.688s46.857-16.158 54.946-38.69c3.826.778 7.755 1.175 11.748 1.175 32.18 0 58.357-26.18 58.357-58.357 0-11.162-3.166-22.017-9.156-31.392-1.37-2.145-2.873-4.19-4.498-6.124 1.625-1.936 3.128-3.98 4.498-6.123 5.99-9.376 9.157-20.23 9.157-31.393 0-32.18-26.178-58.357-58.356-58.357-3.993 0-7.922.395-11.748 1.174-8.09-22.53-29.665-38.69-54.946-38.69zm0 91.706c23.02 0 41.684 18.662 41.684 41.684 0 23.02-18.662 41.684-41.684 41.684S158.316 223.022 158.316 200s18.662-41.684 41.684-41.684m0-8.337c-27.583 0-50.02 22.44-50.02 50.02s22.437 50.02 50.02 50.02c27.58 0 50.02-22.438 50.02-50.02s-22.44-50.02-50.02-50.02z"/></svg>