<?xml version="1.0" encoding="utf-8"?>
<!-- Generator: Adobe Illustrator 16.0.0, SVG Export Plug-In . SVG Version: 6.00 Build 0)  -->
<!DOCTYPE svg PUBLIC "-//W3C//DTD SVG 1.1//EN" "http://www.w3.org/Graphics/SVG/1.1/DTD/svg11.dtd">
<svg version="1.1" id="Layer_1" xmlns="http://www.w3.org/2000/svg" xmlns:xlink="http://www.w3.org/1999/xlink" x="0px" y="0px"
	 width="400px" height="400px" viewBox="0 0 400 400" enable-background="new 0 0 400 400" xml:space="preserve">
<path fill="#010101" d="M385.48,153.663c-4.813-14.288-18.207-23.908-33.282-23.908h-85.211l-34.522-83.645
	C227.039,32.963,214.22,24.386,200,24.386c-14.223,0-27.041,8.577-32.467,21.723l-34.517,83.645H47.804
	c-15.077,0-28.471,9.621-33.285,23.908c-4.813,14.286,0.026,30.052,12.028,39.174l72.843,55.375l-25.347,81.894
	c-4.435,14.327,0.717,29.891,12.827,38.741s28.499,9.035,40.807,0.46L200,318.908l72.323,50.398
	c6.04,4.209,13.062,6.307,20.08,6.307c7.282,0,14.562-2.261,20.726-6.767c12.11-8.851,17.261-24.414,12.828-38.741l-25.348-81.894
	l72.844-55.375C385.455,183.714,390.294,167.949,385.48,153.663z M359.281,174.197l-85.883,65.29l30.189,97.543
	c1.479,4.775-0.24,9.963-4.275,12.912c-2.054,1.503-4.481,2.257-6.908,2.257c-2.34,0-4.681-0.7-6.692-2.102L200,290.368
	l-85.712,59.729c-4.102,2.856-9.566,2.796-13.603-0.155c-4.036-2.949-5.753-8.137-4.276-12.912l30.192-97.543l-85.885-65.29
	c-4-3.042-5.614-8.295-4.009-13.058c1.605-4.763,6.068-7.969,11.096-7.969h100.878l40.497-98.127
	c1.808-4.382,6.081-7.242,10.821-7.242s9.014,2.859,10.821,7.242l40.496,98.127h100.881c5.022,0,9.487,3.207,11.094,7.969
	C364.896,165.901,363.283,171.155,359.281,174.197z"/>
</svg>
