<svg xmlns="http://www.w3.org/2000/svg" width="400" height="400" viewBox="0 0 400 400"><path fill="#010101" d="M343.034 80.805c13.11 0 23.84 10.728 23.84 23.84v190.71c0 13.11-10.73 23.84-23.84 23.84H56.966c-13.11 0-23.84-10.73-23.84-23.84v-190.71c0-13.112 10.73-23.84 23.84-23.84h286.068m0-23.84H56.966c-26.29 0-47.678 21.39-47.678 47.68v190.71c0 26.29 21.387 47.68 47.678 47.68h286.068c26.29 0 47.678-21.39 47.678-47.68v-190.71c0-26.29-21.39-47.68-47.678-47.68zM92.724 259.6c6.573 0 11.92 5.347 11.92 11.92s-5.347 11.92-11.92 11.92-11.918-5.35-11.918-11.92 5.346-11.92 11.92-11.92m0-11.92c-13.168 0-23.84 10.673-23.84 23.84 0 13.166 10.672 23.838 23.84 23.838s23.838-10.672 23.838-23.84c0-13.165-10.673-23.838-23.84-23.838zm95.355-59.597c6.573 0 11.92 5.348 11.92 11.92s-5.347 11.92-11.92 11.92-11.918-5.348-11.918-11.92 5.346-11.92 11.92-11.92m0-11.92c-13.168 0-23.84 10.673-23.84 23.84 0 13.166 10.672 23.84 23.84 23.84S211.92 213.165 211.92 200c0-13.167-10.673-23.84-23.84-23.84zM200 116.564c6.572 0 11.92 5.347 11.92 11.92S206.572 140.4 200 140.4s-11.92-5.346-11.92-11.918 5.348-11.92 11.92-11.92m0-11.918c-13.167 0-23.84 10.672-23.84 23.84S186.834 152.32 200 152.32c13.166 0 23.84-10.673 23.84-23.84s-10.674-23.838-23.84-23.838zm-59.598 11.92c6.572 0 11.92 5.346 11.92 11.918s-5.348 11.92-11.92 11.92-11.92-5.348-11.92-11.92 5.348-11.92 11.92-11.92m0-11.918c-13.166 0-23.84 10.672-23.84 23.84s10.674 23.838 23.84 23.838c13.167 0 23.84-10.673 23.84-23.84s-10.673-23.838-23.84-23.838zm-11.92 83.437c6.573 0 11.92 5.348 11.92 11.92s-5.347 11.92-11.92 11.92-11.918-5.348-11.918-11.92 5.347-11.92 11.92-11.92m0-11.92c-13.168 0-23.84 10.673-23.84 23.84 0 13.166 10.672 23.84 23.84 23.84S152.32 213.165 152.32 200c0-13.167-10.673-23.84-23.84-23.84zm-47.68-59.597c6.573 0 11.92 5.347 11.92 11.92S87.377 140.4 80.804 140.4s-11.918-5.346-11.918-11.918 5.347-11.92 11.92-11.92m0-11.918c-13.168 0-23.84 10.672-23.84 23.84s10.673 23.838 23.84 23.838 23.838-10.673 23.838-23.84-10.672-23.838-23.84-23.838zm-11.92 83.437c6.572 0 11.92 5.348 11.92 11.92s-5.348 11.92-11.92 11.92-11.92-5.348-11.92-11.92 5.347-11.92 11.92-11.92m0-11.92c-13.167 0-23.84 10.673-23.84 23.84 0 13.166 10.674 23.84 23.84 23.84s23.84-10.674 23.84-23.84c0-13.167-10.674-23.84-23.84-23.84zm178.792 11.92c6.572 0 11.92 5.348 11.92 11.92s-5.348 11.92-11.92 11.92-11.92-5.348-11.92-11.92 5.347-11.92 11.92-11.92m0-11.92c-13.166 0-23.84 10.673-23.84 23.84 0 13.166 10.674 23.84 23.84 23.84 13.167 0 23.84-10.674 23.84-23.84 0-13.167-10.673-23.84-23.84-23.84zm11.92-59.597c6.572 0 11.92 5.347 11.92 11.92s-5.348 11.918-11.92 11.918-11.92-5.346-11.92-11.918 5.347-11.92 11.92-11.92m0-11.918c-13.167 0-23.84 10.672-23.84 23.84s10.673 23.838 23.84 23.838c13.166 0 23.84-10.673 23.84-23.84s-10.674-23.838-23.84-23.838zm47.677 154.954c6.572 0 11.92 5.347 11.92 11.92s-5.348 11.92-11.92 11.92-11.92-5.35-11.92-11.92 5.348-11.92 11.92-11.92m0-11.92c-13.166 0-23.84 10.673-23.84 23.84 0 13.166 10.674 23.838 23.84 23.838s23.84-10.672 23.84-23.84c0-13.165-10.674-23.838-23.84-23.838zm11.92-131.115c6.572 0 11.92 5.347 11.92 11.92s-5.348 11.918-11.92 11.918-11.92-5.346-11.92-11.918 5.348-11.92 11.92-11.92m0-11.918c-13.167 0-23.84 10.672-23.84 23.84s10.673 23.838 23.84 23.838c13.166 0 23.84-10.673 23.84-23.84s-10.674-23.838-23.84-23.838zm-71.517 154.954c6.57 0 11.92 5.347 11.92 11.92s-5.348 11.92-11.918 11.92h-95.357c-6.573 0-11.92-5.35-11.92-11.92s5.347-11.92 11.92-11.92h95.355m.002-11.92h-95.356c-13.168 0-23.84 10.673-23.84 23.84 0 13.166 10.673 23.838 23.84 23.838h95.356c13.165 0 23.837-10.674 23.837-23.84s-10.672-23.838-23.837-23.838zm83.434-59.597c6.57 0 11.92 5.348 11.92 11.92s-5.348 11.92-11.918 11.92h-23.842c-6.572 0-11.92-5.348-11.92-11.92s5.35-11.92 11.92-11.92h23.84m.002-11.92h-23.842c-13.167 0-23.838 10.673-23.838 23.84 0 13.166 10.67 23.84 23.838 23.84h23.842c13.165 0 23.837-10.675 23.837-23.84s-10.672-23.84-23.837-23.84z"/></svg>