<svg xmlns="http://www.w3.org/2000/svg" width="400" height="400" viewBox="0 0 400 400"><path fill="#010101" d="M336.262 128.907H205.925c-3.272 0-5.925-2.653-5.925-5.924 0-3.272 2.652-5.925 5.925-5.925h130.337c3.273 0 5.925 2.653 5.925 5.925 0 3.27-2.652 5.924-5.925 5.924zm0 35.546c3.273 0 5.925-2.652 5.925-5.924 0-3.272-2.65-5.925-5.925-5.925H205.925c-3.272 0-5.925 2.653-5.925 5.924 0 3.27 2.652 5.923 5.925 5.923h130.337zm-159.96-47.395v94.79c0 6.545-5.304 11.85-11.85 11.85h-94.79c-6.545 0-11.85-5.305-11.85-11.85v-94.79c0-6.543 5.305-11.85 11.85-11.85h94.79c6.547 0 11.85 5.306 11.85 11.85zm-11.85 0h-94.79v94.79h11.85c0-13.394 7.412-25.053 18.357-31.114-4.025-4.247-6.51-9.968-6.51-16.28 0-13.088 10.61-23.698 23.697-23.698 13.09 0 23.698 10.61 23.698 23.697 0 6.312-2.485 12.034-6.51 16.28 10.946 6.062 18.358 17.72 18.358 31.116h11.85v-94.792zm225.13-35.547V318.49c0 13.088-10.61 23.698-23.697 23.698H34.115c-13.087 0-23.697-10.61-23.697-23.698V81.51c0-13.086 10.61-23.697 23.698-23.697h331.77c13.087 0 23.696 10.61 23.696 23.698zm-23.697 0H34.115V318.49h77.02V306.64c0-.26.044-.51.076-.76-10.242-2.614-17.85-11.894-17.85-22.938 0-13.067 10.632-23.698 23.698-23.698 13.067 0 23.698 10.63 23.698 23.698 0 11.044-7.607 20.323-17.85 22.937.032.25.077.5.077.76v11.85h154.035v-11.85c0-.26.045-.51.077-.76-10.244-2.614-17.85-11.894-17.85-22.938 0-13.067 10.63-23.698 23.697-23.698 13.066 0 23.697 10.63 23.697 23.698 0 11.044-7.607 20.323-17.85 22.937.03.25.075.5.075.76v11.85h77.02V81.51zM294.79 282.943c0-6.533-5.314-11.85-11.848-11.85s-11.85 5.316-11.85 11.85 5.316 11.85 11.85 11.85 11.85-5.316 11.85-11.85zm-165.883 0c0-6.533-5.315-11.85-11.85-11.85-6.532 0-11.848 5.316-11.848 11.85s5.314 11.85 11.848 11.85c6.533 0 11.85-5.316 11.85-11.85zM336.262 200c3.273 0 5.925-2.653 5.925-5.924 0-3.272-2.65-5.924-5.925-5.924H205.925c-3.272 0-5.925 2.652-5.925 5.924 0 3.27 2.652 5.924 5.925 5.924h130.337z"/></svg>