<?xml version="1.0" encoding="utf-8"?>
<!-- Generator: Adobe Illustrator 16.0.0, SVG Export Plug-In . SVG Version: 6.00 Build 0)  -->
<!DOCTYPE svg PUBLIC "-//W3C//DTD SVG 1.1//EN" "http://www.w3.org/Graphics/SVG/1.1/DTD/svg11.dtd">
<svg version="1.1" id="Layer_1" xmlns="http://www.w3.org/2000/svg" xmlns:xlink="http://www.w3.org/1999/xlink" x="0px" y="0px"
	 width="400px" height="400px" viewBox="0 0 400 400" enable-background="new 0 0 400 400" xml:space="preserve">
<path fill="#010101" d="M346.848,28.678c13.461,0,24.474,11.014,24.474,24.475v293.695c0,13.461-11.013,24.474-24.474,24.474H53.152
	c-13.461,0-24.475-11.013-24.475-24.474V53.152c0-13.461,11.014-24.475,24.475-24.475H346.848 M346.848,4.203H53.152
	c-26.992,0-48.949,21.959-48.949,48.949v293.695c0,26.99,21.958,48.949,48.949,48.949h293.695c26.99,0,48.949-21.959,48.949-48.949
	V53.152C395.797,26.162,373.838,4.203,346.848,4.203L346.848,4.203z"/>
<path fill="#010101" d="M200,83.285c23.021,0,41.684,18.662,41.684,41.684c0,1.467-0.077,2.917-0.226,4.346
	c7.004-5.339,15.748-8.514,25.236-8.514c23.022,0,41.685,18.662,41.685,41.684c0,16.502-9.591,30.76-23.499,37.516
	c13.908,6.755,23.499,21.015,23.499,37.516c0,23.021-18.662,41.684-41.685,41.684c-9.488,0-18.232-3.175-25.236-8.514
	c0.148,1.429,0.226,2.878,0.226,4.346c0,23.021-18.662,41.684-41.684,41.684c-23.022,0-41.684-18.662-41.684-41.684
	c0-1.468,0.078-2.917,0.226-4.346c-7.006,5.339-15.75,8.514-25.236,8.514c-23.022,0-41.684-18.662-41.684-41.684
	c0-16.501,9.588-30.761,23.498-37.516c-13.91-6.755-23.498-21.013-23.498-37.516c0-23.022,18.662-41.684,41.684-41.684
	c9.487,0,18.23,3.175,25.236,8.514c-0.148-1.429-0.226-2.878-0.226-4.346C158.316,101.947,176.978,83.285,200,83.285 M200,66.611
	c-25.281,0-46.859,16.158-54.947,38.69c-3.826-0.78-7.755-1.174-11.747-1.174c-32.181,0-58.358,26.179-58.358,58.357
	c0,11.162,3.167,22.017,9.157,31.393c1.37,2.144,2.874,4.187,4.496,6.123c-1.622,1.934-3.126,3.979-4.496,6.124
	c-5.99,9.375-9.157,20.229-9.157,31.392c0,32.179,26.177,58.357,58.358,58.357c3.992,0,7.921-0.396,11.747-1.174
	c8.088,22.531,29.666,38.689,54.947,38.689s46.857-16.158,54.946-38.689c3.826,0.777,7.755,1.174,11.748,1.174
	c32.179,0,58.357-26.179,58.357-58.357c0-11.162-3.167-22.017-9.157-31.392c-1.37-2.145-2.873-4.19-4.498-6.124
	c1.625-1.936,3.128-3.979,4.498-6.123c5.99-9.376,9.157-20.231,9.157-31.393c0-32.179-26.179-58.357-58.357-58.357
	c-3.993,0-7.922,0.395-11.748,1.174C246.857,82.77,225.281,66.611,200,66.611L200,66.611z M200,158.316
	c23.021,0,41.684,18.662,41.684,41.684c0,23.021-18.662,41.684-41.684,41.684c-23.022,0-41.684-18.662-41.684-41.684
	C158.316,176.978,176.978,158.316,200,158.316 M200,149.979c-27.583,0-50.021,22.44-50.021,50.021s22.438,50.021,50.021,50.021
	c27.581,0,50.021-22.439,50.021-50.021S227.581,149.979,200,149.979L200,149.979z"/>
</svg>
