<?xml version="1.0" encoding="utf-8"?>
<!-- Generator: Adobe Illustrator 16.0.0, SVG Export Plug-In . SVG Version: 6.00 Build 0)  -->
<!DOCTYPE svg PUBLIC "-//W3C//DTD SVG 1.1//EN" "http://www.w3.org/Graphics/SVG/1.1/DTD/svg11.dtd">
<svg version="1.1" id="Layer_1" xmlns="http://www.w3.org/2000/svg" xmlns:xlink="http://www.w3.org/1999/xlink" x="0px" y="0px"
	 width="400px" height="400px" viewBox="0 0 400 400" enable-background="new 0 0 400 400" xml:space="preserve">
<path fill="#010101" d="M345.152,79.04c13.305,0,24.191,10.887,24.191,24.192v193.536c0,13.306-10.887,24.192-24.191,24.192H54.848
	c-13.307,0-24.192-10.887-24.192-24.192V103.232c0-13.305,10.885-24.192,24.192-24.192H345.152 M345.152,54.848H54.848
	c-26.678,0-48.384,21.706-48.384,48.384v193.536c0,26.679,21.706,48.385,48.384,48.385h290.305
	c26.679,0,48.384-21.706,48.384-48.385V103.232C393.536,76.553,371.831,54.848,345.152,54.848L345.152,54.848z M333.056,115.328
	v36.288H66.944v-36.288H333.056 M333.056,103.232H66.944c-6.68,0-12.096,5.416-12.096,12.096v36.288
	c0,6.68,5.417,12.096,12.096,12.096h266.112c6.681,0,12.097-5.416,12.097-12.096v-36.288
	C345.152,108.648,339.736,103.232,333.056,103.232L333.056,103.232z M115.328,200v84.672H66.944V200H115.328 M115.328,187.904
	H66.944c-6.68,0-12.096,5.416-12.096,12.096v84.672c0,6.68,5.417,12.096,12.096,12.096h48.384c6.68,0,12.096-5.416,12.096-12.096
	V200C127.424,193.32,122.008,187.904,115.328,187.904L115.328,187.904z M333.056,200v84.672H163.712V200H333.056 M333.056,187.904
	H163.712c-6.68,0-12.096,5.416-12.096,12.096v84.672c0,6.68,5.416,12.096,12.096,12.096h169.344c6.681,0,12.097-5.416,12.097-12.096
	V200C345.152,193.32,339.736,187.904,333.056,187.904L333.056,187.904z"/>
</svg>
