<?xml version="1.0" encoding="utf-8"?>
<!-- Generator: Adobe Illustrator 16.0.0, SVG Export Plug-In . SVG Version: 6.00 Build 0)  -->
<!DOCTYPE svg PUBLIC "-//W3C//DTD SVG 1.1//EN" "http://www.w3.org/Graphics/SVG/1.1/DTD/svg11.dtd">
<svg version="1.1" id="Layer_1" xmlns="http://www.w3.org/2000/svg" xmlns:xlink="http://www.w3.org/1999/xlink" x="0px" y="0px"
	 width="400px" height="400px" viewBox="0 0 400 400" enable-background="new 0 0 400 400" xml:space="preserve">
<g>
	<g>
		<path d="M326,105.143H74c-19.882,0-36-16.118-36-36s16.118-36,36-36h252c19.883,0,36,16.118,36,36S345.883,105.143,326,105.143z"
			/>
	</g>
	<g>
		<path d="M326,236H74c-19.882,0-36-16.118-36-36c0-19.882,16.118-36,36-36h252c19.883,0,36,16.118,36,36
			C362,219.882,345.883,236,326,236z"/>
	</g>
	<g>
		<path d="M326,366.856H74c-19.882,0-36-16.117-36-36c0-19.882,16.118-36,36-36h252c19.883,0,36,16.118,36,36
			C362,350.739,345.883,366.856,326,366.856z"/>
	</g>
</g>
</svg>
