<svg xmlns="http://www.w3.org/2000/svg" width="400" height="400" viewBox="0 0 400 400"><path fill="#010101" d="M129.714 59.43v70.285H59.43V59.43h70.284m0-46.86H59.43c-25.88 0-46.858 20.98-46.858 46.858v70.286c0 25.878 20.98 46.857 46.857 46.857h70.285c25.878 0 46.857-20.978 46.857-46.856V59.43c0-25.88-20.98-46.86-46.858-46.86zM340.57 59.43v70.285h-70.284V59.43h70.285m0-46.86h-70.284c-25.88 0-46.857 20.98-46.857 46.858v70.286c0 25.878 20.978 46.857 46.856 46.857h70.285c25.88 0 46.858-20.978 46.858-46.856V59.43c0-25.88-20.98-46.86-46.857-46.86zM129.715 270.287v70.285H59.43v-70.284h70.284m0-46.857H59.43c-25.88 0-46.858 20.978-46.858 46.856v70.285c0 25.88 20.98 46.858 46.857 46.858h70.285c25.878 0 46.857-20.98 46.857-46.857v-70.284c0-25.88-20.98-46.857-46.858-46.857zm210.857 46.856v70.285h-70.284v-70.284h70.285m0-46.857h-70.284c-25.88 0-46.857 20.978-46.857 46.856v70.285c0 25.88 20.978 46.858 46.856 46.858h70.285c25.88 0 46.858-20.98 46.858-46.857v-70.284c0-25.88-20.98-46.857-46.857-46.857z"/></svg>