<?xml version="1.0" encoding="utf-8"?>
<!-- Generator: Adobe Illustrator 16.0.0, SVG Export Plug-In . SVG Version: 6.00 Build 0)  -->
<!DOCTYPE svg PUBLIC "-//W3C//DTD SVG 1.1//EN" "http://www.w3.org/Graphics/SVG/1.1/DTD/svg11.dtd">
<svg version="1.1" id="Layer_1" xmlns="http://www.w3.org/2000/svg" xmlns:xlink="http://www.w3.org/1999/xlink" x="0px" y="0px"
	 width="400px" height="400px" viewBox="0 0 400 400" enable-background="new 0 0 400 400" xml:space="preserve">
<path fill="#010101" d="M129.714,59.429v70.286H59.429V59.429H129.714 M129.714,12.571H59.429
	c-25.878,0-46.857,20.979-46.857,46.857v70.286c0,25.878,20.979,46.857,46.857,46.857h70.286c25.878,0,46.857-20.979,46.857-46.857
	V59.429C176.571,33.55,155.592,12.571,129.714,12.571L129.714,12.571z M340.571,59.429v70.286h-70.285V59.429H340.571
	 M340.571,12.571h-70.285c-25.879,0-46.857,20.979-46.857,46.857v70.286c0,25.878,20.979,46.857,46.857,46.857h70.285
	c25.878,0,46.857-20.979,46.857-46.857V59.429C387.429,33.55,366.449,12.571,340.571,12.571L340.571,12.571z M129.714,270.286
	v70.285H59.429v-70.285H129.714 M129.714,223.429H59.429c-25.878,0-46.857,20.979-46.857,46.857v70.285
	c0,25.878,20.979,46.857,46.857,46.857h70.286c25.878,0,46.857-20.979,46.857-46.857v-70.285
	C176.571,244.407,155.592,223.429,129.714,223.429L129.714,223.429z M340.571,270.286v70.285h-70.285v-70.285H340.571
	 M340.571,223.429h-70.285c-25.879,0-46.857,20.979-46.857,46.857v70.285c0,25.878,20.979,46.857,46.857,46.857h70.285
	c25.878,0,46.857-20.979,46.857-46.857v-70.285C387.429,244.407,366.449,223.429,340.571,223.429L340.571,223.429z"/>
</svg>
